<?xml version="1.0" encoding="utf-8"?>
<!-- Generator: Adobe Illustrator 22.1.0, SVG Export Plug-In . SVG Version: 6.00 Build 0)  -->
<svg version="1.1" id="Layer_1" xmlns="http://www.w3.org/2000/svg" xmlns:xlink="http://www.w3.org/1999/xlink" x="0px" y="0px"
	 viewBox="0 0 800 800" style="enable-background:new 0 0 800 800;" xml:space="preserve">
<style type="text/css">
	.st0{opacity:0.1;fill:#FFFFFF;}
</style>
<path class="st0" d="M683.7,158.6c-7-6.1-11.5-12.9-12.7-21.5c-0.1-1-0.7-1.9-0.7-2.9c-0.1-4.6-0.7-10,3.5-12.7
	c3.5-2.3,7.5,0.4,11.1,2.3c8,4.3,14.3,9.8,13.7,20c-0.1,1.5,0.9,3.1,1.5,5.2c8-2.9,11.1-9.8,14.8-15.8c1.5-2.5-0.8-4.2-2.6-5.7
	c-5.2-4.2-10.4-8.4-14.5-13.7c-5.1-6.6-5.8-13.7-2-17.2c3.9-3.4,9.2-2.2,16.3,2.8c4.7,3.3,7,8.5,11.6,14c2.1-7.3,3.8-13.3,7.4-18.4
	c2.2-3.2,1-5.5-2.1-7.4c-6.5-4-11.1-9.5-12.8-17.1c-0.9-4.2-2.3-8.7,1.6-12.1c2.7-2.4,10.1-1.5,14.2,1.2c4.5,2.9,6.8,7.3,7.6,12.4
	c0.7,4.2,1,8.5,1.6,14c6.2-4.8,11.6-9.4,17.4-13.4c6.6-4.5,10.8-3.4,15.4,2.7c2.5,3.3,2.1,6.1-0.5,8.9c-3.8,4-8.6,6.2-13.8,7.7
	c-1.3,0.4-2.6,0.3-4,0.5c-18.8,3-21.9,6.2-25.5,26.6c6-0.7,11.8-1.2,17.5-2.1c3.2-0.5,6-0.1,8.6,1.6c3.7,2.5,4.6,5.8,1.9,9.4
	c-3.7,4.9-8.5,8.4-14.7,9.7c-3.3,0.7-6.8,2.2-9.8,1.5c-11.9-3-16.9,4.9-22.7,13.2c2.2,3.2,6,3.6,9.2,4.9c3.4,1.4,6.9,2.5,10.1,4.3
	c7.2,4.2,6.9,11.3-0.5,15.5c-9.5,5.4-24.8,2.7-31.9-5.7c-1.5-1.8-2.7-3.8-4.2-5.6c-1.5-1.8-3.2-2-5.1-0.4
	c-6.2,4.9-12.4,9.7-20.2,15.7c8.1,1.5,13.8,4.4,18.1,9.7c5.5,6.7,4.2,12.3-3.9,15.5c-5.1,2.1-10.6,2.3-15.7,0.6
	c-6.5-2.2-13.8-2.6-19.4-7.2c-1.6-1.3-2.9-1-4.5-0.4c-6.2,2.3-12.1,5.1-18,9.4c3.5,2.9,7,2.2,10,3.1c6.5,2,10.4,6.7,11.1,12.7
	c0.5,4.2-1.5,7.3-4.5,9.4c-10.2,7-24.2,2.7-29.3-8.8c-5.9-13.4-8.9-14.2-20.8-5.2c-3.4,2.6-6.5,5.7-9.6,8.8
	c-2.5,2.5-2.2,4.6,1.5,5.8c4.1,1.3,8.2,2.8,12.2,4.3c1.9,0.7,3.6,1.7,5.3,2.7c3.3,2,7.7,3.5,6.7,8.7c-0.9,4.6-5,6.3-8.7,7.3
	c-8,2.2-15.7,1.3-23.2-2.7c-9.8-5.2-11.2-4.5-16.2,5.1c-0.8,1.5-1.6,2.9-2.1,4.5c-1.3,3.7-2.5,7.5-3.9,11.7
	c4.8,1.5,7.8-2.1,11.3-3.2c5.2-1.6,10.2-3.1,15.6-2.3c5.1,0.7,6.9,2.9,4.8,7.3c-3.9,8.2-11.3,17.6-24.2,14.5c-8-2-8.5-1.3-10.3,7
	c-1.2,5.6-1.1,11.1-0.4,18c7.1-5.3,13.9-9,22.2-8.7c3.8,0.2,7.7,0.2,9.5,4c1.6,3.4-0.8,6.4-2.5,9.2c-4.3,7.1-11.6,9.7-18.9,11.9
	c-8.1,2.4-8.6,2.6-8.9,10.6c-0.3,8-0.7,15.9,1.4,24c3.7-0.4,5-3.4,6.8-5.4c3.1-3.5,6.6-6.5,10.7-8.9c2.8-1.6,5.5-2.2,8.3,0.1
	c2.5,2.1,4.1,4.7,3.2,7.8c-4,13.1-7.6,26.6-23.6,30.4c-2.9,0.7-4.6,2.3-4.9,5.4c-0.7,6.6-1.5,13.2,1.5,20c4.2-0.4,5.7-4.2,8-6.6
	c5.2-5.5,11.5-7.8,18.8-7.5c6.4,0.3,8.7,3.7,7.4,10.1c-0.8,3.9-3.1,6.6-6.1,8.7c-5.2,3.6-10.4,7.2-16.1,10c-9.1,4.5-9.5,5.6-7,15.3
	c0.7,2.6,0.9,4.7-2,5.6c-2.7,0.9-4.8-0.7-5.7-2.9c-1.1-2.7-1.5-5.8-2.2-8.7c-1.2-4.8-3.7-7.4-9.2-6.2c-4.6,1-9.3,1-13.9,0.3
	c-5.2-0.8-9.5-3-12.4-7.5c-4.2-6.4-1.8-12.8,5.7-14.4c7.4-1.6,14.6-0.7,21.2,3.2c1.4,0.8,2.8,1.5,4.6,2.4c0-9.8,0.1-18.9-0.1-27.9
	c-0.1-4-3.1-3.3-5.9-2.9c-10.5,1.5-18.9-2.3-25.5-10.4c-3.3-4.1-5.4-8.7-2.9-13.8c2.4-5,7.3-5.2,12.1-4.9c5,0.4,9.9,1,13.8,4.8
	c1.6,1.5,3.6,3,7.4,3.4c0-6.1,0.1-12.2,0-18.2c-0.2-14.1-0.2-14.1-14.3-16c-8.3-1.1-15.1-5.1-20.4-11.4c-3.7-4.3-4.7-10.9-2.2-13.9
	c3.3-3.9,7.8-4.7,12.7-4.2c4.9,0.6,8.6,3.3,12.2,6.3c2.8,2.3,5.4,4.9,7.8,7.2c3.2-0.5,3.2-2.7,3.3-4.6c0.5-7.6,0.6-15.3,1.3-22.9
	c0.4-3.7-0.9-5.7-4.2-6.7c-4.5-1.4-8.8-3-12.7-5.7c-4.9-3.3-8.3-7.7-9.2-13.7c-0.5-3.3,0.8-5.2,4.3-5.1c6.4,0.3,12.7,0.6,17.8,5.3
	c1.7,1.5,3.6,2.8,6.1,4.8c3.1-6.8,6.1-12.9,8.7-19.2c1.9-4.6-1.6-7.6-4.4-10.2c-5.3-4.9-9-10.6-11.5-17.3
	c-3.7-9.9,3.2-16.7,11.7-17.8c5.8-0.7,10.3,2.3,11.8,8.1c1.5,6,2.5,12.2,3.9,18.9c3.9-1.6,6.5-4.3,8.6-7c6.1-8,14.1-13,23.1-16.9
	c7-3,7-3.4,3.6-10.3c-1.3-2.7-3.1-5.2-4.3-7.9c-2.6-5.8-1.7-10.6,2.3-13.5c4.5-3.2,11.6-2.7,15.6,1.4c3.1,3.2,5.2,6.9,5.4,11.5
	c0.1,3.3,0.4,6.5,0.7,10.5c7.7-1.8,13.8-5.7,20.3-8.8c2.4-1.2,2.4-3.1,1.2-5c-2.3-3.6-4.7-7.3-7.4-10.7c-3-3.9-4.3-8.2-4.3-13
	c0-8.8,7.6-13.7,15.7-9.9c5.8,2.7,9.1,7.6,10.3,13.9c0.4,2,0.2,4,0.7,5.9c0.7,3.2,2.2,4.8,5.6,2.3
	C671,169.3,677.4,165.1,683.7,158.6z M560,238c1.2-8.7,2.4-16.6-0.6-24.6c-0.7-2-2.1-3.4-4.4-3.4c-6.1,0-10.4,5.5-8.7,11.4
	C548.3,228.4,552.1,234,560,238z M664.8,187.5c-1.3,0-3.3-0.1-5.3,0c-2.4,0.2-3.3,2-3.9,4c-0.6,2-0.7,4.5,1.3,5.4
	c6.3,2.9,12.7,6.3,20,4.7c5.5-1.2,6.6-5.9,2.4-9.5C675.4,188.8,670.7,187.1,664.8,187.5z M570.7,245.3c5.2,4.3,10.3,6.3,16,7.2
	c4.8,0.8,9.2-0.2,13.4-2.6c2.1-1.2,2.7-2.7,0.5-4.6C592.2,238.6,579.4,238.3,570.7,245.3z M539.1,326.8c-2.8-8.2-8.9-12.9-15.9-16.5
	c-2.9-1.5-7-1.3-8.9,1.9c-2,3.3,0.2,6.4,2.8,8.6C523.2,326.1,529.9,329.8,539.1,326.8z M692.6,144c-0.3-7.6-4-12.4-9.8-15.7
	c-4-2.2-6.5-0.9-6.6,3.6c-0.1,5.4,2,10.3,4.7,14.8c1.8,3,4,7.7,7.5,6.8C692.8,152.5,691.5,146.9,692.6,144z M536.8,382.8
	c2.4-0.8,7.1,0.8,6-4c-1.4-6.3-14.1-14.9-20.5-13.2c-4,1.1-5,2.5-3.4,6.3C521.7,378.1,529.6,382.9,536.8,382.8z M718.5,173.8
	c1.1,0.1,4-0.3,6.8-1.5c1.6-0.7,3.1-1.7,3.3-3.4c0.2-1.8-1.4-2.8-2.9-3.7c-6.5-3.6-13.7-4.7-20.9-5c-3.4-0.2-4.5,2.4-2.9,5.5
	C704.8,171.8,710.2,173.8,718.5,173.8z M576.5,357.8c-10.8,5-15.3,12.9-19.3,21c-0.9,1.9-2.4,4.5-0.1,6.3c2.2,1.7,4.6,0.1,6.3-1.3
	C570.7,377.8,575,369.9,576.5,357.8z M534.6,431.3c3,0,7,0.4,8.1-2.5c1.4-3.7-2.6-5.6-5.1-7.6c-3.9-3.2-8.6-3.3-13.3-2.5
	c-2.1,0.4-3.7,1.7-4.1,3.8c-0.5,2.1,0.6,3.9,2.2,5.2C526,430.5,530.2,431.3,534.6,431.3z M559,428c9-2,15.9-5.5,22-10.6
	c2.3-1.9,4.9-4.5,3.2-7.5c-1.8-3.3-5.3-1.6-8-0.6C567.7,412.3,563.1,419.1,559,428z M626.4,216.5c-0.6,0-2.3,0-3.9,0.4
	c-4.6,0.9-5.4,2.9-3.1,7c3.6,6.5,11.5,8.4,18,4.3c2.8-1.8,3.2-3.9,1.4-6.7C636.1,217.5,631.8,216.9,626.4,216.5z M733.8,83.4
	c1.3-7.4,1.1-13.6-3.6-18.7c-1.5-1.7-3.7-2.9-6.2-1.7c-2.1,1-2.3,3.1-2.1,5.2C722.4,75.3,725.5,80.7,733.8,83.4z M650.5,180.8
	c2.9-7.5,2.5-14.3-1.5-20.8c-1.5-2.4-3.9-3.5-6.8-2.4c-2.8,1-2.6,3.4-2.4,5.8C640.4,170.8,645.1,175.7,650.5,180.8z M578,313.9
	c-11.3-0.6-18.8,2.9-24.3,10.9c-1.5,2.2-0.6,4.6,1.8,3.9C563.9,326.4,572.7,324.2,578,313.9z M717.2,123.7
	c0.8-9.4-3.7-15.3-9.5-20.6c-1.5-1.4-3.4-2.4-5.4-1.2c-2.7,1.6-1.7,4.1-0.8,6.2C704.5,115.1,710.6,119.1,717.2,123.7z M727.4,131
	c11.4,4,21.4,0.4,25.4-8.9C743.1,121.8,735,124.3,727.4,131z M612.5,199.3c4.1-7.5,4.2-13.2,0.4-17.1c-1.7-1.7-3.6-3.1-6-1.7
	c-1.9,1.1-2.3,3.2-1.6,5.2C607.1,190.4,608.3,195.6,612.5,199.3z M750.8,86.8c6.4,0.6,11.3-1,15.6-4.3c1.8-1.4,3.9-3.2,2.2-5.7
	c-1.3-1.9-3.7-1.4-5.4-0.4C758.6,78.9,754.3,81.7,750.8,86.8z M577.5,275.7c-7.3,0.5-12.7,2.7-16.5,9.2
	C571.2,286,572.5,285.3,577.5,275.7z M543.3,276.1c-5.9-9.4-7.8-10.5-16-8.8C531.6,272,535.4,276.3,543.3,276.1z"/>
<path class="st0" d="M346.4,651.6c-10.8-13.7-23.7-22.2-37.8-29.2c-4.9-2.4-7.2-1.3-9.7,2.8c-2.2,3.7-4.8,7.2-7.4,10.6
	c-2.1,2.7-4.7,4.7-8.2,5.2c-5.6,0.8-8.8-2.1-8.8-7.7c0.1-7.3,4-12.5,9.2-17c2.5-2.1,5.2-4,8.1-6.2c-9.5-10.2-21.1-16.7-32.4-23.6
	c-3.4-2.1-5.9-1.1-7.3,2.1c-2.8,6.3-8.7,10-12.6,15.3c-1.8,2.5-4.3,4.2-7.4,4.8c-7,1.5-11.6-2.2-12-9.4c-0.5-9.1,4.8-14.9,11.4-19.8
	c2.6-2,5.9-3.1,8.7-6.4c-7.8-9-17.7-15.6-27.4-22.3c-2-1.4-3.7-0.3-5.1,1.4c-2.5,3-5.4,5.7-7.7,9.1c-5.8,8.5-20,9.8-27.5,3.2
	c-6.8-6.1-3.8-18.1,5.6-22c5.4-2.2,11.1-1.8,16.6-1.9c1.4-3.1-0.6-4.7-2.1-6.4c-6.9-8.2-13.5-16.5-19.1-25.6c-2.1-3.4-4.4-4.6-8.2-3
	c-7.2,3-14.8,3.8-22.5,4c-5.2,0.1-9.8-1.6-13.7-5c-6.7-5.8-6-12.3,2.3-15.1c6.5-2.2,13.2-4.7,20.5-3.3c1.9,0.4,3.9,0.9,6.2-0.7
	c-5.5-10.6-9.1-21.9-10.4-34c-0.5-4.5-3.4-5.8-7.9-5.2c-6.6,0.9-13.1,2.2-19.8,0.9c-5.8-1.2-9.6-4.2-12.3-9.2
	c-1.8-3.5-2.5-7.1-0.1-10.4c2.2-3,5.8-3.4,9.1-2.8c5.9,1,11.5,3.2,17.1,5.5c2.1,0.9,3.9,2.8,7.2,1.7c-1.6-11.6-3.1-23.3-4.8-35
	c-0.7-5.1-3.6-6.4-8.6-5.2c-5.5,1.3-11.1,2.2-16.7,2.7c-8.3,0.7-15.8-3.8-18.7-10.6c-2.7-6.2-1.1-11,4.9-14.1
	c11.4-5.9,22-3.5,31.9,3.3c4.1,2.8,7.7,6.4,11.2,9.9c4.7,4.7,7.7,5.1,12.1,0.2c6.7-7.4,8.8-16,5.5-26.4c-7.4,5.1-7.8,12.6-9.6,19.5
	c-0.4,1.7,0.4,4.6-2.7,4c-2.5-0.4-2.6-3-2.1-4.9c1.5-6.5,4.2-12.6,7.9-18.2c1.3-2,2.7-4.2,5.4-3.8c3.1,0.5,5.3,2.6,6.5,5.6
	c3.9,10.1-3.4,27.9-13.2,32.5c-8.1,3.8-8.4,3.8-7,12.3c1,6.5,0.9,13.3,3.5,19.8c4.5-0.1,6-3.9,8.6-6.2c7.4-6.5,9.8-5.4,16.9-1.5
	c4.2,2.2,5.3,10.7,2.8,16.4c-2.6,5.9-7.2,9.2-13.2,11.3c-8,2.8-8,3.3-7.5,11.5c0.5,8.5,6,22.6,12.2,31.1c3.4-2.3,3.5-6.1,4.4-9.5
	c1.2-4.6,2.9-9,6.4-12.2c5-4.6,10.2-3.3,12.4,3.1c1.7,4.9,1.4,9.8-1,14.5c-1.5,3-2.7,6.1-4.6,8.8c-5.9,8.4-4.1,15.9,1.7,23.7
	c3.3,4.5,6,9.4,11.4,13.1c1.8-4,3.2-7.2,4.6-10.5c1.5-3.4,3.6-6.3,6.4-8.8c3-2.5,6-2.2,9.3-0.7c3.1,1.3,5,3.2,4.8,6.8
	c-0.4,7.3-0.7,14.6-4.2,21.4c-3.1,6-3,8.9,2.4,12.3c9.4,5.8,16.9,13.8,26.4,21.4c1.9-8.2,3.8-15.4,5.1-22.7
	c0.9-4.9,3.4-8.6,6.6-12.1c3.1-3.4,5.8-2.3,8.2,0.7c0.6,0.8,1.4,1.6,1.6,2.5c3.5,13,6.9,26.1-2.9,38c-3.2,3.9-1.4,6.3,1.6,8
	c10.1,5.9,19.2,12.9,28.2,20.9c3.6-4.2,3.1-8.6,2.8-12.8c-0.5-6-0.4-12,1.7-17.7c2.5-6.8,6.5-7.7,12.2-3.3
	c10.2,7.9,12.3,21.9,5.5,33.1c-2.3,3.7-8.4,5.9-6.5,11.3c1.5,4.3,6.9,4.9,10.4,7.3c4.7,3.2,9.6,6,14.4,9c0.5,0.3,1.3,0.1,2.3,0.2
	c1.4-6.4,2.2-13,5.7-18.8c2.1-3.5,4.4-7.2,9.2-6.4c4.6,0.8,7.5,3.8,8.6,8.6c2,8.2,3.1,16.3-1.2,24.3c-1.7,3.2-3.2,6.8,0.8,9.7
	c1.1,0.8,2.1,1.7,3.2,2.3c10.7,6.1,19.1,15.4,30.4,21.7c3-4.2,3.3-8.8,4-13.2c0.9-5.7,2.3-11.1,6-15.7c4-5,11.1-4.3,13.9,1.4
	c1.9,3.9,2.5,8.2,1.9,12.6c-1,7.9-2.8,15.7-5.4,23.2c-1.5,4.2-1.4,7.3,1.9,10.7c9.9,10.4,18.8,21.5,24.7,34.8c0.4,0.9,1,1.7,1.6,2.5
	c0.9,1.4,2,2.9,3.9,2.6c1.8-0.3,2.6-2,3.1-3.6c1.8-5.4,3.3-10.8,5.2-16.1c1.7-4.7,4-9.2,7.2-13.1c1.8-2.2,3.9-3.8,6.9-2.9
	c2.7,0.9,4.3,3.1,4.8,5.9c0.7,4,0.6,8-0.8,11.8c-2.2,5.9-4.5,11.8-6.6,17.8c-1.5,4.3-4,8.4-1.5,13.3c1.9,3.8-2,7.3-1.3,11.5
	c1.4,8.2,2,16.5,3,24.7c0.2,1.6,0.9,3.3,0.9,4.9c0,2.7,2,7.1-2,7.6c-4,0.5-3.1-4-3.5-6.8c-1.3-9.2-2.5-18.5-4-27.7
	c-1.2-7.5-4-9.5-11.7-8.3c-5.9,0.9-11.9,1.6-17.9,1.6c-3.8,0-7.2-1-10.6-2.4c-2.8-1.2-4.2-3.2-4.6-6c-0.9-7.3,6.4-16.3,13.7-16.9
	c2.5-0.2,5.2,1.3,8.5-1.1c-5.1-11.6-12.8-21.2-23-28.9c-2.3-1.8-4.4-1-6.3,0.7c-3.7,3.3-7.3,6.8-11,10.1c-2,1.8-4,3.7-6.3,4.8
	c-9.1,4.3-18.1-2-17.4-11.9c0.6-8.1,6.7-16,14.4-18.5c1.6-0.5,3.2-0.8,4.6-1.1c1.1-3.5-1.6-4.3-3.2-5.7
	c-8.4-7.1-17.5-13.3-26.7-19.4c-6.7-4.4-6.9-4.3-10.7,3.5c-2.7,5.6-4.3,11.8-8.4,16.9c-6,7.5-12.1,9.7-18.8,5.9
	c-6.3-3.5-9.4-13.9-6.4-21.2c1.4-3.4,4.2-4.9,7.3-6.4C330.3,652.3,337.7,652.5,346.4,651.6z M111.4,370.3c-8.8,0.2-14.4,3.6-15,8.2
	c-0.5,3.6,4.7,11.8,8.9,11.7c8.4-0.2,17-0.5,24.7-4.5c1.8-0.9,1.9-2.5,0.6-4.1C125.1,375.2,118.3,370.9,111.4,370.3z M416.2,655.8
	c0-1.7,0.1-3.3,0-5c-0.3-2.5-1.4-4.6-4-5c-2.2-0.3-3.8,1.1-4.9,2.9c-1.2,2-2.3,4.1-3.1,6.2c-2.3,7-2,14.4-2.9,21.6
	c-0.3,2.2,0.9,4.5,1.4,6.8c0.3,1.4,1.2,2.5,2.5,2.8c2,0.5,3.1-1,3.6-2.6C411.7,674.4,416,665.6,416.2,655.8z M470.5,709.9
	c-0.1-3.3,0.9-6.6-2-7.8c-3.3-1.4-4.3,1.9-5.8,4c-6.1,9-8.2,19.4-10.3,29.8c-0.1,0.6-0.1,1.3-0.1,2c0.2,2,0.6,4.2,2.8,4.6
	c1.9,0.4,2.7-1.5,3.5-3c1.9-3.9,3.9-7.7,5.6-11.6C466.9,721.9,469.7,715.8,470.5,709.9z M302.5,591.9c0,4.5,0.1,7.1,0,9.7
	c-0.1,2-0.3,4.1,2.1,5c1.6,0.6,3.2-0.1,4.6-1.1c9.6-6.4,9.5-22.6-0.3-28.8c-3-1.9-4.2-0.1-5,2.3
	C302.2,583.8,302.8,588.8,302.5,591.9z M359.4,625c0.2-4.4-0.6-7.1-2.4-9.7c-2.8-3.9-6.2-4.3-8.4-0.1c-4.2,8-4.9,16.5-1.8,25
	c1.4,3.7,5.6,3.9,7.7,0.5C357.7,635.5,358.9,629.7,359.4,625z M391.1,688.4c-6.9-0.1-11.9,4.7-13.1,12.5c-0.4,2.6-0.8,5.3,2,7.1
	c2.5,1.7,5.2,1.4,7.4-0.3c4.2-3.2,8.3-6.5,12.2-10c3.6-3.2,3.3-5.3-1.1-7.1C396.1,689.5,393.7,688.1,391.1,688.4z M320.9,669
	c0.1,3.6,0.9,7.2,4.5,9.1c3.9,2.1,7-0.1,9.6-2.9c1.6-1.7,3.1-3.4,4.4-5.4c1.9-2.9,5.9-5.6,3.3-9.4c-2.7-3.9-7.3-2.3-11-1.4
	c-2.8,0.7-5.3,2.6-7.9,4C321.5,664.3,320.4,666.2,320.9,669z M262.1,539.7c-6.8,8.8-7.3,17.8-8.5,26.4c-0.4,2.8-1.6,7.5,2.5,8.5
	c3.3,0.8,5.5-3,7.8-5.3c0.7-0.6,1.3-1.6,1.4-2.6C266.7,558,267.9,549.3,262.1,539.7z M185,563c6.3,0.2,12.9-4.9,13-10
	c0.1-3.1-5.1-7.1-9.5-7.3c-5.9-0.2-13.6,6-13.6,11C174.9,559.8,179.8,562.9,185,563z M145.5,503.5c5.3-0.1,10.5-0.2,15.5-2.4
	c3.3-1.5,3.6-3.5,0.5-5.6c-4.9-3.3-10.5-4.1-16.2-3.8c-7.2,0.3-14,4.2-12.7,6.9C135.2,503.9,140.5,503.7,145.5,503.5z M226,598.1
	c0,4.6,2.6,6.7,6.1,4.2c6.5-4.7,11.9-10.6,14.9-18.1c0.9-2.1-0.1-3.9-2.8-3.9C236,580,226,589.9,226,598.1z M146.5,438.4
	c9.7,2.3,17.3-0.3,22.5-8.5c2.6-4,2.4-8.8-0.5-10.7c-4.1-2.7-7,0.2-9.5,2.7c-2.3,2.3-4.1,5.2-5.8,8
	C151.3,432.9,149.8,436.2,146.5,438.4z M433.6,748.7c2.5-0.3,7.1,0.6,9.5-3.2c1.7-2.6-3.7-8.7-8.8-10.7c-2.9-1.1-5.8-1.5-8.7-0.4
	c-3.4,1.3-5.5,3.7-5.8,7.4c-0.3,3.9,2.8,4.8,5.7,5.9C427.7,748.5,429.9,749,433.6,748.7z M216.9,520.6c-0.1-1,0-2-0.2-2.9
	c-0.4-1.8,0.2-4.3-2.3-5c-2.2-0.6-4,0.8-5,2.4c-3.6,6.3-7.1,12.7-4.9,20.5c0.9,3.1,2.7,3.6,5,1.6
	C214.6,532.8,216.9,527.2,216.9,520.6z M137.7,440.1c-5.9-5.4-12.3-7.9-18.9-9.9c-1.9-0.6-4.2-0.4-5.4,1.4c-1.2,1.8-0.3,3.9,0.7,5.6
	c1.9,3.4,5.3,4.9,9,5.3C127.6,443,132.3,443.2,137.7,440.1z M297.3,616.8c-13.7,4.4-16.6,7.9-16.1,18.6
	C289.4,632,293,625.3,297.3,616.8z M183,469.3c-6.3,6-9.4,13.1-7.9,21.9C179.1,484.4,185.5,478.6,183,469.3z"/>
<path class="st0" d="M308,380.3c4.6-0.7,8.4-1.3,12-2.9c4.9-2.2,10.1-3.4,15.4-3.9c5.6-0.6,9.4,2.8,8.7,8.1
	c-0.8,6.7-2.7,13.1-9.1,16.9c-6.7,4-13.4,7.5-21.6,4.9c-4.6-1.5-6.8,1-7.7,5.2c-1.4,6.2-2.7,12.4-4.1,18.5c-0.6,2.7-1.2,5.7-4.9,4.7
	c-3.3-0.9-3.3-3.6-2.7-6.5c1.3-6.2,3.9-12,4.3-18.4c0.4-6.6-0.4-8.2-6.6-10.2c-11.8-3.7-16.7-13.4-21.2-23.6c-1.1-2.4-1-5.5,1.3-7.4
	c2.3-2,4.9-1,7.5,0c6.2,2.7,11.2,7.1,16.2,11.4c1.2,1,2,2.7,4.4,2.4c2.5-2.3,2.6-5.7,2.7-8.9c0.3-8,0.6-15.9,0.6-23.9
	c0-6.7-0.6-7.4-7.3-7.8c-8.4-0.5-15.5-3.2-20.8-10c-3.6-4.6-4.2-11.9-1-16.5c2.3-3.3,5.3-3.6,8.7-1.9c6.4,3.1,12,7.1,16.5,12.7
	c3.1,3.8,6.3,7.6,9.9,12c2.7-6,0.4-11.3,1-16.3c1.2-11.4-1.9-19.2-13.1-25c-6.3-3.3-12.6-8.5-17.5-14.5c-3.1-3.8-4.1-7.5-2-11.9
	c2-4,6.8-6.3,11.8-5.4c3.6,0.6,7,1.5,9.5,4.8c2.8,3.6,6.1,6.8,9.1,10.2c3.4-1,2.9-3.7,3.2-5.8c0.6-3.6-0.1-7.7,1.3-10.9
	c4.9-11.2-0.5-16.7-9.8-21.6c-7.6-4-14.6-9.2-18.4-17.7c-3.7-8.2-1.1-13.4,7.9-15.1c9.4-1.7,15.9,3.3,22,9.1c2.1,2,3.3,4.9,5.9,6.4
	c2.2,0.2,2.3-1.6,2.3-2.6c0.5-9.3,2.8-18.4,3.9-27.6c1-8.6,0.9-8.6-7.3-10.7c-7.7-1.9-14.2-5.6-19-12c-1-1.3-2.3-2.6-2.6-4.1
	c-1-4.9-2-10.4,1.9-14.2c3.8-3.6,8.9-2,13.3-0.6c3.1,1,6.1,2.6,8.4,5.1c2,2.1,3.7,4.8,7.7,5.2c2.7-8.6,1.8-17.7,3.6-26.4
	c0.8-3.6-2.1-5.2-5.3-6c-5.9-1.4-11.4-3.7-16.3-7.2c-3.3-2.4-6-5.3-7.7-9c-2.6-5.8-0.3-10.9,5.9-12.3c6.8-1.6,13.3-1,18.4,4.5
	c2.9,3.1,5.6,6.3,9.3,10.6c3.1-11.4,4.4-21.7,4.7-32.1c0.1-3.2-3-4.9-5.7-6.4c-5.3-2.9-9.7-7-14.2-10.9c-4.9-4.2-6.8-9.6-8.1-15.6
	c-1-4.7,0.2-9,4.2-11.3c3.7-2.1,7.6-0.4,11.1,2.1c7.2,5.4,11.8,12.5,14.6,20.9c0.9,2.8,2,5.5,2.9,8.2c3.6,0.3,3.7-2.7,5-4.4
	c5.5-7.8,13.1-13.3,21.1-18c5.3-3.1,10.1-2.3,13.5,1.6c2.9,3.3,2.9,7.8-0.6,12.9c-6.8,10.1-16.3,16.7-28.2,19.1
	c-5.6,1.1-7.9,3.4-8.7,8.8c-0.9,6.2-2.4,12.3-2.4,18.8c3.6,0.8,6.5-1.3,9.5-2.3c5.1-1.7,9.1-0.5,12.8,2.9c6.7,6,6.1,11.8-1.5,16.9
	c-4.9,3.3-10.3,4.1-16,4.6c-10.5,0.8-10.9,1-12.6,11.5c-1.3,8-2.8,16.2-1.1,25c5.6-1.8,10.5-3.7,15.5-5.1c2.8-0.8,5.9-1.4,8.8-1.2
	c5.2,0.4,7.5,4.2,5.7,9.2c-2.1,6.1-6.8,9.8-12.6,11.9c-5,1.8-9.9,3.8-14.7,6.1c-4.4,2-6.8,4.7-7.4,9.5c-0.9,7.3-2,14.5-3,21.7
	c-0.1,0.9,0.6,1.8,0.9,2.8c4.5,0,7.1-3.6,10.8-5.1c5.3-2.2,10.4-4.5,16.3-3.1c9.7,2.2,12.3,10.3,6,18c-2.2,2.7-5.3,4-8.1,5.6
	c-8.1,4.8-16.4,8.9-25.8,10.5c-4.4,0.7-6.9,2.9-7.9,7.6c-1.9,8.6-4.1,17.2-4,27c4.3-1.9,7.8-3.5,11.4-5.2c6-2.9,12.3-2.7,18.6-1.3
	c5.5,1.3,10.4,4.5,11.1,10.2c0.7,5.3-1.7,10.4-6.8,13.6c-8.1,5-17.2,7-26.2,9.2c-8,2-9,2-8.2,10.1c0.6,7-0.7,13.8-0.6,21.1
	c5.3,1.1,8.8-1.9,12.5-3.6c4.3-1.8,8.5-4,13.1-4.7c5.6-0.8,10.7,2.1,12.2,6.5c1.5,4.4-0.2,7.6-6.1,11.1c-5.3,3.1-11.1,4.3-17.3,3.5
	c-3-0.4-5.9-1.2-8.9-1.4c-7.9-0.4-12,3.1-12.7,10.9C309.1,367.7,308.6,373.6,308,380.3z M345.9,280.4c-9.4-2.4-20.9,2.9-26.6,11.4
	c-1.3,2-2.8,3.8-0.8,6.2c1.7,2.1,3.3,4,6.5,3.5c7.6-1.2,15.1-2.4,21.9-6.3c3.2-1.8,6.8-3.7,5.9-8.2
	C352.1,282.9,348.8,281.2,345.9,280.4z M299.2,212.9c-0.6-0.1-1.6-0.4-2.6-0.3c-2.6,0.1-5.5,0-6.9,2.9c-1.1,2.4,0.2,4.4,1.6,6.3
	c5.6,7.2,12.9,12.2,21,16.3c2.7,1.3,5.3,1.4,5-3C316.7,226.4,307.3,214.7,299.2,212.9z M325.3,241c14.7,0.1,24.5-8.3,35-14.6
	c2.8-1.7,1.8-5.5-1.6-6.8c-4.6-1.8-9.5-1-13.3,1.6C338,226.3,329.8,230.9,325.3,241z M337.7,387.6c1.6-7.6,0-9.2-6.3-7.7
	c-4.4,1.1-9,1.8-13.1,4.2c-6,3.5-10.4,8.2-8.6,10.6c3.5,4.7,8.8,3.6,13.6,2.7C330,396.1,335.7,393.1,337.7,387.6z M307,293.9
	c-0.7-6-2.6-9.9-4.7-13.5c-2.3-3.9-5.1-7.7-9-10.3c-3.5-2.4-7.3-2.3-9.8,0.7c-2.6,2.9,0.4,5.5,2.4,7.5
	C291.7,284.1,298.3,288.9,307,293.9z M326,174.9c-1.9-10.5-8.4-15.7-16.2-19.2c-4.4-2-6.9,0.7-6.3,5.4c0.4,2.8,1.8,4.9,4,6.6
	C312.4,171.7,317.9,174.5,326,174.9z M381.7,55.5c0.6-3.3-1.2-4.1-4-3.2c-9.2,3-15.5,9.7-21.2,17c-1.2,1.5-0.3,3.3,1.8,3.4
	C363.6,72.8,380,60.8,381.7,55.5z M337.8,68.5c-1.4-10.3-5.2-17-11.2-22.6c-1.3-1.2-2.7-2.1-4.5-1.4c-2.3,0.9-2.2,2.9-1.9,5
	C321.7,59.2,328.5,63.8,337.8,68.5z M299.6,333.3c-3.9-6.6-8.3-11.5-14.1-14.9c-1.9-1.1-3.9-3.4-6.2-1.4c-2.8,2.3-2,5.5-0.7,8.2
	c1.1,2.4,2.8,4.7,5.4,5.6C288.7,332.1,293.1,334.9,299.6,333.3z M330,121.2c-0.7-7.2-5.3-11.3-9.9-15.3c-1.9-1.6-4.1-1.8-6.5-1.1
	c-3.7,1.1-4.8,3.5-2.3,6.4C316,116.7,321.6,121,330,121.2z M324.3,346.7c7.9,2.3,14.4,1,20.5-2.7c1.4-0.9,2.9-1.8,2.6-3.7
	c-0.5-2.4-2.7-3.1-4.5-2.8C336,338.4,329.8,341,324.3,346.7z M296.4,391.7c-4.1-9.6-8.3-16.5-18.6-18.5
	C280.7,382.5,283.9,390.1,296.4,391.7z M345.8,121.6c6.8,2.4,11.8,1.5,16.6-1.1c2-1.1,4.6-2,3.6-5.1c-1-3-3.3-3.6-6.3-3.3
	C353.8,112.7,350.9,117.3,345.8,121.6z M359.1,168.1c-8.4,0.1-15.7,2.3-20,10C346.4,176.1,354.9,176.3,359.1,168.1z"/>
<path class="st0" d="M565.2,645.5c3.5-1.9,4.7-4.3,6.3-6.3c2.1-2.7,5-4.4,8.3-5.2c4.8-1.1,9.6-0.7,12.8,3.4c3,3.8,2,8.1-0.2,12.2
	c-2.6,4.8-5.9,8.7-10.6,11.6c-9.7,6-9.7,6.2-8.9,18.9c4.2-2,8.2-4.3,12.4-5.6c5.7-1.8,11.1-2.6,17.1,1.3c7.7,5.1,7.2,19.3-1.8,23.2
	c-5.7,2.5-11.4,3.6-17.5,3c-3.6-0.4-5.3,1-6.8,4.2c-3.3,7.1-4.7,14.5-5.1,22.2c-0.1,2.2,1,5.1-2.6,5.3c-4.1,0.2-5.1-2.7-4.8-6
	c0.6-6.3,1.1-12.6,3.3-18.6c0.7-1.9,1.9-3.5,0.9-6.3c-2.6-1.4-5.4,0.4-8,1c-10,2.3-18.4-0.8-26.1-6.8c-3.3-2.5-5.9-5.6-4.2-10.2
	c1.7-4.5,6.2-7.3,11.2-6.7c4.3,0.5,8.3,2,11.6,5.3c2.5,2.5,5,6.8,8.7,5.3c4-1.7,3.4-6.8,3.6-10.7c0.8-11.6-0.7-13.1-12.4-13.1
	c-3.3,0-6.7,0-10-0.4c-5.8-0.7-9.7-4.3-12-9.4c-1.7-3.9-1.5-7.7,2.1-10.8c3.4-3,6.9-3.6,11-1.5c4.4,2.2,7.7,6.3,12.8,8
	c1.6-5.6,0.3-10.9,0.4-16.1c0.1-4.6-1-9.2,0.8-13.8c1.4-3.4-0.4-4.8-4.1-4.4c-5.6,0.6-11.2,1.6-16.9,0.4c-11-2.4-13.2-7-8-16.7
	c0.5-0.9,0.9-1.8,1.4-2.6c5-8,7.1-8.4,14.7-3c1.8,1.3,3.3,3.4,6.8,2.6c0.2-6-0.6-12.2,0.2-18.3c0.4-3-2-4.6-4.5-2.5
	c-8.9,7.4-19.3,6.3-29.5,5.5c-8.7-0.7-15.2-6-15.2-11.8c-0.1-6,5.7-11.2,14.4-13.1c6.4-1.4,12.5-0.9,18.5,1.8
	c1.7,0.8,4.1,1.8,5.4-0.4c0.7-1.2,0.4-3.4-0.2-4.8c-3.3-7.6-7.6-14.7-13.3-20.9c-2.7-3-5-2.5-7.7-0.3c-3,2.6-6.1,5.2-9.2,7.7
	c-4,3.3-8.8,4.8-13.8,5.2c-5.5,0.5-11-2.3-11.8-5.6c-1-3.8,2.9-11.2,7.3-13.1c4.6-2,9.4-3.3,14.4-3.5c1.2,0,2.3-0.1,5.2-0.2
	c-9.4-6.7-17.1-12.3-24.8-17.9c-2-1.4-3.6-0.8-5.2,0.9c-3,3.1-6,6.2-9.3,9.1c-5.8,5.3-12.5,7.3-20.3,5.1c-4.5-1.3-7.8-3.8-8.7-8.6
	c-0.8-4.5,0.3-8.1,3.8-11.6c6.4-6.4,13.8-6,21.3-4.1c5.7,1.4,11.3,2.9,15.6-2.4c5.1-6.3,8.9-13.4,8.7-21.8c-0.1-4.2-3.1-6.4-7.4-6.7
	c-4.5-0.3-7.8,2-8.2,6.8c-0.4,5.3,0,10.6,0,16c0,7.1-1.9,8.6-8.1,5.5c-8.6-4.3-16.2-10.6-25.2-14.2c-1.2-0.5-2.5-1-3.6-1.8
	c-4.5-3.2-7.9-1.6-11.2,2.1c-2.2,2.5-4.5,4.9-7,7c-3.4,2.9-7.5,4.2-12.1,3.6c-5.8-0.8-6.8-2.8-6.1-8.8c1.2-9.4,8.1-13.3,15.5-16.4
	c3.6-1.5,4.8-2.8,2.9-6.5c-1.7-3.2-3-6.7-4.2-10.1c-3.1-8.6,2.1-15.5,11.2-15c8.4,0.5,15.2,5.5,17.7,13.6c2.3,7.6,4.7,15.4,0.8,23.3
	c-1.3,2.6-0.2,4.4,2.2,5.7c6,3.3,12,6.8,18,10.2c3.7-4.9,2-10.8,4.1-15.6c2.7-6.2,5.7-8.2,12.1-8.4c6.5-0.2,10.8,2.5,13.3,8.5
	c1.1,2.6,1.4,5.2,0.5,7.8c-1.1,2.8-2.2,5.6-3.6,8.2c-7,13.5-7,13.5,5.7,21.5c2.5,1.6,5.2,2.8,8.9,4.8c-0.4-7.4,0.8-13.6,7.6-16.8
	c3.6-1.7,7.5-3.9,11.2-0.7c3.4,3,4.6,7.2,3.8,11.8c-0.2,1-0.5,2-1,2.8c-5.5,8.5-2.5,15.5,3.9,22c4.6,4.7,6.8,11.2,11.5,15.7
	c3.3-1.5,3.2-4.5,4.4-6.8c0.9-1.8,1.4-3.8,2.5-5.5c3.4-5.5,12.2-8.9,17.2-7c6.2,2.4,8.5,8.2,6.2,16.8c-2.3,8.8-5.8,17.3-11.9,23.9
	c-5.2,5.6-4.6,12.2-5.8,18.5c-0.4,2.2,1.2,3.9,3.8,2.4c3.5-2,6.9-4,10.5-5.7c7-3.3,13.7-2.4,20.3,0.5c7.6,3.3,8.4,9.4,2,14.6
	c-4.4,3.6-9.4,6.6-15,7.7c-9.3,1.8-12.9,8.4-15.1,16.5C563.6,631.8,563.3,638.3,565.2,645.5z M442.8,470.6c1.4-11.3,1-20.4-5.1-28.7
	c-0.9-1.3-2.5-2.2-4-2.9c-2.7-1.3-5.8-2.6-8.4-0.2c-2.3,2.1-3.2,5.1-2.2,8.2C426.1,457,432.4,464.2,442.8,470.6z M583.6,680.6
	c-3.6,2.8-8.2,5.2-7,10.9c0.9,4.2,5.5,6.2,12.4,5.8c1.6-0.1,3.3-0.4,4.9-0.8c6.3-1.6,10.1-6.3,9.2-11.1c-1-5.2-5.8-8.2-12.2-7.8
	C588,677.9,585.8,679,583.6,680.6z M570.3,536.3c-2.6-3.7-7.4-3.1-10.4,1.9c-4.2,7.2-6.5,15.2-6.9,23.5c-0.1,2-1.1,5.1,2.3,5.6
	c2.5,0.4,5.4,0.4,6.8-2.6c2.9-6.3,5.9-12.5,8.6-18.9C571.9,542.7,572.4,539.4,570.3,536.3z M541.2,575.4c0.6-1.8,5.6-3.3,1.6-5.7
	c-8.4-5-17.6-8-27.6-5.2c-3.3,0.9-4.8,3.5-5.1,6.6c-0.3,3.2,2.3,5.1,4.6,5.8C523.5,579.8,532.3,580.1,541.2,575.4z M585.4,600.6
	c1.4-0.9,2.8-1.8,4.1-2.8c1.6-1.2,3.3-2.5,2.8-4.8c-0.5-2.2-2.4-3-4.4-3.5c-8.7-2.3-19.6,3-23,11.2c-1.9,4.7-0.9,6.3,3.9,5.9
	C574.9,606.2,580.4,604,585.4,600.6z M466.8,516.2c2.7-2.8,5-5.2,7.2-7.6c1.6-1.8,1.7-3.7-0.9-4.7c-4.3-1.7-8.8-3-13.5-3
	c-4.6,0-7.1,2.9-9,6.6c-1.5,3-1.2,6.1,1,8.3c2.7,2.7,6.2,3.6,10.1,2.1C463.5,517.2,465.4,516.7,466.8,516.2z M418.7,484.8
	c3.4-3,7.2-6.2,10.6-9.7c1.6-1.6,1.4-3.6-1.1-4.6c-7.2-3-18.8,5-18.4,12.8c0.1,3.2,1.5,5.1,5.1,3.5
	C416,486.2,417.2,485.6,418.7,484.8z M577.1,656.7c3.6-2.7,6.7-6,8.7-10.3c1-2.2,1.7-4.6-0.6-6.2c-2.1-1.5-4.7-0.8-6.4,0.8
	c-3.4,3.1-5.9,7.1-8,11.2c-0.9,1.7-1.8,4-0.1,5.5C572.8,659.6,575,658.1,577.1,656.7z M512.3,531.5c-6.6-3-12.2-1.8-17.5,1
	c-2.4,1.3-3.6,4.1-2.6,6.9c1.1,3.2,4.1,3.2,6.7,2.4C504.2,540,508.9,537.1,512.3,531.5z M552.2,611.6c-2.3-4.6-6.7-6.7-9.9-9.7
	c-1.5-1.5-3.6-1.4-5,0.7c-1.4,2.2-3.6,4.4-2.7,7c0.8,2.3,3.6,2.7,5.9,2.9C544.2,613.1,548.1,613.9,552.2,611.6z M554.8,698.6
	c-1.6-5.8-5.4-8.4-8.9-11c-2.7-2-6.3-1.1-7.9,1.4c-1.7,2.7,0.9,5,3.3,6.2C545,697.2,549.1,698.5,554.8,698.6z M524.6,501.4
	c-0.5-1.1-2-1-3.7-0.2c-4.4,2.2-6,10-2.9,13.9c1,1.2,2.3,1.5,3.5,0.8C524.8,514.1,526.9,505.7,524.6,501.4z M549.2,656.7
	c-1.6-3.2-5-4-7.6-5.8c-1.1-0.7-2.5-0.3-3.6,0.7c-1.3,1.1-0.9,2.3-0.4,3.5c1.7,4.1,5.1,5.7,9.3,6c0.9,0.1,2-0.3,2.6-0.9
	C550.6,659.1,549.7,657.9,549.2,656.7z"/>
<path class="st0" d="M704.6,404.1c0-9.7-0.1-18.6,0.1-27.5c0.1-4.4-1.6-6.8-6-7.6c-3.6-0.6-7.2-1.5-10.6-2.8
	c-10.8-3.8-16.3-12.6-15.4-24.1c0.6-8.1,6.6-11.4,14.1-7.8c2.5,1.2,4.3,3,6.1,5c3,3.5,6.3,6.8,9.9,10.7c3.3-2.3,5-5.4,7.1-8.3
	c3.3-4.6,6.5-9.3,10.3-13.5c4.7-5.1,9.4-3.8,12,2.8c1.4,3.6,1.5,7.6-0.1,10.7c-3.9,7.6-7.7,15.4-15.8,19.7c-2.7,1.5-4.8,2.8-5.2,6.5
	c-0.9,10.9-1.7,21.8-0.6,33.3c5-1.3,7.1-5.4,10.5-7.7c7.3-5,11.8-5.5,15.1-1.7c3.4,4,3,12.7-1.3,17.5c-2.4,2.7-5,5.3-8.6,6.7
	c-3.1,1.1-6,2.8-9,4.2c-3.6,1.7-6.1,4.7-6.3,8.4c-0.6,9.8-1.8,19.6,0.4,29.9c4.5-1.3,6-5.1,8.9-7.1c6.6-4.9,14.4-5.9,18.2-2.1
	c3.3,3.2,3.1,11.7-0.5,17.8c-3.1,5.4-7.5,9.6-13.5,11.1c-7.5,1.8-10.3,7.2-11.1,13.7c-1.2,10.1-2,20.2-0.1,31.6
	c4.9-5.5,8.7-10.4,13.1-14.7c4.4-4.3,9.5-7.1,16.2-4.8c4,1.4,5.8,3.8,6.1,8c0.8,10.4-4.1,17.8-11.8,24c-4,3.2-8.5,5.1-13.2,6.8
	c-5.5,2-8.7,5.8-8.3,12c0.6,8.9,1.1,17.8,1.7,29c6.5-7.6,12.3-13.1,18.7-18.1c3.9-3.1,7.9-6,12.4-3c4.2,2.8,6.8,7.8,6.2,12.9
	c-1,8.5-4.6,15.9-13,20c-5.1,2.5-10,5.4-15.2,7.6c-3.2,1.4-5,3.5-5.2,6.6c-0.8,11.9,0.1,23.8,1.4,36.9c7.3-4.9,11.5-10.9,16.5-16
	c3.4-3.3,6.8-6.4,11.3-7.9c7.7-2.5,13.2,2.5,11.6,10.4c-1.8,9.1-7,15.6-15.1,19.8c-5.9,3.1-11,7.2-16.1,11.6
	c-4.6,3.9-6.4,8.6-6.2,14c0.4,10.9-1,22,1.5,32.8c0.4,1.8,0.4,3.4-1.6,4c-2.1,0.6-4.2,0.1-5-2.1c-0.6-1.8-0.5-3.9-0.6-5.9
	c-0.3-12.3-0.7-24.6-0.7-36.9c0-5.1-0.9-8.3-7-8.2c-5.4,0.1-10.4-2.1-15.3-4.3c-10.6-4.8-13.8-19.2-6.2-27.8
	c1.5-1.7,3.3-2.2,5.4-1.8c4.2,0.8,8.7,0.6,12.3,3.6c1.9,1.5,4,2.4,6.9,1.4c1.8-9.8-1.5-19.5-1.8-29.4c-0.1-3.1-3.2-4-6-4.3
	c-5.4-0.7-10.5-2.3-15.1-5c-8-4.6-13.1-11.2-13.1-20.9c0-7,2.2-8.8,9.2-7.5c5.8,1.1,10.2,4.8,14.5,8.4c2.2,1.9,3.8,4.6,7.3,4.9
	c2.2-1.8,1.2-4.2,1-6.3c-0.4-3.6-0.9-7.3-1.3-10.9c-0.5-5.6,0.8-12.2-1.8-16.6c-2.4-4.1-9.8-2.4-14.6-4.4
	c-7.5-3.2-16.1-5.2-18.6-14.9c-1.3-4.8-1.4-9.5,2.2-13.1c3.2-3.2,7.5-1.9,11.4-0.8c6.5,1.7,11.1,6.9,18.4,9.2c0.3-11,0.6-21.5,1-32
	c0.2-4.8-3.2-6.1-6.9-7.1c-9.2-2.5-17.4-6.5-23.8-13.9c-2.2-2.6-4.1-5.3-4.8-8.6c-2-9,4.5-15.2,13.3-12.4c4.5,1.4,8.5,3.8,11.9,7.1
	c2.1,2,3.8,4.6,7.8,4.9c0-10.5-0.1-20.7,0-30.9c0-4-2.3-5-5.6-5.4c-8.8-1-15.5-5.8-21.2-12.1c-1.5-1.7-2.8-3.7-3.9-5.8
	c-2.9-6.1-2.4-10.1,1.7-13.5c4-3.4,9.9-3.8,14.8-1c3.2,1.8,5.8,4.4,8.1,7.3C699.8,400.5,700.3,403.1,704.6,404.1z M715.2,536.7
	c0.6,0.7,1.1,1.4,1.7,2c5.4-2.3,11.1-4,16-7.1c5.2-3.4,9.7-7.9,10.9-14.6c0.5-2.6,1.4-5.4-1.1-7.3c-2.4-1.9-5.2-0.9-7.4,0.5
	C725.3,516.7,718.9,525.7,715.2,536.7z M748.9,572.2c-0.1-3.3-2.9-5.3-7.6-2.7c-9.6,5.3-15.5,14.1-20.8,23.3
	c-0.9,1.5-0.5,3.3,0.8,4.6c1.1,1.1,2.5,0.6,3.7,0c5.6-2.8,11.4-5.4,16.7-8.7C746.7,585.5,749.1,580.4,748.9,572.2z M711.6,658.1
	c3.8,0.1,5.5-1.3,5.1-5.4c-0.9-8.9-10.3-18-18.9-17.8c-1.4,0-2.5,0.5-3.5,1.6c-3.8,4.4-3.7,11.6,0.8,15.2
	C699.9,655.4,705.4,657.8,711.6,658.1z M701.5,365.4c-2.5-10.8-6.4-18.3-12.4-24.6c-2.3-2.4-5.1-3.2-8-1.3c-2.5,1.7-5,4.2-4.1,7.3
	c1.5,5.3,2.9,11.1,9.1,13.3C690.5,361.7,695.1,363.2,701.5,365.4z M729.7,656.9c0.6-0.2,1.3-0.3,1.9-0.6c6.1-3.9,12.3-7.8,18.4-11.9
	c2.8-1.9,4.8-4.6,6-7.8c1-2.5,2-5.3-0.4-7.4c-2-1.7-4.6-0.7-6.5,0.5c-9.1,5.8-15.4,14.4-21.2,23.3
	C727,654.4,727.7,656.3,729.7,656.9z M705.3,359.8c13.8-3.9,20.3-12.1,24.3-22.9c0.7-1.9,0.4-4-0.4-5.8c-1.2-2.8-3.1-3.6-5.3-1.2
	C716.4,338.2,709.6,347,705.3,359.8z M702.8,474.5c-0.6-7.3-12.2-19.7-19.5-20.5c-1-0.1-2-0.1-2.9,0.2c-3.2,0.7-4.7,2.6-3.1,5.8
	c4.5,9,12.5,14.2,21.4,18.1C701,479.1,703.2,477.9,702.8,474.5z M685.5,396c-5.9,0-9.3,3.5-7,7.7c4.1,7.6,10.1,13,19.1,14.4
	c3.8,0.6,5.1-1.1,3.7-4.5c-2.4-5.9-6.1-10.9-10.4-15.7C689.3,396.3,687.5,396,685.5,396z M711.9,474.8c0.6,0.6,1.2,1.1,1.8,1.7
	c3.4-1.1,6.9-2.1,10.2-3.5c6.2-2.6,9.8-7.7,11.9-13.9c0.7-2.2,0.8-4.8-1.3-6.4c-1.8-1.4-3.8-0.5-5.6,0.5
	C720.1,458.1,715.5,466.1,711.9,474.8z M706.8,538c-3.8-9.6-10.4-14.5-18.4-18c-2.3-1-5-3.2-7.2-0.8c-2.4,2.7-1.6,6.2,0.4,9.1
	c1.1,1.6,2.5,3.2,4.2,4.1C692,535.5,698.1,538.6,706.8,538z M710.1,593.5c-4.5-9.6-12.2-15-21-19c-2.9-1.3-4.1,0.9-3.4,3.9
	c1.1,4.9,4.1,8.5,8.2,10.9C698.5,592.1,703.1,596.2,710.1,593.5z M732.6,395.5c-9.2,2.2-15.1,7.9-18.8,18.2
	C725.3,413.3,733.2,405.7,732.6,395.5z"/>
<path class="st0" d="M58.5,63.1c-5.2-6.8-12.3-10.9-17.9-16.5c-1.9-1.9-4.2-1.9-6.2,0c-1.9,1.8-3.7,3.8-5.6,5.7
	c-2.6,2.6-5.5,4.8-9.2,5.8c-5.5,1.5-13.2-1.7-15.6-6.4C2,47.3,3.8,42.2,9.3,38c4.6-3.5,10-5.6,15.8-4.2c4.9,1.2,6.7-0.7,7.7-5
	c1.4-5.9,4.1-11.3,7.3-16.3c1.6-2.5,3.5-4.9,5.7-6.9c2.4-2.1,5-5,8.7-2.6c3.4,2.2,4.5,5.6,4,9.6c-0.9,6.9-5,12.3-8.8,17.7
	c-7.2,10.1-7.5,10,1.5,19.1c3.2,3.2,6.2,6.9,10.6,9c2.5-3,2-6.5,3-9.5c1.9-6.1,5.5-10.7,11.3-13.3c6.2-2.7,11.5,1.1,11.3,7.9
	c-0.1,6.1-3.9,10.5-7.6,14.7c-8.9,10-9,10-1.2,20.7c3.5,4.8,7.2,9.5,10.8,14.1c3.9-1.4,3.9-4.9,4.6-7.5c2-6.9,6.5-11.5,12.3-15.1
	c6.1-3.7,11.1-1.6,12.3,5.5c0.8,4.9,0.8,10-1.4,14.7c-2.7,5.7-4.8,11.7-9.3,16.4c-2.7,2.8-3.6,5.9-1.7,9.9
	c3.4,7.1,4.5,15.1,8.7,22.5c3.8-1.7,4.8-5,6.5-7.7c2.7-4.2,5.5-8.3,10.2-10.6c6.3-3,12.3-2.6,15.7,1.3c3.3,3.9,2.8,9.9-1.4,15.6
	c-4.3,5.7-9.9,10.1-15.9,13.5c-6.3,3.5-7.8,8.1-7.4,14.7c0.5,9.3,0.3,18.6,0.5,27.9c0,1.9,0.1,3.9,1.8,5.8c3.8-1.8,4.8-5.7,7-8.3
	c2.9-3.4,5.8-6.6,10.1-7.9c4.1-1.3,8.7-2.3,12,1.7c3.4,3.9,3.5,8.6,1.2,13.1c-2.9,5.8-7.7,10.3-13.1,13.5
	c-8.6,5.1-13.6,12.2-16.9,21.3c-3.5,9.7-9,18.4-15.3,27.3c5.3,0.9,9.2-1.5,13.4-2.1c2.9-0.4,5.8-1.4,8.7-2c4.6-0.9,9.5-1.9,12.6,3
	c2.2,3.5,0.1,10.2-4,14.5c-9.9,10.2-30.3,13.4-43.2,6.5c-2.4-1.3-3.7-1-5.1,0.6c-4.5,5.2-8.9,10.5-13.4,15.8c5,0,10.8,0.3,16.6-0.1
	c8-0.5,14.5,5.5,14.9,9.4c0.5,4.9-5.9,11.3-12.8,13.5c-5.6,1.8-11.4,2.6-16.7,0.4c-9.2-3.8-15.9-0.7-21.9,6c-2.7,3-5.4,5.9-8.2,8.7
	c-1.3,1.4-2.9,1.5-4.4,0.2c-1.5-1.3-1.8-3-0.7-4.4c2.3-2.8,4.9-5.5,7.4-8.2c5.5-5.9,5.7-6.6-0.7-11.5c-4.6-3.5-8.4-7.5-11.6-12.2
	c-1.7-2.6-2.6-5.3-2.9-8.3c-0.5-5,0.2-9.3,5.3-11.7c5.3-2.5,10.8-1.6,14.8,2.1c4.6,4.3,5.5,10.4,8.7,17.1
	c8.2-8.2,15.8-15.8,23.3-23.6c2.5-2.6,1.5-4.6-1.7-6c-5.2-2.3-10.3-4.8-15.3-7.4c-5.3-2.7-7.4-7.6-7.3-13.2c0.1-5.7,4.5-11.5,9.5-13
	c4.5-1.4,10.3,0.8,13.7,6c2.9,4.4,5.8,9,6.5,14.4c0.3,2.7,0.7,5.3,3.1,8.2c10-6.8,15.7-16.7,20.3-27.4c0.4-0.9,0.5-1.9,0.7-2.9
	c2.8-10,2.8-9.9-7.7-10.6c-6-0.4-11.9-1.5-17.6-3.3c-2.9-0.9-5.6-2.2-7.8-4.2c-3.4-3.1-5.2-7-3.7-11.6c1.5-4.4,5.3-5.6,9.5-6
	c7.7-0.8,14.3,2.4,20.7,6.1c1.9,1.1,3.8,3.4,6.2,1.8c2.8-1.8,1.6-4.6,1.2-7.3c-1.2-9.2-2.3-18.5-3.2-27.7c-0.5-4.7-2.4-6.4-7.2-5.2
	c-4.8,1.2-9.7,2.1-14.8,1.7c-3.7-0.3-7.2-1-10.6-2.6c-5-2.3-6.7-6.6-6.4-11.4c0.2-4.8,3.6-7.8,7.9-9.3c5.2-1.8,10.5-1.5,15.7,0.2
	c2.7,0.9,5.1,3.3,9.3,2.1c-0.6-9-4.8-16.8-8.8-24.7c-1-2-3.1-3.6-4.1-5.6c-1.8-3.5-3.7-3.8-7.1-1.8c-4.9,2.8-10.1,5-15.7,6.2
	c-3,0.7-5.9,0.9-8.9,0.1c-3.4-0.9-6.3-2-7.4-5.8c-1.2-4.3-0.4-8.1,2.9-10.9c4.6-3.9,9.8-6.8,16-7.3c1.9-0.2,4,0.5,5.5-1.4
	c0.3-3-2-4.9-3.6-6.8c-4.1-4.8-6.7-12.9-12.4-13.6c-5.8-0.7-7.8,8-11.7,12.3c-4,4.4-8.4,7.9-14.7,6.6c-3.7-0.8-7-2.9-7.3-7.2
	c-0.3-6.5,2.8-11.5,7.9-15.2c2.4-1.8,5.1-3.2,8.2-3.3C53,67.1,55.8,66.2,58.5,63.1z M65.7,310.4c8.2,3.6,15.8,5.8,23.8,6.1
	c4.4,0.2,8.6-1.1,12.2-3.8c4.6-3.5,4.2-7.2-1.1-9.8C90.5,298,76.1,300.8,65.7,310.4z M113.3,279.1c9.7,0.2,16.8-2.4,23-7.2
	c2.6-2,5.2-5.2,4-8.5c-1.5-4.1-5.8-2.6-8.7-1.9c-7.7,1.9-15.3,4.3-23,6.5c-2.7,0.8-6.8,0.2-6.5,4.5c0.2,3.9,3.6,5.3,7,6
	C111,278.9,113,279,113.3,279.1z M101.9,105.4c5.3-4.5,8.6-9.5,11.6-14.6c2.3-4.1,3.7-8.5,2.5-13.4c-1.1-4.6-3.4-5.8-7-3.3
	c-3.5,2.5-6.9,5.3-9.2,9.1c-2.9,4.9-3.8,10.7-4.4,16.2C95.2,101.8,99,103.6,101.9,105.4z M118,152c12-4.9,20.2-10.8,26.7-19.1
	c1.6-2.1,3-4.6,0.8-7.2c-2.2-2.7-4.9-3.2-8-1.7c-2.4,1.1-4.7,2.3-6.7,4.1C124.1,134,121.6,142,118,152z M126.2,215.4
	c6.3-2.4,10.7-5,14.7-8.3c3.8-3.1,8.2-5.7,10.7-10.2c1.4-2.5,1.9-5-0.2-7.3c-2-2.2-4.4-2.9-7.1-1.4c-1.7,0.9-3.8,1.6-5.1,3
	C133.1,197.7,129.8,205.8,126.2,215.4z M100.7,162.8c3.8,0.1,6.6-0.9,9.4-2c2.4-0.9,2.7-2.5,1.4-4.7c-3.7-6.1-16.5-10.6-23-8.1
	c-2.3,0.9-4.4,2-5,4.5c-0.6,3,1.3,5.1,3.5,6.6C91.4,162.2,96.5,162.2,100.7,162.8z M118.1,216.6c-6.3-8.2-13.4-14.7-24.5-14.3
	c-2,0.1-4.2,0.5-5.1,2.5c-1,2.4,0.3,4.6,2,6.2c1.4,1.4,3.2,2.6,5,3.2C102.6,216.9,110,218.1,118.1,216.6z M78,100.3
	c-5,0.6-9.1,3.3-12.3,7.2c-2.8,3.3-2.1,6.1,2,7.5c6.1,2.1,11.7-0.2,16.9-3.2c2-1.2,4.1-2.6,4-5.2c-0.1-2.6-2.5-3.7-4.6-4.6
	C82.2,101.2,80.2,100.9,78,100.3z M60.4,301.4c-1.1-6-2-12-7.1-16.1c-1.9-1.5-3.9-2.5-6.4-1.1c-2.3,1.3-3.4,3.6-2.8,5.9
	c1.6,5.8,3.7,11.5,9,15.1c1.6,1.1,3.2,2.8,5.3,1.5C60.2,305.5,60.1,303.2,60.4,301.4z M37.9,34.2c5.5-3.5,9.3-8.3,13.1-13.2
	c2.1-2.6,3.3-5.7,3.9-9c0.3-1.6,0.4-3.5-1.2-4.5c-1.6-0.9-3.2,0-4.5,1.1C41.7,15.3,38.1,23.9,37.9,34.2z M89.3,257.4
	c-1.5-4.8-1.6-10.7-6.4-14.6c-4.4-3.5-8-2.6-9.8,2.7c-1.2,3.7-0.9,7.1,2.4,9.8c2.9,2.3,5.9,4.2,9.3,5.5
	C87.3,261.7,89.4,261.3,89.3,257.4z M30.9,41.5c-7.7-4.6-13.9-2.4-19.5,2.4c-4,3.4-3.3,7.2,1.6,8.9c3.2,1.1,6.3,1,9.3-1.1
	C25.9,49,29.1,46.3,30.9,41.5z M60.3,71c-7.9,0.4-14,2.1-18.7,7.4c-2.1,2.3-3.8,5-1.6,7.9c2,2.5,4.9,1.3,7.3,0.1
	C53.5,83.4,57.7,78.6,60.3,71z M69.6,61c5.5-3.6,9.6-8.2,12.9-13.5c1-1.6,1.4-3.8,1.4-5.7c0-2.4-1.4-3.6-3.9-2.8
	C71.8,41.7,67.1,51.2,69.6,61z"/>
<path class="st0" d="M79.2,688.2c5.2-2.8,9.8-5.2,14.4-7.7c3.5-1.9,7.3-3.1,11-4.6c8.8-3.5,15.1,2.5,13,12
	c-1.8,8.4-7.8,13.8-14.5,18.3c-4.7,3.1-9.9,5.4-15.6,6.2c-4.9,0.7-7.2,3.2-7.7,8.6c-1.1,12.9-8.1,23-17.2,31.7
	c-1.9,1.8-3.8,3.8-7.6,4.3c0.8-5.7,4.4-9.6,6.9-13.9c3.7-6.4,7.1-12.7,8.6-20.1c1.8-9.3,1-11.7-7.4-15.9
	c-7.4-3.6-13.2-8.9-17.5-15.8c-2.3-3.6-1.3-5.3,3.1-5.6c4.8-0.3,9.2,1.1,13.3,3.5c2.5,1.5,4.8,3.2,8.5,5.7
	c0.6-10.4-0.2-19.4-2.3-28.3c-1.3-5.3-6-5.5-10.4-6c-10.3-1-17-6.8-21.3-15.8c-2.7-5.5-0.2-9.8,5.9-10.7c7.5-1.1,13.6,2.1,19.2,7.8
	c1.3-4.6-0.8-7.8-1-11.3c-0.3-5.3-3.1-9.1-7.9-11.9c-7.2-4.1-14.3-8.4-20.2-14.5c-2.3-2.4-4.6-4.8-5.7-8.1c-1.7-5,0.3-7.9,5.5-7.7
	c6.2,0.2,11.7,2.5,16.3,6.7c3.9,3.5,7.5,7.3,11.5,11.2c3.5-4.8,7.1-9.1,10-13.9c5.5-8.7,14.2-9.1,22.9-9.1c4.1,0,5.8,4.1,3.6,8.2
	c-2.4,4.4-5.8,8.1-9.7,11.3c-5.6,4.7-11.2,9.4-17,13.9c-2.3,1.8-4,3.5-3.1,6.6c1.7,5.7,1.7,11.8,4.7,17.9
	c5.8-4.3,10.6-9.3,16.6-12.6c2.3-1.3,4.5-2.8,7.4-2.3c6.7,1,9.6,6.4,6.5,12.4c-3.6,7-10.1,11.4-15.9,16.3c-1.8,1.5-3.7,2.8-5.8,3.9
	c-4.4,2.5-5.5,5.8-4.1,10.8C77.8,675.7,78.2,681.7,79.2,688.2z M111.7,678.4c-2.9-0.6-5.4,0.1-7.8,1.2C93,684.3,83.5,690.2,77.1,701
	c-2.4,4.1-1,5.1,1.6,6.6c2.8,1.6,5.8,0.8,8.7,0c9-2.6,16-8.1,21.8-15.1C112.7,688.4,113.6,683.6,111.7,678.4z M93.1,587.3
	c-13.3-1.6-25.9,10.2-29.2,28.4C74.1,605.2,86.8,600.1,93.1,587.3z M74.2,656.3c9-5.2,16.2-12.3,22.9-20c1.3-1.5,2.1-3.6,0.4-5.4
	c-1.4-1.4-3.2-0.5-4.6,0.3c-7.3,4.3-13.5,9.7-17.7,17.2C74,650.6,72,652.9,74.2,656.3z M62.4,655.1c0-0.3,0.1-0.7,0-1
	c-3.8-6.2-7.2-12.7-14.8-15.1c-1.3-0.4-2.5-0.7-3.6,0.5c-1,1.2-0.8,2.4-0.4,3.7c1.6,5.5,10.5,13.2,15.9,13.7
	C61,657.1,62.3,656.9,62.4,655.1z M56.1,613.5c-6.2-11-13-17.8-23.3-20.5C37.3,602.3,45.4,607.6,56.1,613.5z"/>
</svg>
