<?xml version="1.0" encoding="utf-8"?>
<!-- Generator: Adobe Illustrator 22.1.0, SVG Export Plug-In . SVG Version: 6.00 Build 0)  -->
<svg version="1.1" id="Layer_1" xmlns="http://www.w3.org/2000/svg" xmlns:xlink="http://www.w3.org/1999/xlink" x="0px" y="0px"
	 viewBox="0 0 800 800" style="enable-background:new 0 0 800 800;" xml:space="preserve">
<style type="text/css">
	.st0{fill:#6B6B83;}
</style>
<path class="st0" d="M647.1,159.6c-7-6.1-11.5-12.9-12.7-21.5c-0.1-1-0.7-1.9-0.7-2.9c-0.1-4.6-0.7-10,3.5-12.7
	c3.5-2.3,7.5,0.4,11.1,2.3c8,4.3,14.3,9.8,13.7,20c-0.1,1.5,0.9,3.1,1.5,5.2c8-2.9,11.1-9.8,14.8-15.8c1.5-2.5-0.8-4.2-2.6-5.7
	c-5.2-4.2-10.4-8.4-14.5-13.7c-5.1-6.6-5.8-13.7-2-17.2c3.9-3.4,9.2-2.2,16.3,2.8c4.7,3.3,7,8.5,11.6,14c2.1-7.3,3.8-13.3,7.4-18.4
	c2.2-3.2,1-5.5-2.1-7.4c-6.5-4-11.1-9.5-12.8-17.1c-0.9-4.2-2.3-8.7,1.6-12.1c2.7-2.4,10.1-1.5,14.2,1.2c4.5,2.9,6.8,7.3,7.6,12.4
	c0.7,4.2,1,8.5,1.6,14c6.2-4.8,11.6-9.4,17.4-13.4c6.6-4.5,10.8-3.4,15.4,2.7c2.5,3.3,2.1,6.1-0.5,8.9c-3.8,4-8.6,6.2-13.8,7.7
	c-1.3,0.4-2.6,0.3-4,0.5c-18.8,3-21.9,6.2-25.5,26.6c6-0.7,11.8-1.2,17.5-2.1c3.2-0.5,6-0.1,8.6,1.6c3.7,2.5,4.6,5.8,1.9,9.4
	c-3.7,4.9-8.5,8.4-14.7,9.7c-3.3,0.7-6.8,2.2-9.8,1.5c-11.9-3-16.9,4.9-22.7,13.2c2.2,3.2,6,3.6,9.2,4.9c3.4,1.4,6.9,2.5,10.1,4.3
	c7.2,4.2,6.9,11.3-0.5,15.5c-9.5,5.4-24.8,2.7-31.9-5.7c-1.5-1.8-2.7-3.8-4.2-5.6c-1.5-1.8-3.2-2-5.1-0.4
	c-6.2,4.9-12.4,9.7-20.2,15.7c8.1,1.5,13.8,4.4,18.1,9.7c5.5,6.7,4.2,12.3-3.9,15.5c-5.1,2.1-10.6,2.3-15.7,0.6
	c-6.5-2.2-13.8-2.6-19.4-7.2c-1.6-1.3-2.9-1-4.5-0.4c-6.2,2.3-12.1,5.1-18,9.4c3.5,2.9,7,2.2,10,3.1c6.5,2,10.4,6.7,11.1,12.7
	c0.5,4.2-1.5,7.3-4.5,9.4c-10.2,7-24.2,2.7-29.3-8.8c-5.9-13.4-8.9-14.2-20.8-5.2c-3.4,2.6-6.5,5.7-9.6,8.8
	c-2.5,2.5-2.2,4.6,1.5,5.8c4.1,1.3,8.2,2.8,12.2,4.3c1.9,0.7,3.6,1.7,5.3,2.7c3.3,2,7.7,3.5,6.7,8.7c-0.9,4.6-5,6.3-8.7,7.3
	c-8,2.2-15.7,1.3-23.2-2.7c-9.8-5.2-11.2-4.5-16.2,5.1c-0.8,1.5-1.6,2.9-2.1,4.5c-1.3,3.7-2.5,7.5-3.9,11.7
	c4.8,1.5,7.8-2.1,11.3-3.2c5.2-1.6,10.2-3.1,15.6-2.3c5.1,0.7,6.9,2.9,4.8,7.3c-3.9,8.2-11.3,17.6-24.2,14.5c-8-2-8.5-1.3-10.3,7
	c-1.2,5.6-1.1,11.1-0.4,18c7.1-5.3,13.9-9,22.2-8.7c3.8,0.2,7.7,0.2,9.5,4c1.6,3.4-0.8,6.4-2.5,9.2c-4.3,7.1-11.6,9.7-18.9,11.9
	c-8.1,2.4-8.6,2.6-8.9,10.6c-0.3,8-0.7,15.9,1.4,24c3.7-0.4,5-3.4,6.8-5.4c3.1-3.5,6.6-6.5,10.7-8.9c2.8-1.6,5.5-2.2,8.3,0.1
	c2.5,2.1,4.1,4.7,3.2,7.8c-4,13.1-7.6,26.6-23.6,30.4c-2.9,0.7-4.6,2.3-4.9,5.4c-0.7,6.6-1.5,13.2,1.5,20c4.2-0.4,5.7-4.2,8-6.6
	c5.2-5.5,11.5-7.8,18.8-7.5c6.4,0.3,8.7,3.7,7.4,10.1c-0.8,3.9-3.1,6.6-6.1,8.7c-5.2,3.6-10.4,7.2-16.1,10c-9.1,4.5-9.5,5.6-7,15.3
	c0.7,2.6,0.9,4.7-2,5.6c-2.7,0.9-4.8-0.7-5.7-2.9c-1.1-2.7-1.5-5.8-2.2-8.7c-1.2-4.8-3.7-7.4-9.2-6.2c-4.6,1-9.3,1-13.9,0.3
	c-5.2-0.8-9.5-3-12.4-7.5c-4.2-6.4-1.8-12.8,5.7-14.4c7.4-1.6,14.6-0.7,21.2,3.2c1.4,0.8,2.8,1.5,4.6,2.4c0-9.8,0.1-18.9-0.1-27.9
	c-0.1-4-3.1-3.3-5.9-2.9c-10.5,1.5-18.9-2.3-25.5-10.4c-3.3-4.1-5.4-8.7-2.9-13.8c2.4-5,7.3-5.2,12.1-4.9c5,0.4,9.9,1,13.8,4.8
	c1.6,1.5,3.6,3,7.4,3.4c0-6.1,0.1-12.2,0-18.2c-0.2-14.1-0.2-14.1-14.3-16c-8.3-1.1-15.1-5.1-20.4-11.4c-3.7-4.3-4.7-10.9-2.2-13.9
	c3.3-3.9,7.8-4.7,12.7-4.2c4.9,0.6,8.6,3.3,12.2,6.3c2.8,2.3,5.4,4.9,7.8,7.2c3.2-0.5,3.2-2.7,3.3-4.6c0.5-7.6,0.6-15.3,1.3-22.9
	c0.4-3.7-0.9-5.7-4.2-6.7c-4.5-1.4-8.8-3-12.7-5.7c-4.9-3.3-8.3-7.7-9.2-13.7c-0.5-3.3,0.8-5.2,4.3-5.1c6.4,0.3,12.7,0.6,17.8,5.3
	c1.7,1.5,3.6,2.8,6.1,4.8c3.1-6.8,6.1-12.9,8.7-19.2c1.9-4.6-1.6-7.6-4.4-10.2c-5.3-4.9-9-10.6-11.5-17.3
	c-3.7-9.9,3.2-16.7,11.7-17.8c5.8-0.7,10.3,2.3,11.8,8.1c1.5,6,2.5,12.2,3.9,18.9c3.9-1.6,6.5-4.3,8.6-7c6.1-8,14.1-13,23.1-16.9
	c7-3,7-3.4,3.6-10.3c-1.3-2.7-3.1-5.2-4.3-7.9c-2.6-5.8-1.7-10.6,2.3-13.5c4.5-3.2,11.6-2.7,15.6,1.4c3.1,3.2,5.2,6.9,5.4,11.5
	c0.1,3.3,0.4,6.5,0.7,10.5c7.7-1.8,13.8-5.7,20.3-8.8c2.4-1.2,2.4-3.1,1.2-5c-2.3-3.6-4.7-7.3-7.4-10.7c-3-3.9-4.3-8.2-4.3-13
	c0-8.8,7.6-13.7,15.7-9.9c5.8,2.7,9.1,7.6,10.3,13.9c0.4,2,0.2,4,0.7,5.9c0.7,3.2,2.2,4.8,5.6,2.3
	C634.5,170.3,640.9,166.1,647.1,159.6z M523.5,239c1.2-8.7,2.4-16.6-0.6-24.6c-0.7-2-2.1-3.4-4.4-3.4c-6.1,0-10.4,5.5-8.7,11.4
	C511.7,229.4,515.5,235,523.5,239z M628.2,188.5c-1.3,0-3.3-0.1-5.3,0c-2.4,0.2-3.3,2-3.9,4c-0.6,2-0.7,4.5,1.3,5.4
	c6.3,2.9,12.7,6.3,20,4.7c5.5-1.2,6.6-5.9,2.4-9.5C638.8,189.8,634.2,188.1,628.2,188.5z M534.1,246.3c5.2,4.3,10.3,6.3,16,7.2
	c4.8,0.8,9.2-0.2,13.4-2.6c2.1-1.2,2.7-2.7,0.5-4.6C555.7,239.6,542.8,239.3,534.1,246.3z M502.5,327.8c-2.8-8.2-8.9-12.9-15.9-16.5
	c-2.9-1.5-7-1.3-8.9,1.9c-2,3.3,0.2,6.4,2.8,8.6C486.6,327.1,493.4,330.8,502.5,327.8z M656.1,145c-0.3-7.6-4-12.4-9.8-15.7
	c-4-2.2-6.5-0.9-6.6,3.6c-0.1,5.4,2,10.3,4.7,14.8c1.8,3,4,7.7,7.5,6.8C656.2,153.5,655,147.9,656.1,145z M500.2,383.8
	c2.4-0.8,7.1,0.8,6-4c-1.4-6.3-14.1-14.9-20.5-13.2c-4,1.1-5,2.5-3.4,6.3C485.1,379.1,493,383.9,500.2,383.8z M681.9,174.8
	c1.1,0.1,4-0.3,6.8-1.5c1.6-0.7,3.1-1.7,3.3-3.4c0.2-1.8-1.4-2.8-2.9-3.7c-6.5-3.6-13.7-4.7-20.9-5c-3.4-0.2-4.5,2.4-2.9,5.5
	C668.3,172.8,673.6,174.8,681.9,174.8z M539.9,358.8c-10.8,5-15.3,12.9-19.3,21c-0.9,1.9-2.4,4.5-0.1,6.3c2.2,1.7,4.6,0.1,6.3-1.3
	C534.1,378.7,538.4,370.9,539.9,358.8z M498,432.3c3,0,7,0.4,8.1-2.5c1.4-3.7-2.6-5.6-5.1-7.6c-3.9-3.2-8.6-3.3-13.3-2.5
	c-2.1,0.4-3.7,1.7-4.1,3.8c-0.5,2.1,0.6,3.9,2.2,5.2C489.4,431.5,493.6,432.3,498,432.3z M522.5,429c9-2,15.9-5.5,22-10.6
	c2.3-1.9,4.9-4.5,3.2-7.5c-1.8-3.3-5.3-1.6-8-0.6C531.2,413.3,526.6,420.1,522.5,429z M589.8,217.5c-0.6,0-2.3,0-3.9,0.4
	c-4.6,0.9-5.4,2.9-3.1,7c3.6,6.5,11.5,8.4,18,4.3c2.8-1.8,3.2-3.9,1.4-6.7C599.5,218.5,595.3,217.9,589.8,217.5z M697.2,84.4
	c1.3-7.4,1.1-13.6-3.6-18.7c-1.5-1.7-3.7-2.9-6.2-1.7c-2.1,1-2.3,3.1-2.1,5.2C685.9,76.3,688.9,81.7,697.2,84.4z M614,181.8
	c2.9-7.5,2.5-14.3-1.5-20.8c-1.5-2.4-3.9-3.5-6.8-2.4c-2.8,1-2.6,3.4-2.4,5.8C603.8,171.8,608.5,176.7,614,181.8z M541.4,314.9
	c-11.3-0.6-18.8,2.9-24.3,10.9c-1.5,2.2-0.6,4.6,1.8,3.9C527.4,327.4,536.1,325.2,541.4,314.9z M680.6,124.7
	c0.8-9.4-3.7-15.3-9.5-20.6c-1.5-1.4-3.4-2.4-5.4-1.2c-2.7,1.6-1.7,4.1-0.8,6.2C668,116.1,674,120.1,680.6,124.7z M690.8,132
	c11.4,4,21.4,0.4,25.4-8.9C706.6,122.8,698.4,125.3,690.8,132z M575.9,200.3c4.1-7.5,4.2-13.2,0.4-17.1c-1.7-1.7-3.6-3.1-6-1.7
	c-1.9,1.1-2.3,3.2-1.6,5.2C570.6,191.4,571.8,196.6,575.9,200.3z M714.3,87.8c6.4,0.6,11.3-1,15.6-4.3c1.8-1.4,3.9-3.2,2.2-5.7
	c-1.3-1.9-3.7-1.4-5.4-0.4C722.1,79.9,717.7,82.7,714.3,87.8z M540.9,276.7c-7.3,0.5-12.7,2.7-16.5,9.2
	C534.6,287,535.9,286.3,540.9,276.7z M506.7,277.1c-5.9-9.4-7.8-10.5-16-8.8C495,273,498.8,277.3,506.7,277.1z"/>
<path class="st0" d="M310.5,655.8c-10.8-13.7-23.7-22.2-37.8-29.2c-4.9-2.4-7.2-1.3-9.7,2.8c-2.2,3.7-4.8,7.2-7.4,10.6
	c-2.1,2.7-4.7,4.7-8.2,5.2c-5.6,0.8-8.8-2.1-8.8-7.7c0.1-7.3,4-12.5,9.2-17c2.5-2.1,5.2-4,8.1-6.2c-9.5-10.2-21.1-16.7-32.4-23.6
	c-3.4-2.1-5.9-1.1-7.3,2.1c-2.8,6.3-8.7,10-12.6,15.3c-1.8,2.5-4.3,4.2-7.4,4.8c-7,1.5-11.6-2.2-12-9.4c-0.5-9.1,4.8-14.9,11.4-19.8
	c2.6-2,5.9-3.1,8.7-6.4c-7.8-9-17.7-15.6-27.4-22.3c-2-1.4-3.7-0.3-5.1,1.4c-2.5,3-5.4,5.7-7.7,9.1c-5.8,8.5-20,9.8-27.5,3.2
	c-6.8-6.1-3.8-18.1,5.6-22c5.4-2.2,11.1-1.8,16.6-1.9c1.4-3.1-0.6-4.7-2.1-6.4c-6.9-8.2-13.5-16.5-19.1-25.6c-2.1-3.4-4.4-4.6-8.2-3
	c-7.2,3-14.8,3.8-22.5,4c-5.2,0.1-9.8-1.6-13.7-5c-6.7-5.8-6-12.3,2.3-15.1c6.5-2.2,13.2-4.7,20.5-3.3c1.9,0.4,3.9,0.9,6.2-0.7
	c-5.5-10.6-9.1-21.9-10.4-34c-0.5-4.5-3.4-5.8-7.9-5.2c-6.6,0.9-13.1,2.2-19.8,0.9c-5.8-1.2-9.6-4.2-12.3-9.2
	c-1.8-3.5-2.5-7.1-0.1-10.4c2.2-3,5.8-3.4,9.1-2.8c5.9,1,11.5,3.2,17.1,5.5c2.1,0.9,3.9,2.8,7.2,1.7c-1.6-11.6-3.1-23.3-4.8-35
	c-0.7-5.1-3.6-6.4-8.6-5.2c-5.5,1.3-11.1,2.2-16.7,2.7c-8.3,0.7-15.8-3.8-18.7-10.6c-2.7-6.2-1.1-11,4.9-14.1
	c11.4-5.9,22-3.5,31.9,3.3c4.1,2.8,7.7,6.4,11.2,9.9c4.7,4.7,7.7,5.1,12.1,0.2c6.7-7.4,8.8-16,5.5-26.4c-7.4,5.1-7.8,12.6-9.6,19.5
	c-0.4,1.7,0.4,4.6-2.7,4c-2.5-0.4-2.6-3-2.1-4.9c1.5-6.5,4.2-12.6,7.9-18.2c1.3-2,2.7-4.2,5.4-3.8c3.1,0.5,5.3,2.6,6.5,5.6
	c3.9,10.1-3.4,27.9-13.2,32.5c-8.1,3.8-8.4,3.8-7,12.3c1,6.5,0.9,13.3,3.5,19.8c4.5-0.1,6-3.9,8.6-6.2c7.4-6.5,9.8-5.4,16.9-1.5
	c4.2,2.2,5.3,10.7,2.8,16.4c-2.6,5.9-7.2,9.2-13.2,11.3c-8,2.8-8,3.3-7.5,11.5c0.5,8.5,6,22.6,12.2,31.1c3.4-2.3,3.5-6.1,4.4-9.5
	c1.2-4.6,2.9-9,6.4-12.2c5-4.6,10.2-3.3,12.4,3.1c1.7,4.9,1.4,9.8-1,14.5c-1.5,3-2.7,6.1-4.6,8.8c-5.9,8.4-4.1,15.9,1.7,23.7
	c3.3,4.5,6,9.4,11.4,13.1c1.8-4,3.2-7.2,4.6-10.5c1.5-3.4,3.6-6.3,6.4-8.8c3-2.5,6-2.2,9.3-0.7c3.1,1.3,5,3.2,4.8,6.8
	c-0.4,7.3-0.7,14.6-4.2,21.4c-3.1,6-3,8.9,2.4,12.3c9.4,5.8,16.9,13.8,26.4,21.4c1.9-8.2,3.8-15.4,5.1-22.7
	c0.9-4.9,3.4-8.6,6.6-12.1c3.1-3.4,5.8-2.3,8.2,0.7c0.6,0.8,1.4,1.6,1.6,2.5c3.5,13,6.9,26.1-2.9,38c-3.2,3.9-1.4,6.3,1.6,8
	c10.1,5.9,19.2,12.9,28.2,20.9c3.6-4.2,3.1-8.6,2.8-12.8c-0.5-6-0.4-12,1.7-17.7c2.5-6.8,6.5-7.7,12.2-3.3
	c10.2,7.9,12.3,21.9,5.5,33.1c-2.3,3.7-8.4,5.9-6.5,11.3c1.5,4.3,6.9,4.9,10.4,7.3c4.7,3.2,9.6,6,14.4,9c0.5,0.3,1.3,0.1,2.3,0.2
	c1.4-6.4,2.2-13,5.7-18.8c2.1-3.5,4.4-7.2,9.2-6.4c4.6,0.8,7.5,3.8,8.6,8.6c2,8.2,3.1,16.3-1.2,24.3c-1.7,3.2-3.2,6.8,0.8,9.7
	c1.1,0.8,2.1,1.7,3.2,2.3c10.7,6.1,19.1,15.4,30.4,21.7c3-4.2,3.3-8.8,4-13.2c0.9-5.7,2.3-11.1,6-15.7c4-5,11.1-4.3,13.9,1.4
	c1.9,3.9,2.5,8.2,1.9,12.6c-1,7.9-2.8,15.7-5.4,23.2c-1.5,4.2-1.4,7.3,1.9,10.7c9.9,10.4,18.8,21.5,24.7,34.8c0.4,0.9,1,1.7,1.6,2.5
	c0.9,1.4,2,2.9,3.9,2.6c1.8-0.3,2.6-2,3.1-3.6c1.8-5.4,3.3-10.8,5.2-16.1c1.7-4.7,4-9.2,7.2-13.1c1.8-2.2,3.9-3.8,6.9-2.9
	c2.7,0.9,4.3,3.1,4.8,5.9c0.7,4,0.6,8-0.8,11.8c-2.2,5.9-4.5,11.8-6.6,17.8c-1.5,4.3-4,8.4-1.5,13.3c1.9,3.8-2,7.3-1.3,11.5
	c1.4,8.2,2,16.5,3,24.7c0.2,1.6,0.9,3.3,0.9,4.9c0,2.7,2,7.1-2,7.6c-4,0.5-3.1-4-3.5-6.8c-1.3-9.2-2.5-18.5-4-27.7
	c-1.2-7.5-4-9.5-11.7-8.3c-5.9,0.9-11.9,1.6-17.9,1.6c-3.8,0-7.2-1-10.6-2.4c-2.8-1.2-4.2-3.2-4.6-6c-0.9-7.3,6.4-16.3,13.7-16.9
	c2.5-0.2,5.2,1.3,8.5-1.1c-5.1-11.6-12.8-21.2-23-28.9c-2.3-1.8-4.4-1-6.3,0.7c-3.7,3.3-7.3,6.8-11,10.1c-2,1.8-4,3.7-6.3,4.8
	c-9.1,4.3-18.1-2-17.4-11.9c0.6-8.1,6.7-16,14.4-18.5c1.6-0.5,3.2-0.8,4.6-1.1c1.1-3.5-1.6-4.3-3.2-5.7
	c-8.4-7.1-17.5-13.3-26.7-19.4c-6.7-4.4-6.9-4.3-10.7,3.5c-2.7,5.6-4.3,11.8-8.4,16.9c-6,7.5-12.1,9.7-18.8,5.9
	c-6.3-3.5-9.4-13.9-6.4-21.2c1.4-3.4,4.2-4.9,7.3-6.4C294.4,656.5,301.8,656.7,310.5,655.8z M75.5,374.5c-8.8,0.2-14.4,3.6-15,8.2
	c-0.5,3.6,4.7,11.8,8.9,11.7c8.4-0.2,17-0.5,24.7-4.5c1.8-0.9,1.9-2.5,0.6-4.1C89.2,379.4,82.5,375,75.5,374.5z M380.3,660
	c0-1.7,0.1-3.3,0-5c-0.3-2.5-1.4-4.6-4-5c-2.2-0.3-3.8,1.1-4.9,2.9c-1.2,2-2.3,4.1-3.1,6.2c-2.3,7-2,14.4-2.9,21.6
	c-0.3,2.2,0.9,4.5,1.4,6.8c0.3,1.4,1.2,2.5,2.5,2.8c2,0.5,3.1-1,3.6-2.6C375.8,678.6,380.1,669.8,380.3,660z M434.6,714.1
	c-0.1-3.3,0.9-6.6-2-7.8c-3.3-1.4-4.3,1.9-5.8,4c-6.1,9-8.2,19.4-10.3,29.8c-0.1,0.6-0.1,1.3-0.1,2c0.2,2,0.6,4.2,2.8,4.6
	c1.9,0.4,2.7-1.5,3.5-3c1.9-3.9,3.9-7.7,5.6-11.6C431.1,726.1,433.9,720,434.6,714.1z M266.7,596c0,4.5,0.1,7.1,0,9.7
	c-0.1,2-0.3,4.1,2.1,5c1.6,0.6,3.2-0.1,4.6-1.1c9.6-6.4,9.5-22.6-0.3-28.8c-3-1.9-4.2-0.1-5,2.3C266.3,587.9,266.9,593,266.7,596z
	 M323.5,629.1c0.2-4.4-0.6-7.1-2.4-9.7c-2.8-3.9-6.2-4.3-8.4-0.1c-4.2,8-4.9,16.5-1.8,25c1.4,3.7,5.6,3.9,7.7,0.5
	C321.8,639.7,323,633.9,323.5,629.1z M355.2,692.6c-6.9-0.1-11.9,4.7-13.1,12.5c-0.4,2.6-0.8,5.3,2,7.1c2.5,1.7,5.2,1.4,7.4-0.3
	c4.2-3.2,8.3-6.5,12.2-10c3.6-3.2,3.3-5.3-1.1-7.1C360.2,693.7,357.8,692.3,355.2,692.6z M285,673.2c0.1,3.6,0.9,7.2,4.5,9.1
	c3.9,2.1,7-0.1,9.6-2.9c1.6-1.7,3.1-3.4,4.4-5.4c1.9-2.9,5.9-5.6,3.3-9.4c-2.7-3.9-7.3-2.3-11-1.4c-2.8,0.7-5.3,2.6-7.9,4
	C285.6,668.5,284.5,670.4,285,673.2z M226.3,543.8c-6.8,8.8-7.3,17.8-8.5,26.4c-0.4,2.8-1.6,7.5,2.5,8.5c3.3,0.8,5.5-3,7.8-5.3
	c0.7-0.6,1.3-1.6,1.4-2.6C230.8,562.2,232,553.5,226.3,543.8z M149.1,567.2c6.3,0.2,12.9-4.9,13-10c0.1-3.1-5.1-7.1-9.5-7.3
	c-5.9-0.2-13.6,6-13.6,11C139,564,143.9,567,149.1,567.2z M109.7,507.7c5.3-0.1,10.5-0.2,15.5-2.4c3.3-1.5,3.6-3.5,0.5-5.6
	c-4.9-3.3-10.5-4.1-16.2-3.8c-7.2,0.3-14,4.2-12.7,6.9C99.3,508.1,104.6,507.8,109.7,507.7z M190.1,602.3c0,4.6,2.6,6.7,6.1,4.2
	c6.5-4.7,11.9-10.6,14.9-18.1c0.9-2.1-0.1-3.9-2.8-3.9C200.1,584.2,190.1,594,190.1,602.3z M110.6,442.6c9.7,2.3,17.3-0.3,22.5-8.5
	c2.6-4,2.4-8.8-0.5-10.7c-4.1-2.7-7,0.2-9.5,2.7c-2.3,2.3-4.1,5.2-5.8,8C115.4,437.1,113.9,440.4,110.6,442.6z M397.8,752.9
	c2.5-0.3,7.1,0.6,9.5-3.2c1.7-2.6-3.7-8.7-8.8-10.7c-2.9-1.1-5.8-1.5-8.7-0.4c-3.4,1.3-5.5,3.7-5.8,7.4c-0.3,3.9,2.8,4.8,5.7,5.9
	C391.8,752.7,394.1,753.2,397.8,752.9z M181,524.8c-0.1-1,0-2-0.2-2.9c-0.4-1.8,0.2-4.3-2.3-5c-2.2-0.6-4,0.8-5,2.4
	c-3.6,6.3-7.1,12.7-4.9,20.5c0.9,3.1,2.7,3.6,5,1.6C178.7,537,181,531.4,181,524.8z M101.8,444.3c-5.9-5.4-12.3-7.9-18.9-9.9
	c-1.9-0.6-4.2-0.4-5.4,1.4c-1.2,1.8-0.3,3.9,0.7,5.6c1.9,3.4,5.3,4.9,9,5.3C91.8,447.2,96.4,447.4,101.8,444.3z M261.5,621
	c-13.7,4.4-16.6,7.9-16.1,18.6C253.6,636.2,257.1,629.5,261.5,621z M147.2,473.5c-6.3,6-9.4,13.1-7.9,21.9
	C143.2,488.6,149.6,482.8,147.2,473.5z"/>
<path class="st0" d="M323.4,384.5c4.3-1.8,7.9-3.3,11-5.7c4.2-3.3,9-5.7,14-7.5c5.3-1.9,9.8,0.5,10.4,5.7c0.8,6.7,0.6,13.3-4.7,18.6
	c-5.5,5.5-11.2,10.5-19.8,10c-4.9-0.3-6.4,2.6-6.3,6.9c0.2,6.3,0.3,12.7,0.4,19c0.1,2.7,0.2,5.8-3.7,5.8c-3.5,0-4.1-2.7-4.2-5.6
	c-0.2-6.3,0.9-12.6-0.3-18.9c-1.2-6.5-2.4-7.9-8.9-8.3c-12.3-0.7-19.5-9-26.2-17.8c-1.6-2.1-2.3-5.1-0.5-7.5
	c1.8-2.5,4.5-2.2,7.3-1.8c6.7,1.1,12.5,4.2,18.5,7.1c1.4,0.7,2.6,2.1,4.8,1.3c1.8-2.8,1.1-6.1,0.5-9.3c-1.6-7.8-3.2-15.6-5.2-23.3
	c-1.6-6.5-2.4-7.1-9-5.8c-8.3,1.5-15.8,0.6-22.6-4.7c-4.6-3.6-7-10.5-5-15.8c1.5-3.8,4.3-4.8,8-4c6.9,1.5,13.3,4,19,8.3
	c3.9,2.9,7.9,5.8,12.6,9.2c1.2-6.5-2.3-11.1-3-16.1c-1.5-11.3-6.5-18.2-18.7-21.1c-6.9-1.6-14.3-5.2-20.5-9.8
	c-3.9-2.9-5.8-6.3-4.8-11.1c1-4.4,5.1-7.8,10.2-8.1c3.6-0.3,7.2-0.2,10.4,2.3c3.6,2.8,7.5,5.2,11.3,7.7c3-1.8,1.9-4.3,1.7-6.4
	c-0.3-3.6-2-7.4-1.4-10.8c2.1-12.1-4.5-16.1-14.8-18.6c-8.3-2.1-16.4-5.4-22.1-12.7c-5.5-7.1-4.3-12.7,4-16.5
	c8.7-3.9,16.2-0.6,23.5,3.6c2.5,1.5,4.4,4,7.3,4.8c2.1-0.4,1.8-2.1,1.6-3.1c-1.8-9.2-1.7-18.5-2.9-27.8c-1.1-8.6-1.2-8.6-9.7-8.6
	c-7.9,0-15.1-2-21.3-7c-1.3-1-2.9-2-3.5-3.4c-2.2-4.5-4.5-9.6-1.6-14.3c2.8-4.4,8.1-4.1,12.7-3.7c3.3,0.2,6.5,1.1,9.4,2.9
	c2.4,1.6,4.8,3.7,8.7,3.2c0.5-9-2.5-17.6-2.8-26.5c-0.1-3.7-3.3-4.6-6.6-4.5c-6.1,0.1-11.9-0.8-17.6-3c-3.8-1.5-7.1-3.7-9.6-6.9
	c-3.9-5-2.9-10.5,2.7-13.4c6.2-3.2,12.7-4.2,19-0.1c3.5,2.3,6.9,4.8,11.6,8c0.3-11.8-1-22.1-3.2-32.3c-0.7-3.1-4.1-4-7.1-4.8
	c-5.8-1.6-11.1-4.5-16.4-7.1c-5.8-2.8-8.9-7.7-11.6-13.2c-2.1-4.4-2-8.8,1.3-12c3.1-3,7.3-2.2,11.3-0.6c8.3,3.5,14.5,9.3,19.2,16.8
	c1.6,2.5,3.3,4.9,4.8,7.2c3.5-0.6,3-3.5,3.8-5.5c3.5-8.9,9.5-16,16.2-22.6c4.4-4.3,9.2-4.7,13.5-1.7c3.6,2.5,4.7,6.9,2.5,12.6
	c-4.2,11.4-11.8,20.2-22.7,25.3c-5.2,2.4-6.8,5.2-6.3,10.7c0.6,6.2,0.7,12.5,2.2,18.8c3.7-0.1,6-2.8,8.6-4.5
	c4.5-2.9,8.7-2.7,13.2-0.3c7.9,4.2,8.7,10,2.6,16.7c-4,4.4-9,6.5-14.5,8.3c-10,3.3-10.4,3.6-9.4,14.2c0.7,8.1,1.2,16.4,5,24.5
	c4.9-3.1,9.3-6.1,13.8-8.7c2.6-1.5,5.4-2.8,8.3-3.3c5.1-0.9,8.3,2.3,7.8,7.6c-0.6,6.4-4.2,11.2-9.4,14.6c-4.4,3-8.7,6.1-12.8,9.4
	c-3.8,3-5.5,6.3-4.9,11c0.9,7.3,1.5,14.6,2.4,21.8c0.1,0.9,1,1.6,1.5,2.5c4.3-1.1,6-5.2,9.2-7.5c4.6-3.4,9.1-6.8,15.1-7
	c10-0.2,14.4,7,10.2,16c-1.5,3.2-4.2,5.1-6.5,7.4c-6.7,6.6-13.8,12.6-22.5,16.4c-4.1,1.8-6,4.5-5.9,9.3c0.2,8.8,0.2,17.6,2.6,27.1
	c3.7-2.9,6.7-5.3,9.8-7.8c5.2-4.2,11.3-5.6,17.7-5.7c5.6-0.1,11.2,1.9,13.2,7.2c1.9,5,0.8,10.5-3.3,14.8c-6.6,6.8-15,10.9-23.2,15.3
	c-7.3,3.9-8.2,4.1-5.5,11.8c2.3,6.6,2.7,13.6,4.5,20.6c5.4-0.2,8-4,11.3-6.5c3.7-2.8,7.3-5.9,11.6-7.7c5.2-2.1,10.9-0.6,13.4,3.4
	c2.5,3.9,1.6,7.5-3.3,12.2c-4.4,4.3-9.8,6.9-15.9,7.6c-3,0.3-6,0.2-8.9,0.8c-7.8,1.5-10.9,5.9-9.7,13.6
	C321.5,372,322.4,377.8,323.4,384.5z M336.1,278.4c-9.7-0.1-19.6,7.8-23.1,17.5c-0.8,2.2-1.8,4.3,0.7,6.2c2.2,1.6,4.1,3.1,7.2,1.8
	c7.1-3,14.1-5.9,19.7-11.4c2.6-2.6,5.7-5.2,3.8-9.4C342.7,279.3,339.1,278.5,336.1,278.4z M274.5,224.1c-0.6,0.1-1.7,0-2.6,0.3
	c-2.5,0.7-5.4,1.3-6,4.5c-0.5,2.6,1.2,4.3,3.1,5.8c7.2,5.7,15.5,8.8,24.3,10.7c2.9,0.7,5.5,0.1,4.1-4.1
	C294.7,233,282.8,223.9,274.5,224.1z M306.6,245.1c14.3-3.4,21.8-13.9,30.5-22.7c2.3-2.3,0.4-5.8-3.2-6.2c-4.9-0.6-9.5,1.3-12.5,4.7
	C315.3,227.8,308.5,234.3,306.6,245.1z M354,384.4c-0.3-7.7-2.3-8.9-8-5.9c-4,2.1-8.3,3.9-11.7,7.3c-5,4.9-8.1,10.4-5.8,12.4
	c4.5,3.7,9.4,1.3,13.9-0.7C348.6,394.5,353.4,390.2,354,384.4z M301.6,300.9c-2.2-5.6-4.9-9-7.8-12c-3.2-3.2-6.8-6.2-11.3-7.8
	c-3.9-1.5-7.6-0.4-9.4,3.1c-1.8,3.5,1.7,5.2,4.2,6.7C284.4,295.1,291.9,298.1,301.6,300.9z M291.3,180.8
	c-4.3-9.7-11.9-13.2-20.4-14.7c-4.8-0.8-6.6,2.3-4.8,6.8c1.1,2.6,2.9,4.3,5.4,5.4C277.4,181,283.3,182.4,291.3,180.8z M316.5,51.5
	c-0.2-3.4-2.1-3.7-4.6-2.2c-8.2,5.1-12.6,13.2-16.5,21.6c-0.8,1.8,0.5,3.2,2.6,2.8C303.2,72.7,316.1,57.1,316.5,51.5z M277.1,74.7
	c-3.8-9.7-9.1-15.3-16.3-19.3c-1.5-0.8-3.1-1.4-4.7-0.3c-2,1.5-1.4,3.4-0.6,5.3C259.2,69.6,266.9,72.4,277.1,74.7z M304,340.9
	c-5.4-5.5-10.8-9.1-17.2-11.1c-2.1-0.6-4.6-2.3-6.4,0.1c-2.1,2.9-0.6,5.8,1.3,8.1c1.7,2,3.8,3.9,6.6,4.1
	C293.1,342.4,298,344.1,304,340.9z M282.2,127.8c-2.4-6.8-7.9-9.7-13.3-12.5c-2.2-1.1-4.4-0.7-6.6,0.5c-3.4,1.9-3.8,4.6-0.7,6.8
	C267.6,126.8,274.1,129.5,282.2,127.8z M331.1,347.9c8.2,0.3,14.2-2.5,19.2-7.6c1.2-1.2,2.4-2.5,1.6-4.3c-1-2.2-3.3-2.3-5.1-1.6
	C340.5,337.1,335.2,341.1,331.1,347.9z M314.9,398.4c-6.3-8.3-12-14-22.5-13.5C297.4,393.2,302.4,399.8,314.9,398.4z M297.6,124.3
	c7.1,0.7,11.8-1.4,15.9-5.1c1.7-1.5,3.9-3.1,2.3-5.8c-1.7-2.7-4.1-2.7-6.9-1.7C303.3,113.8,301.5,118.9,297.6,124.3z M321.8,166.2
	c-8.2,2.1-14.7,6-17,14.5C311.4,177,319.7,175.2,321.8,166.2z"/>
<path class="st0" d="M545.7,681.5c3.5-1.9,4.7-4.3,6.3-6.3c2.1-2.7,5-4.4,8.3-5.2c4.8-1.1,9.6-0.7,12.8,3.4c3,3.8,2,8.1-0.2,12.2
	c-2.6,4.8-5.9,8.7-10.6,11.6c-9.7,6-9.7,6.2-8.9,18.9c4.2-2,8.2-4.3,12.4-5.6c5.7-1.8,11.1-2.6,17.1,1.3c7.7,5.1,7.2,19.3-1.8,23.2
	c-5.7,2.5-11.4,3.6-17.5,3c-3.6-0.4-5.3,1-6.8,4.2c-3.3,7.1-4.7,14.5-5.1,22.2c-0.1,2.2,1,5.1-2.6,5.3c-4.1,0.2-5.1-2.7-4.8-6
	c0.6-6.3,1.1-12.6,3.3-18.6c0.7-1.9,1.9-3.5,0.9-6.3c-2.6-1.4-5.4,0.4-8,1c-10,2.3-18.4-0.8-26.1-6.8c-3.3-2.5-5.9-5.6-4.2-10.2
	c1.7-4.5,6.2-7.3,11.2-6.7c4.3,0.5,8.3,2,11.6,5.3c2.5,2.5,5,6.8,8.7,5.3c4-1.7,3.4-6.8,3.6-10.7c0.8-11.6-0.7-13.1-12.4-13.1
	c-3.3,0-6.7,0-10-0.4c-5.8-0.7-9.7-4.3-12-9.4c-1.7-3.9-1.5-7.7,2.1-10.8c3.4-3,6.9-3.6,11-1.5c4.4,2.2,7.7,6.3,12.8,8
	c1.6-5.6,0.3-10.9,0.4-16.1c0.1-4.6-1-9.2,0.8-13.8c1.4-3.4-0.4-4.8-4.1-4.4c-5.6,0.6-11.2,1.6-16.9,0.4c-11-2.4-13.2-7-8-16.7
	c0.5-0.9,0.9-1.8,1.4-2.6c5-8,7.1-8.4,14.7-3c1.8,1.3,3.3,3.4,6.8,2.6c0.2-6-0.6-12.2,0.2-18.3c0.4-3-2-4.6-4.5-2.5
	c-8.9,7.4-19.3,6.3-29.5,5.5c-8.7-0.7-15.2-6-15.2-11.8c-0.1-6,5.7-11.2,14.4-13.1c6.4-1.4,12.5-0.9,18.5,1.8
	c1.7,0.8,4.1,1.8,5.4-0.4c0.7-1.2,0.4-3.4-0.2-4.8c-3.3-7.6-7.6-14.7-13.3-20.9c-2.7-3-5-2.5-7.7-0.3c-3,2.6-6.1,5.2-9.2,7.7
	c-4,3.3-8.8,4.8-13.8,5.2c-5.5,0.5-11-2.3-11.8-5.6c-1-3.8,2.9-11.2,7.3-13.1c4.6-2,9.4-3.3,14.4-3.5c1.2,0,2.3-0.1,5.2-0.2
	c-9.4-6.7-17.1-12.3-24.8-17.9c-2-1.4-3.6-0.8-5.2,0.9c-3,3.1-6,6.2-9.3,9.1c-5.8,5.3-12.5,7.3-20.3,5.1c-4.5-1.3-7.8-3.8-8.7-8.6
	c-0.8-4.5,0.3-8.1,3.8-11.6c6.4-6.4,13.8-6,21.3-4.1c5.7,1.4,11.3,2.9,15.6-2.4c5.1-6.3,8.9-13.4,8.7-21.8c-0.1-4.2-3.1-6.4-7.4-6.7
	c-4.5-0.3-7.8,2-8.2,6.8c-0.4,5.3,0,10.6,0,16c0,7.1-1.9,8.6-8.1,5.5c-8.6-4.3-16.2-10.6-25.2-14.2c-1.2-0.5-2.5-1-3.6-1.8
	c-4.5-3.2-7.9-1.6-11.2,2.1c-2.2,2.5-4.5,4.9-7,7c-3.4,2.9-7.5,4.2-12.1,3.6c-5.8-0.8-6.8-2.8-6.1-8.8c1.2-9.4,8.1-13.3,15.5-16.4
	c3.6-1.5,4.8-2.8,2.9-6.5c-1.7-3.2-3-6.7-4.2-10.1c-3.1-8.6,2.1-15.5,11.2-15c8.4,0.5,15.2,5.5,17.7,13.6c2.3,7.6,4.7,15.4,0.8,23.3
	c-1.3,2.6-0.2,4.4,2.2,5.7c6,3.3,12,6.8,18,10.2c3.7-4.9,2-10.8,4.1-15.6c2.7-6.2,5.7-8.2,12.1-8.4c6.5-0.2,10.8,2.5,13.3,8.5
	c1.1,2.6,1.4,5.2,0.5,7.8c-1.1,2.8-2.2,5.6-3.6,8.2c-7,13.5-7,13.5,5.7,21.5c2.5,1.6,5.2,2.8,8.9,4.8c-0.4-7.4,0.8-13.6,7.6-16.8
	c3.6-1.7,7.5-3.9,11.2-0.7c3.4,3,4.6,7.2,3.8,11.8c-0.2,1-0.5,2-1,2.8c-5.5,8.5-2.5,15.5,3.9,22c4.6,4.7,6.8,11.2,11.5,15.7
	c3.3-1.5,3.2-4.5,4.4-6.8c0.9-1.8,1.4-3.8,2.5-5.5c3.4-5.5,12.2-8.9,17.2-7c6.2,2.4,8.5,8.2,6.2,16.8c-2.3,8.8-5.8,17.3-11.9,23.9
	c-5.2,5.6-4.6,12.2-5.8,18.5c-0.4,2.2,1.2,3.9,3.8,2.4c3.5-2,6.9-4,10.5-5.7c7-3.3,13.7-2.4,20.3,0.5c7.6,3.3,8.4,9.4,2,14.6
	c-4.4,3.6-9.4,6.6-15,7.7c-9.3,1.8-12.9,8.4-15.1,16.5C544.1,667.8,543.8,674.3,545.7,681.5z M423.3,506.7c1.4-11.3,1-20.4-5.1-28.7
	c-0.9-1.3-2.5-2.2-4-2.9c-2.7-1.3-5.8-2.6-8.4-0.2c-2.3,2.1-3.2,5.1-2.2,8.2C406.6,493.1,412.9,500.3,423.3,506.7z M564.1,716.7
	c-3.6,2.8-8.2,5.2-7,10.9c0.9,4.2,5.5,6.2,12.4,5.8c1.6-0.1,3.3-0.4,4.9-0.8c6.3-1.6,10.1-6.3,9.2-11.1c-1-5.2-5.8-8.2-12.2-7.8
	C568.5,713.9,566.2,715.1,564.1,716.7z M550.8,572.3c-2.6-3.7-7.4-3.1-10.4,1.9c-4.2,7.2-6.5,15.2-6.9,23.5c-0.1,2-1.1,5.1,2.3,5.6
	c2.5,0.4,5.4,0.4,6.8-2.6c2.9-6.3,5.9-12.5,8.6-18.9C552.4,578.8,552.9,575.4,550.8,572.3z M521.7,611.5c0.6-1.8,5.6-3.3,1.6-5.7
	c-8.4-5-17.6-8-27.6-5.2c-3.3,0.9-4.8,3.5-5.1,6.6c-0.3,3.2,2.3,5.1,4.6,5.8C504,615.8,512.8,616.1,521.7,611.5z M565.9,636.7
	c1.4-0.9,2.8-1.8,4.1-2.8c1.6-1.2,3.3-2.5,2.8-4.8c-0.5-2.2-2.4-3-4.4-3.5c-8.7-2.3-19.6,3-23,11.2c-1.9,4.7-0.9,6.3,3.9,5.9
	C555.3,642.2,560.9,640.1,565.9,636.7z M447.3,552.3c2.7-2.8,5-5.2,7.2-7.6c1.6-1.8,1.7-3.7-0.9-4.7c-4.3-1.7-8.8-3-13.5-3
	c-4.6,0-7.1,2.9-9,6.6c-1.5,3-1.2,6.1,1,8.3c2.7,2.7,6.2,3.6,10.1,2.1C444,553.2,445.9,552.7,447.3,552.3z M399.2,520.9
	c3.4-3,7.2-6.2,10.6-9.7c1.6-1.6,1.4-3.6-1.1-4.6c-7.2-3-18.8,5-18.4,12.8c0.1,3.2,1.5,5.1,5.1,3.5
	C396.5,522.3,397.7,521.6,399.2,520.9z M557.6,692.8c3.6-2.7,6.7-6,8.7-10.3c1-2.2,1.7-4.6-0.6-6.2c-2.1-1.5-4.7-0.8-6.4,0.8
	c-3.4,3.1-5.9,7.1-8,11.2c-0.9,1.7-1.8,4-0.1,5.5C553.3,695.6,555.4,694.1,557.6,692.8z M492.7,567.6c-6.6-3-12.2-1.8-17.5,1
	c-2.4,1.3-3.6,4.1-2.6,6.9c1.1,3.2,4.1,3.2,6.7,2.4C484.7,576.1,489.4,573.2,492.7,567.6z M532.7,647.7c-2.3-4.6-6.7-6.7-9.9-9.7
	c-1.5-1.5-3.6-1.4-5,0.7c-1.4,2.2-3.6,4.4-2.7,7c0.8,2.3,3.6,2.7,5.9,2.9C524.7,649.1,528.6,649.9,532.7,647.7z M535.3,734.6
	c-1.6-5.8-5.4-8.4-8.9-11c-2.7-2-6.3-1.1-7.9,1.4c-1.7,2.7,0.9,5,3.3,6.2C525.5,733.3,529.6,734.5,535.3,734.6z M505.1,537.4
	c-0.5-1.1-2-1-3.7-0.2c-4.4,2.2-6,10-2.9,13.9c1,1.2,2.3,1.5,3.5,0.8C505.3,550.1,507.4,541.8,505.1,537.4z M529.7,692.8
	c-1.6-3.2-5-4-7.6-5.8c-1.1-0.7-2.5-0.3-3.6,0.7c-1.3,1.1-0.9,2.3-0.4,3.5c1.7,4.1,5.1,5.7,9.3,6c0.9,0.1,2-0.3,2.6-0.9
	C531.1,695.2,530.1,693.9,529.7,692.8z"/>
<path class="st0" d="M704.6,404.1c0-9.7-0.1-18.6,0.1-27.5c0.1-4.4-1.6-6.8-6-7.6c-3.6-0.6-7.2-1.5-10.6-2.8
	c-10.8-3.8-16.3-12.6-15.4-24.1c0.6-8.1,6.6-11.4,14.1-7.8c2.5,1.2,4.3,3,6.1,5c3,3.5,6.3,6.8,9.9,10.7c3.3-2.3,5-5.4,7.1-8.3
	c3.3-4.6,6.5-9.3,10.3-13.5c4.7-5.1,9.4-3.8,12,2.8c1.4,3.6,1.5,7.6-0.1,10.7c-3.9,7.6-7.7,15.4-15.8,19.7c-2.7,1.5-4.8,2.8-5.2,6.5
	c-0.9,10.9-1.7,21.8-0.6,33.3c5-1.3,7.1-5.4,10.5-7.7c7.3-5,11.8-5.5,15.1-1.7c3.4,4,3,12.7-1.3,17.5c-2.4,2.7-5,5.3-8.6,6.7
	c-3.1,1.1-6,2.8-9,4.2c-3.6,1.7-6.1,4.7-6.3,8.4c-0.6,9.8-1.8,19.6,0.4,29.9c4.5-1.3,6-5.1,8.9-7.1c6.6-4.9,14.4-5.9,18.2-2.1
	c3.3,3.2,3.1,11.7-0.5,17.8c-3.1,5.4-7.5,9.6-13.5,11.1c-7.5,1.8-10.3,7.2-11.1,13.7c-1.2,10.1-2,20.2-0.1,31.6
	c4.9-5.5,8.7-10.4,13.1-14.7c4.4-4.3,9.5-7.1,16.2-4.8c4,1.4,5.8,3.8,6.1,8c0.8,10.4-4.1,17.8-11.8,24c-4,3.2-8.5,5.1-13.2,6.8
	c-5.5,2-8.7,5.8-8.3,12c0.6,8.9,1.1,17.8,1.7,29c6.5-7.6,12.3-13.1,18.7-18.1c3.9-3.1,7.9-6,12.4-3c4.2,2.8,6.8,7.8,6.2,12.9
	c-1,8.5-4.6,15.9-13,20c-5.1,2.5-10,5.4-15.2,7.6c-3.2,1.4-5,3.5-5.2,6.6c-0.8,11.9,0.1,23.8,1.4,36.9c7.3-4.9,11.5-10.9,16.5-16
	c3.4-3.3,6.8-6.4,11.3-7.9c7.7-2.5,13.2,2.5,11.6,10.4c-1.8,9.1-7,15.6-15.1,19.8c-5.9,3.1-11,7.2-16.1,11.6
	c-4.6,3.9-6.4,8.6-6.2,14c0.4,10.9-1,22,1.5,32.8c0.4,1.8,0.4,3.4-1.6,4c-2.1,0.6-4.2,0.1-5-2.1c-0.6-1.8-0.5-3.9-0.6-5.9
	c-0.3-12.3-0.7-24.6-0.7-36.9c0-5.1-0.9-8.3-7-8.2c-5.4,0.1-10.4-2.1-15.3-4.3c-10.6-4.8-13.8-19.2-6.2-27.8
	c1.5-1.7,3.3-2.2,5.4-1.8c4.2,0.8,8.7,0.6,12.3,3.6c1.9,1.5,4,2.4,6.9,1.4c1.8-9.8-1.5-19.5-1.8-29.4c-0.1-3.1-3.2-4-6-4.3
	c-5.4-0.7-10.5-2.3-15.1-5c-8-4.6-13.1-11.2-13.1-20.9c0-7,2.2-8.8,9.2-7.5c5.8,1.1,10.2,4.8,14.5,8.4c2.2,1.9,3.8,4.6,7.3,4.9
	c2.2-1.8,1.2-4.2,1-6.3c-0.4-3.6-0.9-7.3-1.3-10.9c-0.5-5.6,0.8-12.2-1.8-16.6c-2.4-4.1-9.8-2.4-14.6-4.4
	c-7.5-3.2-16.1-5.2-18.6-14.9c-1.3-4.8-1.4-9.5,2.2-13.1c3.2-3.2,7.5-1.9,11.4-0.8c6.5,1.7,11.1,6.9,18.4,9.2c0.3-11,0.6-21.5,1-32
	c0.2-4.8-3.2-6.1-6.9-7.1c-9.2-2.5-17.4-6.5-23.8-13.9c-2.2-2.6-4.1-5.3-4.8-8.6c-2-9,4.5-15.2,13.3-12.4c4.5,1.4,8.5,3.8,11.9,7.1
	c2.1,2,3.8,4.6,7.8,4.9c0-10.5-0.1-20.7,0-30.9c0-4-2.3-5-5.6-5.4c-8.8-1-15.5-5.8-21.2-12.1c-1.5-1.7-2.8-3.7-3.9-5.8
	c-2.9-6.1-2.4-10.1,1.7-13.5c4-3.4,9.9-3.8,14.8-1c3.2,1.8,5.8,4.4,8.1,7.3C699.8,400.5,700.3,403.1,704.6,404.1z M715.2,536.7
	c0.6,0.7,1.1,1.4,1.7,2c5.4-2.3,11.1-4,16-7.1c5.2-3.4,9.7-7.9,10.9-14.6c0.5-2.6,1.4-5.4-1.1-7.3c-2.4-1.9-5.2-0.9-7.4,0.5
	C725.3,516.7,718.9,525.7,715.2,536.7z M748.9,572.2c-0.1-3.3-2.9-5.3-7.6-2.7c-9.6,5.3-15.5,14.1-20.8,23.3
	c-0.9,1.5-0.5,3.3,0.8,4.6c1.1,1.1,2.5,0.6,3.7,0c5.6-2.8,11.4-5.4,16.7-8.7C746.7,585.5,749.1,580.4,748.9,572.2z M711.6,658.1
	c3.8,0.1,5.5-1.3,5.1-5.4c-0.9-8.9-10.3-18-18.9-17.8c-1.4,0-2.5,0.5-3.5,1.6c-3.8,4.4-3.7,11.6,0.8,15.2
	C699.9,655.4,705.4,657.8,711.6,658.1z M701.5,365.4c-2.5-10.8-6.4-18.3-12.4-24.6c-2.3-2.4-5.1-3.2-8-1.3c-2.5,1.7-5,4.2-4.1,7.3
	c1.5,5.3,2.9,11.1,9.1,13.3C690.5,361.7,695.1,363.2,701.5,365.4z M729.7,656.9c0.6-0.2,1.3-0.3,1.9-0.6c6.1-3.9,12.3-7.8,18.4-11.9
	c2.8-1.9,4.8-4.6,6-7.8c1-2.5,2-5.3-0.4-7.4c-2-1.7-4.6-0.7-6.5,0.5c-9.1,5.8-15.4,14.4-21.2,23.3
	C727,654.4,727.7,656.3,729.7,656.9z M705.3,359.8c13.8-3.9,20.3-12.1,24.3-22.9c0.7-1.9,0.4-4-0.4-5.8c-1.2-2.8-3.1-3.6-5.3-1.2
	C716.4,338.2,709.6,347,705.3,359.8z M702.8,474.5c-0.6-7.3-12.2-19.7-19.5-20.5c-1-0.1-2-0.1-2.9,0.2c-3.2,0.7-4.7,2.6-3.1,5.8
	c4.5,9,12.5,14.2,21.4,18.1C701,479.1,703.2,477.9,702.8,474.5z M685.5,396c-5.9,0-9.3,3.5-7,7.7c4.1,7.6,10.1,13,19.1,14.4
	c3.8,0.6,5.1-1.1,3.7-4.5c-2.4-5.9-6.1-10.9-10.4-15.7C689.3,396.3,687.5,396,685.5,396z M711.9,474.8c0.6,0.6,1.2,1.1,1.8,1.7
	c3.4-1.1,6.9-2.1,10.2-3.5c6.2-2.6,9.8-7.7,11.9-13.9c0.7-2.2,0.8-4.8-1.3-6.4c-1.8-1.4-3.8-0.5-5.6,0.5
	C720.1,458.1,715.5,466.1,711.9,474.8z M706.8,538c-3.8-9.6-10.4-14.5-18.4-18c-2.3-1-5-3.2-7.2-0.8c-2.4,2.7-1.6,6.2,0.4,9.1
	c1.1,1.6,2.5,3.2,4.2,4.1C692,535.5,698.1,538.6,706.8,538z M710.1,593.5c-4.5-9.6-12.2-15-21-19c-2.9-1.3-4.1,0.9-3.4,3.9
	c1.1,4.9,4.1,8.5,8.2,10.9C698.5,592.1,703.1,596.2,710.1,593.5z M732.6,395.5c-9.2,2.2-15.1,7.9-18.8,18.2
	C725.3,413.3,733.2,405.7,732.6,395.5z"/>
<path class="st0" d="M72.8,73.6C67.6,66.8,60.5,62.7,55,57.1c-1.9-1.9-4.2-1.9-6.2,0c-1.9,1.8-3.7,3.8-5.6,5.7
	c-2.6,2.6-5.5,4.8-9.2,5.8c-5.5,1.5-13.2-1.7-15.6-6.4c-2.2-4.4-0.4-9.5,5.2-13.7c4.6-3.5,10-5.6,15.8-4.2c4.9,1.2,6.7-0.7,7.7-5
	c1.4-5.9,4.1-11.3,7.3-16.3c1.6-2.5,3.5-4.9,5.7-6.9c2.4-2.1,5-5,8.7-2.6c3.4,2.2,4.5,5.6,4,9.6c-0.9,6.9-5,12.3-8.8,17.7
	c-7.2,10.1-7.5,10,1.5,19.1c3.2,3.2,6.2,6.9,10.6,9c2.5-3,2-6.5,3-9.5c1.9-6.1,5.5-10.7,11.3-13.3c6.2-2.7,11.5,1.1,11.3,7.9
	c-0.1,6.1-3.9,10.5-7.6,14.7c-8.9,10-9,10-1.2,20.7c3.5,4.8,7.2,9.5,10.8,14.1c3.9-1.4,3.9-4.9,4.6-7.5c2-6.9,6.5-11.5,12.3-15.1
	c6.1-3.7,11.1-1.6,12.3,5.5c0.8,4.9,0.8,10-1.4,14.7c-2.7,5.7-4.8,11.7-9.3,16.4c-2.7,2.8-3.6,5.9-1.7,9.9
	c3.4,7.1,4.5,15.1,8.7,22.5c3.8-1.7,4.8-5,6.5-7.7c2.7-4.2,5.5-8.3,10.2-10.6c6.3-3,12.3-2.6,15.7,1.3c3.3,3.9,2.8,9.9-1.4,15.6
	c-4.3,5.7-9.9,10.1-15.9,13.5c-6.3,3.5-7.8,8.1-7.4,14.7c0.5,9.3,0.3,18.6,0.5,27.9c0,1.9,0.1,3.9,1.8,5.8c3.8-1.8,4.8-5.7,7-8.3
	c2.9-3.4,5.8-6.6,10.1-7.9c4.1-1.3,8.7-2.3,12,1.7c3.4,3.9,3.5,8.6,1.2,13.1c-2.9,5.8-7.7,10.3-13.1,13.5
	c-8.6,5.1-13.6,12.2-16.9,21.3c-3.5,9.7-9,18.4-15.3,27.3c5.3,0.9,9.2-1.5,13.4-2.1c2.9-0.4,5.8-1.4,8.7-2c4.6-0.9,9.5-1.9,12.6,3
	c2.2,3.5,0.1,10.2-4,14.5c-9.9,10.2-30.3,13.4-43.2,6.5c-2.4-1.3-3.7-1-5.1,0.6c-4.5,5.2-8.9,10.5-13.4,15.8c5,0,10.8,0.3,16.6-0.1
	c8-0.5,14.5,5.5,14.9,9.4c0.5,4.9-5.9,11.3-12.8,13.5c-5.6,1.8-11.4,2.6-16.7,0.4c-9.2-3.8-15.9-0.7-21.9,6c-2.7,3-5.4,5.9-8.2,8.7
	c-1.3,1.4-2.9,1.5-4.4,0.2c-1.5-1.3-1.8-3-0.7-4.4c2.3-2.8,4.9-5.5,7.4-8.2c5.5-5.9,5.7-6.6-0.7-11.5c-4.6-3.5-8.4-7.5-11.6-12.2
	c-1.7-2.6-2.6-5.3-2.9-8.3c-0.5-5,0.2-9.3,5.3-11.7c5.3-2.5,10.8-1.6,14.8,2.1c4.6,4.3,5.5,10.4,8.7,17.1
	c8.2-8.2,15.8-15.8,23.3-23.6c2.5-2.6,1.5-4.6-1.7-6c-5.2-2.3-10.3-4.8-15.3-7.4c-5.3-2.7-7.4-7.6-7.3-13.2c0.1-5.7,4.5-11.5,9.5-13
	c4.5-1.4,10.3,0.8,13.7,6c2.9,4.4,5.8,9,6.5,14.4c0.3,2.7,0.7,5.3,3.1,8.2c10-6.8,15.7-16.7,20.3-27.4c0.4-0.9,0.5-1.9,0.7-2.9
	c2.8-10,2.8-9.9-7.7-10.6c-6-0.4-11.9-1.5-17.6-3.3c-2.9-0.9-5.6-2.2-7.8-4.2c-3.4-3.1-5.2-7-3.7-11.6c1.5-4.4,5.3-5.6,9.5-6
	c7.7-0.8,14.3,2.4,20.7,6.1c1.9,1.1,3.8,3.4,6.2,1.8c2.8-1.8,1.6-4.6,1.2-7.3c-1.2-9.2-2.3-18.5-3.2-27.7c-0.5-4.7-2.4-6.4-7.2-5.2
	c-4.8,1.2-9.7,2.1-14.8,1.7c-3.7-0.3-7.2-1-10.6-2.6c-5-2.3-6.7-6.6-6.4-11.4c0.2-4.8,3.6-7.8,7.9-9.3c5.2-1.8,10.5-1.5,15.7,0.2
	c2.7,0.9,5.1,3.3,9.3,2.1c-0.6-9-4.8-16.8-8.8-24.7c-1-2-3.1-3.6-4.1-5.6c-1.8-3.5-3.7-3.8-7.1-1.8c-4.9,2.8-10.1,5-15.7,6.2
	c-3,0.7-5.9,0.9-8.9,0.1c-3.4-0.9-6.3-2-7.4-5.8c-1.2-4.3-0.4-8.1,2.9-10.9c4.6-3.9,9.8-6.8,16-7.3c1.9-0.2,4,0.5,5.5-1.4
	c0.3-3-2-4.9-3.6-6.8c-4.1-4.8-6.7-12.9-12.4-13.6c-5.8-0.7-7.8,8-11.7,12.3c-4,4.4-8.4,7.9-14.7,6.6c-3.7-0.8-7-2.9-7.3-7.2
	c-0.3-6.5,2.8-11.5,7.9-15.2c2.4-1.8,5.1-3.2,8.2-3.3C67.3,77.7,70.1,76.8,72.8,73.6z M80,321c8.2,3.6,15.8,5.8,23.8,6.1
	c4.4,0.2,8.6-1.1,12.2-3.8c4.6-3.5,4.2-7.2-1.1-9.8C104.8,308.6,90.4,311.4,80,321z M127.6,289.6c9.7,0.2,16.8-2.4,23-7.2
	c2.6-2,5.2-5.2,4-8.5c-1.5-4.1-5.8-2.6-8.7-1.9c-7.7,1.9-15.3,4.3-23,6.5c-2.7,0.8-6.8,0.2-6.5,4.5c0.2,3.9,3.6,5.3,7,6
	C125.3,289.4,127.3,289.6,127.6,289.6z M116.2,115.9c5.3-4.5,8.6-9.5,11.6-14.6c2.3-4.1,3.7-8.5,2.5-13.4c-1.1-4.6-3.4-5.8-7-3.3
	c-3.5,2.5-6.9,5.3-9.2,9.1c-2.9,4.9-3.8,10.7-4.4,16.2C109.5,112.4,113.3,114.2,116.2,115.9z M132.3,162.6
	c12-4.9,20.2-10.8,26.7-19.1c1.6-2.1,3-4.6,0.8-7.2c-2.2-2.7-4.9-3.2-8-1.7c-2.4,1.1-4.7,2.3-6.7,4.1
	C138.4,144.6,135.8,152.6,132.3,162.6z M140.5,225.9c6.3-2.4,10.7-5,14.7-8.3c3.8-3.1,8.2-5.7,10.7-10.2c1.4-2.5,1.9-5-0.2-7.3
	c-2-2.2-4.4-2.9-7.1-1.4c-1.7,0.9-3.8,1.6-5.1,3C147.3,208.2,144,216.3,140.5,225.9z M115,173.4c3.8,0.1,6.6-0.9,9.4-2
	c2.4-0.9,2.7-2.5,1.4-4.7c-3.7-6.1-16.5-10.6-23-8.1c-2.3,0.9-4.4,2-5,4.5c-0.6,3,1.3,5.1,3.5,6.6
	C105.7,172.7,110.8,172.8,115,173.4z M132.4,227.2c-6.3-8.2-13.4-14.7-24.5-14.3c-2,0.1-4.2,0.5-5.1,2.5c-1,2.4,0.3,4.6,2,6.2
	c1.4,1.4,3.2,2.6,5,3.2C116.9,227.4,124.3,228.6,132.4,227.2z M92.3,110.9c-5,0.6-9.1,3.3-12.3,7.2c-2.8,3.3-2.1,6.1,2,7.5
	c6.1,2.1,11.7-0.2,16.9-3.2c2-1.2,4.1-2.6,4-5.2c-0.1-2.6-2.5-3.7-4.6-4.6C96.5,111.7,94.5,111.5,92.3,110.9z M74.6,311.9
	c-1.1-6-2-12-7.1-16.1c-1.9-1.5-3.9-2.5-6.4-1.1c-2.3,1.3-3.4,3.6-2.8,5.9c1.6,5.8,3.7,11.5,9,15.1c1.6,1.1,3.2,2.8,5.3,1.5
	C74.5,316,74.4,313.8,74.6,311.9z M52.2,44.8c5.5-3.5,9.3-8.3,13.1-13.2c2.1-2.6,3.3-5.7,3.9-9c0.3-1.6,0.4-3.5-1.2-4.5
	c-1.6-0.9-3.2,0-4.5,1.1C56,25.9,52.4,34.4,52.2,44.8z M103.6,268c-1.5-4.8-1.6-10.7-6.4-14.6c-4.4-3.5-8-2.6-9.8,2.7
	c-1.2,3.7-0.9,7.1,2.4,9.8c2.9,2.3,5.9,4.2,9.3,5.5C101.6,272.2,103.7,271.9,103.6,268z M45.2,52c-7.7-4.6-13.9-2.4-19.5,2.4
	c-4,3.4-3.3,7.2,1.6,8.9c3.2,1.1,6.3,1,9.3-1.1C40.2,59.6,43.4,56.9,45.2,52z M74.6,81.5c-7.9,0.4-14,2.1-18.7,7.4
	c-2.1,2.3-3.8,5-1.6,7.9c2,2.5,4.9,1.3,7.3,0.1C67.7,94,72,89.2,74.6,81.5z M83.9,71.6c5.5-3.6,9.6-8.2,12.9-13.5
	c1-1.6,1.4-3.8,1.4-5.7c0-2.4-1.4-3.6-3.9-2.8C86.1,52.2,81.4,61.7,83.9,71.6z"/>
<path class="st0" d="M70.5,728c5.2-2.8,9.8-5.2,14.4-7.7c3.5-1.9,7.3-3.1,11-4.6c8.8-3.5,15.1,2.5,13,12
	c-1.8,8.4-7.8,13.8-14.5,18.3c-4.7,3.1-9.9,5.4-15.6,6.2c-4.9,0.7-7.2,3.2-7.7,8.6c-1.1,12.9-8.1,23-17.2,31.7
	c-1.9,1.8-3.8,3.8-7.6,4.3c0.8-5.7,4.4-9.6,6.9-13.9c3.7-6.4,7.1-12.7,8.6-20.1c1.8-9.3,1-11.7-7.4-15.9
	c-7.4-3.6-13.2-8.9-17.5-15.8c-2.3-3.6-1.3-5.3,3.1-5.6c4.8-0.3,9.2,1.1,13.3,3.5c2.5,1.5,4.8,3.2,8.5,5.7
	c0.6-10.4-0.2-19.4-2.3-28.3c-1.3-5.3-6-5.5-10.4-6c-10.3-1-17-6.8-21.3-15.8c-2.7-5.5-0.2-9.8,5.9-10.7c7.5-1.1,13.6,2.1,19.2,7.8
	c1.3-4.6-0.8-7.8-1-11.3c-0.3-5.3-3.1-9.1-7.9-11.9c-7.2-4.1-14.3-8.4-20.2-14.5c-2.3-2.4-4.6-4.8-5.7-8.1c-1.7-5,0.3-7.9,5.5-7.7
	c6.2,0.2,11.7,2.5,16.3,6.7c3.9,3.5,7.5,7.3,11.5,11.2c3.5-4.8,7.1-9.1,10-13.9c5.5-8.7,14.2-9.1,22.9-9.1c4.1,0,5.8,4.1,3.6,8.2
	c-2.4,4.4-5.8,8.1-9.7,11.3c-5.6,4.7-11.2,9.4-17,13.9c-2.3,1.8-4,3.5-3.1,6.6c1.7,5.7,1.7,11.8,4.7,17.9
	c5.8-4.3,10.6-9.3,16.6-12.6c2.3-1.3,4.5-2.8,7.4-2.3c6.7,1,9.6,6.4,6.5,12.4c-3.6,7-10.1,11.4-15.9,16.3c-1.8,1.5-3.7,2.8-5.8,3.9
	c-4.4,2.5-5.5,5.8-4.1,10.8C69.1,715.5,69.5,721.4,70.5,728z M103,718.2c-2.9-0.6-5.4,0.1-7.8,1.2c-10.8,4.7-20.4,10.6-26.8,21.4
	c-2.4,4.1-1,5.1,1.6,6.6c2.8,1.6,5.8,0.8,8.7,0c9-2.6,16-8.1,21.8-15.1C104,728.1,104.9,723.4,103,718.2z M84.3,627.1
	c-13.3-1.6-25.9,10.2-29.2,28.4C65.4,644.9,78.1,639.9,84.3,627.1z M65.5,696.1c9-5.2,16.2-12.3,22.9-20c1.3-1.5,2.1-3.6,0.4-5.4
	c-1.4-1.4-3.2-0.5-4.6,0.3c-7.3,4.3-13.5,9.7-17.7,17.2C65.3,690.3,63.3,692.6,65.5,696.1z M53.7,694.9c0-0.3,0.1-0.7,0-1
	c-3.8-6.2-7.2-12.7-14.8-15.1c-1.3-0.4-2.5-0.7-3.6,0.5c-1,1.2-0.8,2.4-0.4,3.7c1.6,5.5,10.5,13.2,15.9,13.7
	C52.3,696.8,53.6,696.7,53.7,694.9z M47.4,653.3c-6.2-11-13-17.8-23.3-20.5C28.6,642,36.7,647.4,47.4,653.3z"/>
</svg>
