<?xml version="1.0" encoding="utf-8"?>
<!-- Generator: Adobe Illustrator 22.1.0, SVG Export Plug-In . SVG Version: 6.00 Build 0)  -->
<svg version="1.1" id="Layer_1" xmlns="http://www.w3.org/2000/svg" xmlns:xlink="http://www.w3.org/1999/xlink" x="0px" y="0px"
	 viewBox="0 0 1600 800" style="enable-background:new 0 0 1600 800;" xml:space="preserve">
<style type="text/css">
	.st0{fill:#45ECFF;}
	.st1{fill:#B2EFFF;}
	.st2{fill:#FFFFFF;}
	.st3{fill:#66EFFF;}
</style>
<rect x="-97.7" y="-116.2" class="st0" width="1804.6" height="987.1"/>
<g>
	<path class="st1" d="M1435.1,212c2-10.2,3.9-19.5,5.7-28.8c1.8-9.2,5.1-18.2,5.6-27.5c-4.9-2.3-5.8,0.9-6.5,3.6
		c-1.5,5.6-4.9,9.9-9.5,13.1c-1.9,1.3-5.1,2.1-7.1,1.4c-1.5-0.5-2.7-3.9-2.7-6c0.2-4,1.3-7.9,2.2-11.9c0.6-2.5,1.9-4.9,2.6-7.4
		c0.6-2.3-0.6-3.6-3.6-3.4c-1.5,3.5-3.2,7.2-4.4,11c-1.1,3.4-2.2,6.9-2.3,10.4c-0.3,10.6,7.6,15.1,16.8,10c1.8-1,3.5-2.3,5.8-4
		c0,1.9,0.2,3.1,0,4.1c-2.1,10.7-4.5,21.5-6.5,32.2c-0.7,4.1-2.6,5.8-6.7,7.1c-7.2,2.3-14.8,3.8-20.8,9.2c-7.4,6.6-9,14.8-3.6,22.9
		c5.3,8,16,8.3,21.5,0.4c1.9-2.7,3.6-5.7,4.7-8.8c2.2-6,3.9-12.3,6-18.4c0.6-1.7,1.7-4.1,3-4.4c8.8-2.2,17.4-5.7,26.6-4.6
		c3.3,0.4,6.3,2.4,10.5,4c-1.7-4.7-4.5-6.6-8.2-6.6c-5.7-0.1-11.4,0.2-17.1,0.7C1443.2,210.7,1439.3,211.4,1435.1,212z"/>
	<path class="st1" d="M1318.9,78c-0.5-0.1-1.1-0.2-1.6-0.3c0.6-9.6,1-19.2,1.9-28.8c0.4-5,1.7-9.9,2.2-14.8c0.1-1.3-0.6-3.7-1.5-4
		c-2.6-0.7-2.8,1.6-3.2,3.5c-3.2,18.2-3.4,36.6-2.8,55c0.1,2.5,0.1,5.5,4.4,6.4c0.6-1.5,1.3-3.1,1.9-4.8c3.2-10.5,6.3-21,9.7-31.4
		c1.1-3.5,2.7-7,7.1-8.8c0.6,2.3,1.3,4,1.5,5.9c1.1,11.2,2,22.3,2.9,33.5c0.3,3.5,0.3,7.1,2.9,10.3c1-0.7,2.1-1,2.4-1.7
		c8.1-17.8,14.1-36.4,18.5-55.5c0.4-1.7,0.1-3.7,0.1-5.4c-3.7-0.9-3.6,1.6-4.2,3.6c-4.2,13.7-8.4,27.4-12.7,41
		c-0.5,1.6-1.7,3-2.5,4.4c-1.7-8.1-2.1-15.9-2.8-23.7c-0.3-3.8-0.6-7.7-1.6-11.3c-1.9-6.7-7.9-6.6-11.1-1.7
		c-3.1,4.7-5.4,10-7.6,15.2C1321.3,68.9,1320.3,73.5,1318.9,78z"/>
	<path class="st1" d="M1308.3,42.9c-5.7-2.8-6.4,7.2-12,4.7c-0.2-1.8-0.4-3.7-0.7-5.6c-0.9-6.3-4.2-9.5-10.8-10.5
		c-7.7-1.1-12.2,0.9-14.7,6.9c-2,4.8-4,9.7-5.8,14.6c-2.9,7.7-4.1,15.7-3.1,23.9c0.8,6.6,3.4,12.2,9.1,16.3c3.5,2.6,6.7,2.6,9.9,0.4
		c2.1-1.4,4.2-3.5,5.1-5.8c3.3-8.2,6.9-16.3,8.7-24.9c1.3-6.4,3.6-10.9,9.2-14.1C1305.3,47.8,1308.8,46.9,1308.3,42.9z"/>
	<path class="st1" d="M1261.1,141.1c-6.6,18.2-13.9,54.6-12.2,61.1c3.2,0.6,3.3-1.7,3.7-3.9c2.3-12.7,4.7-25.3,7.2-38
		c0.4-1.9,1.2-3.7,1.8-5.6c3.9,14,4,28.9,13.9,40.9c9.9-19.5,13-40.7,19.1-62.8c-2.7,1.4-4.4,1.6-4.9,2.5c-1.1,2.3-1.9,4.9-2.5,7.4
		c-2.5,10.4-4.9,20.9-7.5,31.3c-1.2,4.5-2.9,8.8-4.4,13.3c-0.6,0-1.1,0-1.7,0c-1.3-4.7-3-9.4-3.8-14.2c-1.5-8.9-2.6-17.9-3.8-26.9
		C1265.6,143.2,1264.9,140.7,1261.1,141.1z"/>
	<path class="st1" d="M1326.1,198.3c0.6-0.2,1.1-0.5,1.7-0.7c3-8.9,6-17.9,9.5-28.2c2.9,6.4,5.1,11.5,7.6,16.6
		c2.5,5.2,3.8,11.3,9.4,14.4c2.3-1.5,2.8-2.8,1.2-4.9c-1.7-2.3-3.5-4.6-4.6-7.1c-2.7-6.1-5.2-12.3-7.6-18.6
		c-0.5-1.2-0.4-2.7-0.5-4.4c2.1-1,4.1-1.7,5.9-2.7c7-3.7,12-12.3,11.2-19.5c-0.7-6.3-5.3-8.6-10.5-5.2c-5.4,3.6-8.6,8.9-10.7,14.9
		c-3.9,11-7.6,22.1-11.4,33.2c-1,2.9-2.2,5.8-2.8,8.8C1324.3,195.9,1325.6,197.1,1326.1,198.3z"/>
	<path class="st1" d="M1213.4,204c-1.4-8.3,0.1-15.6,0.8-22.9c0.1-1,2.2-2.3,3.6-2.7c2.5-0.6,5.2-0.4,7.8-0.8
		c1.5-0.2,2.8-0.9,4.9-1.6c-4.9-4.7-10.3-1.3-15.3-2.5c0.9-5.4,1.9-10.5,2.4-15.7c0.4-3.9,2.6-5.3,5.9-6c5.4-1.1,10.8-2.1,16.1-3.3
		c1.4-0.3,2.7-1.3,5.5-2.7c-2.8-1.1-4.2-2.3-5.4-2.1c-8,1.5-15.9,3.2-23.9,4.9c-2.5,0.5-3.4,1.9-3.1,4.7c0.3,2.5-0.1,5.2-0.4,7.8
		c-1.3,10.6-2.9,21.2-4.1,31.9c-0.5,4.9-1.2,10,2.1,15.2c12.8-0.3,20.1-9.8,28.7-17.2C1229.9,193.2,1224.4,202.5,1213.4,204z"/>
	<path class="st1" d="M1393.5,144.1c-5.4-2.4-8.9,0-12,3c-11.5,11.1-16.4,24.9-16.2,40.7c0.1,5.1,3.2,9.4,7.2,10.6
		c5,1.4,9-0.8,12-4.4c1.4-1.7,2-4.2,2.5-6.5c0.5-2.3,0.4-4.7,0.6-7.4c5.3-0.6,10.3-1.2,15.2-1.7c-0.8-1.9-1.7-3.1-2.6-3.1
		c-6.3,0.1-12.6,0.4-18.4,0.6c0,5.3,0.5,9.8-0.2,14.1c-0.6,3.6-3.7,5.4-6.7,5c-3.4-0.5-5.1-2.7-5-6c0.1-4.7-0.1-9.7,1.2-14.1
		c3.7-11.7,8.3-23,21-28.2C1392.7,146.5,1392.8,145.5,1393.5,144.1z"/>
	<path class="st1" d="M1303.2,161.2c6.4,1.3,11.9,2.4,17.5,3.6c-4-6.6-11.1-5.5-16.5-8.1c0.6-9.1,1.4-10,9.9-10.7
		c1.7-0.1,3.3,0.2,5,0c1.2-0.1,2.3-0.8,4-1.4c-6.5-3.2-10.9-3-22.3,0.3c-1.8,10.9-3.6,21.6-5.4,32.3c-0.9,5.2-1.8,10.3-2.9,15.4
		c-1.1,5.2,2.1,8.8,8.2,6.9c6.1-1.9,11.4-5.4,16-12.1c-7.2,2.2-11.1,8.8-19.4,7.8C1298,183.9,1301.3,173.4,1303.2,161.2z"/>
	<path class="st1" d="M1230.6,95.5c0.3-5.3,0.3-10,0.9-14.6c1.1-10.2,2.3-20.4,3.8-30.6c0.5-3.5,1.9-6.8,3.1-10.8
		c-1.6-0.8-3.7-1.9-6.7-3.4c-0.2,4.3-0.3,7.3-0.6,10.3c-1.5,17.4-3.1,34.7-4.5,52.1c-0.1,1.6,1,3.3,1.5,4.9c1.4-0.7,2.8-1.3,4.1-2.1
		c2.4-1.5,4.4-3.5,6.9-4.6c3.7-1.7,7.6-2.8,11.4-4.1c2-0.7,2.6-1.9,0.7-4.4C1244.7,90.5,1238.1,92.9,1230.6,95.5z"/>
	<path class="st1" d="M1435.1,212c4.3-0.6,8.2-1.4,12.1-1.7c5.7-0.4,11.4-0.8,17.1-0.7c3.7,0,6.5,1.9,8.2,6.6
		c-4.2-1.7-7.3-3.6-10.5-4c-9.2-1.2-17.9,2.4-26.6,4.6c-1.3,0.3-2.4,2.8-3,4.4c-2.1,6.1-3.8,12.3-6,18.4c-1.1,3.1-2.8,6.1-4.7,8.8
		c-5.5,7.9-16.2,7.6-21.5-0.4c-5.4-8.1-3.8-16.3,3.6-22.9c6-5.4,13.6-6.9,20.8-9.2c4-1.3,5.9-3.1,6.7-7.1c2-10.8,4.3-21.5,6.5-32.2
		c0.2-1.1,0-2.3,0-4.1c-2.4,1.6-4,2.9-5.8,4c-9.2,5.2-17,0.6-16.8-10c0.1-3.5,1.2-7,2.3-10.4c1.2-3.8,3-7.4,4.4-11
		c3-0.1,4.2,1.1,3.6,3.4c-0.7,2.5-2,4.9-2.6,7.4c-1,3.9-2.1,7.9-2.2,11.9c-0.1,2.1,1.2,5.5,2.7,6c2,0.7,5.2-0.1,7.1-1.4
		c4.6-3.1,7.9-7.5,9.5-13.1c0.7-2.7,1.6-5.9,6.5-3.6c-0.4,9.3-3.8,18.3-5.6,27.5C1438.9,192.5,1437.1,201.8,1435.1,212z
		 M1428.2,219.6c-12.6,2.8-17.1,5.3-22.9,10.5c-5.8,5.2-3.9,13.8,0.3,18c3.4,3.4,8.5,3.2,11.3-0.6
		C1422.9,239.5,1425.7,230.3,1428.2,219.6z"/>
	<path class="st1" d="M1318.9,78c1.3-4.4,2.3-9,4.1-13.3c2.1-5.2,4.4-10.6,7.6-15.2c3.3-4.9,9.2-5,11.1,1.7c1,3.6,1.3,7.5,1.6,11.3
		c0.6,7.8,1,15.5,2.8,23.7c0.9-1.5,2.1-2.8,2.5-4.4c4.3-13.6,8.5-27.3,12.7-41c0.6-2,0.5-4.6,4.2-3.6c0,1.8,0.4,3.7-0.1,5.4
		c-4.5,19.1-10.4,37.6-18.5,55.5c-0.3,0.7-1.4,1-2.4,1.7c-2.6-3.2-2.6-6.8-2.9-10.3c-1-11.2-1.9-22.4-2.9-33.5
		c-0.2-1.8-0.9-3.6-1.5-5.9c-4.5,1.8-6,5.3-7.1,8.8c-3.4,10.4-6.5,21-9.7,31.4c-0.5,1.7-1.3,3.3-1.9,4.8c-4.4-0.9-4.3-3.9-4.4-6.4
		c-0.6-18.4-0.4-36.8,2.8-55c0.3-2,0.6-4.2,3.2-3.5c0.8,0.2,1.6,2.6,1.5,4c-0.5,5-1.8,9.9-2.2,14.8c-0.8,9.6-1.3,19.2-1.9,28.8
		C1317.9,77.8,1318.4,77.9,1318.9,78z"/>
	<path class="st1" d="M1308.3,42.9c0.4,4-3,4.9-5.2,6.1c-5.6,3.3-7.8,7.8-9.2,14.1c-1.8,8.5-5.4,16.7-8.7,24.9
		c-0.9,2.3-3,4.4-5.1,5.8c-3.2,2.1-6.4,2.2-9.9-0.4c-5.6-4.2-8.3-9.7-9.1-16.3c-1-8.2,0.2-16.2,3.1-23.9c1.8-4.9,3.8-9.8,5.8-14.6
		c2.5-6,7-8,14.7-6.9c6.6,0.9,9.9,4.1,10.8,10.5c0.3,1.9,0.5,3.8,0.7,5.6C1302,50.1,1302.6,40.1,1308.3,42.9z M1291,57.7
		c-4.4-0.5-8.5-0.1-11.8-1.5c-3.1-1.4-5.3-4.7-7.9-7.2c-4.8,8.7-7.1,17.9-6.1,26.7c0.4,3.4,1.5,7.1,3.3,10c4.4,7.4,10.4,7,14.4-0.8
		C1287.2,76.3,1290.2,67.4,1291,57.7z M1292.1,51.9c-0.5-4.3-0.4-8.3-1.4-12c-1.1-4.2-4.8-5.5-9.8-4.4c-4.2,1-5.6,3.2-5.1,7.9
		C1276.6,51.3,1281.2,54,1292.1,51.9z"/>
	<path class="st1" d="M1261.1,141.1c3.8-0.3,4.5,2.1,4.9,5.3c1.1,9,2.2,18,3.8,26.9c0.8,4.8,2.5,9.5,3.8,14.2c0.6,0,1.1,0,1.7,0
		c1.5-4.4,3.3-8.8,4.4-13.3c2.7-10.4,5-20.9,7.5-31.3c0.6-2.5,1.4-5.1,2.5-7.4c0.4-0.9,2.1-1.2,4.9-2.5
		c-6.1,22.1-9.2,43.3-19.1,62.8c-9.9-12.1-10-26.9-13.9-40.9c-0.6,1.9-1.4,3.7-1.8,5.6c-2.4,12.6-4.8,25.3-7.2,38
		c-0.4,2.2-0.4,4.5-3.7,3.9C1247.2,195.6,1254.5,159.3,1261.1,141.1z"/>
	<path class="st1" d="M1326.1,198.3c-0.6-1.1-1.8-2.4-1.6-3.4c0.6-3,1.8-5.9,2.8-8.8c3.8-11.1,7.5-22.2,11.4-33.2
		c2.1-6,5.3-11.3,10.7-14.9c5.2-3.5,9.9-1.1,10.5,5.2c0.8,7.2-4.2,15.8-11.2,19.5c-1.9,1-3.8,1.8-5.9,2.7c0.2,1.7,0.1,3.2,0.5,4.4
		c2.4,6.2,4.8,12.5,7.6,18.6c1.1,2.6,2.9,4.9,4.6,7.1c1.5,2.1,1.1,3.4-1.2,4.9c-5.6-3.1-6.9-9.2-9.4-14.4c-2.5-5-4.7-10.2-7.6-16.6
		c-3.5,10.3-6.5,19.2-9.5,28.2C1327.3,197.8,1326.7,198,1326.1,198.3z M1340.5,160.2c12.5-3.2,17.7-12,13.3-21
		C1346.2,143.9,1343,151,1340.5,160.2z"/>
	<path class="st1" d="M1213.4,204c10.9-1.5,16.5-10.8,25.7-13c-8.6,7.4-15.9,16.9-28.7,17.2c-3.3-5.2-2.6-10.3-2.1-15.2
		c1.2-10.6,2.8-21.2,4.1-31.9c0.3-2.6,0.7-5.2,0.4-7.8c-0.4-2.8,0.6-4.1,3.1-4.7c7.9-1.7,15.9-3.4,23.9-4.9c1.2-0.2,2.7,1,5.4,2.1
		c-2.7,1.4-4,2.4-5.5,2.7c-5.4,1.2-10.8,2.2-16.1,3.3c-3.3,0.7-5.6,2.1-5.9,6c-0.5,5.2-1.5,10.2-2.4,15.7c5,1.3,10.3-2.2,15.3,2.5
		c-2.1,0.7-3.5,1.4-4.9,1.6c-2.6,0.4-5.3,0.2-7.8,0.8c-1.4,0.3-3.5,1.6-3.6,2.7C1213.5,188.4,1212,195.7,1213.4,204z"/>
	<path class="st1" d="M1393.5,144.1c-0.7,1.4-0.8,2.4-1.3,2.6c-12.7,5.2-17.4,16.5-21,28.2c-1.4,4.4-1.1,9.4-1.2,14.1
		c-0.1,3.2,1.7,5.4,5,6c3.1,0.5,6.2-1.3,6.7-5c0.7-4.3,0.2-8.8,0.2-14.1c5.8-0.2,12.1-0.5,18.4-0.6c0.9,0,1.8,1.1,2.6,3.1
		c-5,0.6-9.9,1.1-15.2,1.7c-0.2,2.7-0.1,5.1-0.6,7.4c-0.5,2.3-1.1,4.8-2.5,6.5c-3,3.6-7,5.8-12,4.4c-3.9-1.1-7.1-5.5-7.2-10.6
		c-0.2-15.8,4.7-29.6,16.2-40.7C1384.6,144.2,1388.1,141.8,1393.5,144.1z"/>
	<path class="st1" d="M1303.2,161.2c-1.9,12.1-5.3,22.7-5.9,33.9c8.2,1.1,12.1-5.6,19.4-7.8c-4.6,6.7-9.9,10.2-16,12.1
		c-6.1,1.9-9.3-1.6-8.2-6.9c1.1-5.1,2-10.3,2.9-15.4c1.8-10.7,3.6-21.4,5.4-32.3c11.4-3.3,15.8-3.4,22.3-0.3c-1.7,0.6-2.8,1.3-4,1.4
		c-1.6,0.2-3.3-0.2-5,0c-8.5,0.7-9.3,1.5-9.9,10.7c5.3,2.7,12.5,1.5,16.5,8.1C1315.1,163.7,1309.6,162.5,1303.2,161.2z"/>
	<path class="st1" d="M1230.6,95.5c7.5-2.7,14.1-5,20.6-7.3c1.9,2.4,1.2,3.6-0.7,4.4c-3.8,1.4-7.7,2.5-11.4,4.1
		c-2.5,1.1-4.6,3.1-6.9,4.6c-1.3,0.8-2.7,1.4-4.1,2.1c-0.5-1.6-1.6-3.3-1.5-4.9c1.4-17.4,3-34.8,4.5-52.1c0.3-3,0.3-6,0.6-10.3
		c3,1.6,5.2,2.6,6.7,3.4c-1.2,4-2.6,7.4-3.1,10.8c-1.5,10.2-2.7,20.4-3.8,30.6C1231,85.6,1230.9,90.3,1230.6,95.5z"/>
	<path class="st0" d="M1428.2,219.6c-2.4,10.6-5.3,19.9-11.3,27.9c-2.8,3.8-8,4-11.3,0.6c-4.2-4.2-6.1-12.8-0.3-18
		C1411,224.9,1415.6,222.5,1428.2,219.6z"/>
	<path class="st0" d="M1291,57.7c-0.8,9.7-3.8,18.7-8.2,27.2c-4,7.8-9.9,8.1-14.4,0.8c-1.8-2.9-2.9-6.6-3.3-10
		c-1-8.8,1.3-17.9,6.1-26.7c2.6,2.5,4.8,5.8,7.9,7.2C1282.5,57.6,1286.6,57.2,1291,57.7z"/>
	<path class="st0" d="M1292.1,51.9c-10.9,2.1-15.6-0.7-16.4-8.5c-0.5-4.7,0.9-6.9,5.1-7.9c5-1.1,8.7,0.2,9.8,4.4
		C1291.7,43.6,1291.7,47.7,1292.1,51.9z"/>
	<path class="st1" d="M1340.5,160.2c2.5-9.1,5.7-16.3,13.3-21C1358.2,148.2,1353,156.9,1340.5,160.2z"/>
</g>
<g>
	<path class="st2" d="M152,238.7c6.4-5.1,12.7-9.4,18.1-14.6c9.6-9.2,19.2-18.5,31.2-24.5c1.5-0.7,2.9-1.7,4.1-2.8
		c10.5-9.7,21.1-19.2,31.4-29.2c21.3-20.7,40.8-42.9,56-68.7c7.9-13.4,12.1-27,8.8-42.8c-3.4-16.4-10.9-30.1-24.6-39.7
		c-23.2-16.2-48.6-15.6-73.3-5.2c-17.9,7.5-32.7,20.4-43,37.5c-2.3,3.8-4.6,7.4-9.5,7.1c-8.6-8.9-16.5-17.8-25.3-26
		c-16-15-34.7-24-57-21.4C48,10.7,29.6,20,13.4,33.4c-2.2,1.8-3.9,4.7-4.6,7.5c-2.4,8.6-5.4,17.3-5.9,26.2
		C1.5,87.7,4,107.9,18,124.5c8.4,9.9,17,19.7,26.4,28.5c10.4,9.7,21.6,18.7,33,27.3c14.3,10.8,29.1,21,43.9,31.2
		C132.1,219,143.1,226,152,238.7z"/>
	<path class="st1" d="M152,238.7c-8.9-12.6-20-19.6-30.7-27c-14.8-10.2-29.5-20.4-43.9-31.2c-11.4-8.6-22.6-17.6-33-27.3
		c-9.4-8.8-18.1-18.6-26.4-28.5C4,107.9,1.5,87.7,2.9,67.1c0.6-8.8,3.6-17.5,5.9-26.2c0.7-2.7,2.5-5.7,4.6-7.5
		C29.6,20,48,10.7,69,8.3c22.3-2.5,41.1,6.5,57,21.4c8.7,8.2,16.7,17.1,25.3,26c5,0.3,7.2-3.3,9.5-7.1c10.3-17.1,25.1-30,43-37.5
		c24.7-10.3,50.1-11,73.3,5.2c13.7,9.6,21.2,23.2,24.6,39.7c3.3,15.8-0.9,29.4-8.8,42.8c-15.2,25.7-34.7,47.9-56,68.7
		c-10.2,10-20.9,19.5-31.4,29.2c-1.2,1.1-2.6,2.1-4.1,2.8c-12.1,6.1-21.6,15.3-31.2,24.5C164.7,229.2,158.4,233.5,152,238.7z
		 M152.5,63.3c-11.8-12-22.2-23.7-33.8-34.1C102,14.4,81.9,10.4,60.8,16.7c-12.3,3.6-23.7,10.2-35.4,15.7c-7.1,3.3-11,9.5-13,16.8
		c-1.4,5.1-3.1,10.3-3.7,15.5c-2.1,18.9-1.5,37.5,11,53.2c8.9,11.2,17.8,22.6,28.1,32.4c22.5,21.4,47.8,39.2,73.9,55.9
		c10.5,6.7,20.9,13.6,31.2,22.9c4.7-3.5,10.3-6.6,14.6-10.9c9.3-9.2,19.4-17.1,30.6-23.8c7.4-4.4,14.7-9.5,20.6-15.7
		c18.9-20.1,37.7-40.4,55.5-61.5c7.8-9.3,13.6-20.4,19.5-31.2c11.3-20.9,0-52.1-16.6-64.8c-17.6-13.4-37.4-14.1-57.2-10.1
		c-25.9,5.2-44.2,22.1-57.5,44.3C159.7,59.8,157.4,63.2,152.5,63.3z"/>
	<path class="st0" d="M152.5,63.3c4.9-0.1,7.2-3.5,9.8-7.8c13.4-22.2,31.7-39.1,57.5-44.3c19.8-4,39.6-3.3,57.2,10.1
		c16.6,12.6,27.9,43.9,16.6,64.8c-5.8,10.8-11.6,21.9-19.5,31.2c-17.8,21.1-36.5,41.4-55.5,61.5c-5.8,6.2-13.2,11.3-20.6,15.7
		c-11.2,6.7-21.4,14.6-30.6,23.8c-4.4,4.3-9.9,7.5-14.6,10.9c-10.3-9.3-20.7-16.2-31.2-22.9c-26.1-16.7-51.4-34.5-73.9-55.9
		c-10.3-9.8-19.2-21.2-28.1-32.4C7.1,102.2,6.5,83.6,8.7,64.7c0.6-5.2,2.2-10.4,3.7-15.5c2-7.3,5.9-13.5,13-16.8
		c11.7-5.5,23.1-12.1,35.4-15.7c21.1-6.2,41.2-2.3,57.9,12.6C130.3,39.6,140.7,51.3,152.5,63.3z M179.1,114.5
		c9.1,5,11.6,15.8,20.5,22.4c2.5-6.7-2.6-9-4.8-12.3c-2.5-3.7-5.2-7.3-8.3-11.6c2.6-0.7,4-0.8,5.1-1.4c3.1-1.7,8.4-3.6,8.4-5.4
		c0-3.4-3.1-6.8-5-10.1c-0.3-0.5-1-0.9-1.5-1.3c-7.1-5.3-13-4.4-15.5,3.9c-3.2,10.7-4.7,21.9-6.8,33c-0.1,0.7,1.4,1.8,2.5,3
		C179.9,128.9,174.8,121.3,179.1,114.5z M56.4,117.7c-3.4-5-6.9-9.9-10.4-15c12.5-5.7,14-5,17.9,6.1c1.3,3.7,1,8.7,7.9,11.3
		c-3.9-13.2-7.2-25-10.9-36.6c-0.8-2.4-3.2-4.2-4.9-6.3c-0.6,0.4-1.3,0.7-1.9,1.1c1.3,4.5,2.6,8.9,4,13.4c-13.3,4.6-14.7,4-17.1-7.6
		c-0.6-2.8-0.8-5.9-5-5.8C37.1,98.2,45.5,115.8,56.4,117.7z M90.3,96.4c-1.8-5.1,0.4-7,4.8-7.8c2.6-0.4,6.2,0.8,7.3-3.3
		c-8.9-3.3-9.3-3.4-16.4-1.6c-2.7,10.1-1.9,20.4,0.5,30.4c0.9,3.9,2.5,9.2,7.7,9.3c4.5,0.1,9.5-0.8,13.2-6.3
		c-5.4,0-9.9,1.2-13.3-0.3C90,115,89.8,110,90,104.5c5.1-1.2,10.1-2.4,15.6-3.7C102.4,93.1,95.9,97.5,90.3,96.4z M264.9,84.3
		c-0.1-0.9-0.1-1.8-0.2-2.8c-2.3-0.4-4.7-1.3-7-1.1c-6.9,0.4-13.9,1.2-20.8,1.9c-4.3,0.5-8.6,0.8-12.8,1.9c-1.5,0.4-2.5,2.6-4.8,5.2
		c8.2,0,14.2,0,21,0c-0.8,12-1.6,23.3-2.4,34.8c5.3-0.2,4.8-3.1,5-5.7c0.7-7.6,1.7-15.2,2.2-22.8c0.4-5.3,2.9-7.5,8.1-8.2
		C257.2,87,261,85.4,264.9,84.3z M144.4,90.5c-6.2,4.7-12.2,9.2-18.7,14.1c3,5.2-7.3,8.4-2.8,16.3c3.3-4.5,5.8-8.1,8.2-11.4
		c9.5,1.6,9.5,1.6,10.6,10c0.4,3-0.3,6.8,5.5,6.7c-0.4-6.2-0.1-12.1-1.2-17.8C145,102.5,150.5,96.1,144.4,90.5z"/>
	<path class="st1" d="M179.1,114.5c-4.4,6.8,0.7,14.4-5.3,20.2c-1.1-1.2-2.6-2.3-2.5-3c2-11,3.5-22.3,6.8-33
		c2.5-8.3,8.4-9.2,15.5-3.9c0.5,0.4,1.2,0.7,1.5,1.3c1.9,3.3,5,6.7,5,10.1c0,1.8-5.4,3.7-8.4,5.4c-1.1,0.6-2.5,0.7-5.1,1.4
		c3.1,4.3,5.8,7.9,8.3,11.6c2.2,3.3,7.3,5.6,4.8,12.3C190.8,130.3,188.2,119.6,179.1,114.5z M194.4,102.1c-3.3-3.8-6.8-4.9-10.9-3.6
		c-1,0.3-2.1,1.8-2.2,2.8c-0.1,1,0.8,2.7,1.7,3.1C186.7,105.8,190.6,107.1,194.4,102.1z"/>
	<path class="st1" d="M56.4,117.7c-10.9-1.9-19.2-19.5-20.4-39.4c4.2-0.1,4.4,3,5,5.8c2.4,11.6,3.7,12.2,17.1,7.6
		c-1.3-4.4-2.6-8.9-4-13.4c0.6-0.4,1.3-0.7,1.9-1.1c1.7,2.1,4.2,3.9,4.9,6.3c3.7,11.6,7,23.4,10.9,36.6c-6.9-2.5-6.6-7.5-7.9-11.3
		C60,97.7,58.5,96.9,46,102.7C49.5,107.8,52.9,112.7,56.4,117.7z"/>
	<path class="st1" d="M90.3,96.4c5.6,1.1,12.1-3.3,15.3,4.4c-5.5,1.3-10.5,2.5-15.6,3.7c-0.2,5.5,0,10.5,4.1,12.4
		c3.3,1.5,7.9,0.3,13.3,0.3c-3.7,5.5-8.7,6.4-13.2,6.3c-5.2-0.1-6.8-5.4-7.7-9.3c-2.4-10-3.2-20.3-0.5-30.4
		c7.1-1.8,7.6-1.8,16.4,1.6c-1.1,4.1-4.7,2.8-7.3,3.3C90.7,89.3,88.5,91.2,90.3,96.4z"/>
	<path class="st1" d="M264.9,84.3c-3.9,1.1-7.6,2.7-11.6,3.2c-5.1,0.7-7.7,2.9-8.1,8.2c-0.5,7.6-1.5,15.2-2.2,22.8
		c-0.2,2.6,0.3,5.5-5,5.7c0.8-11.5,1.6-22.8,2.4-34.8c-6.8,0-12.9,0-21,0c2.3-2.6,3.3-4.8,4.8-5.2c4.2-1,8.5-1.4,12.8-1.9
		c6.9-0.7,13.8-1.5,20.8-1.9c2.3-0.1,4.7,0.7,7,1.1C264.7,82.4,264.8,83.3,264.9,84.3z"/>
	<path class="st1" d="M144.4,90.5c6.1,5.6,0.6,12.1,1.7,17.9c1,5.7,0.8,11.6,1.2,17.8c-5.8,0.1-5.1-3.7-5.5-6.7
		c-1.1-8.4-1.1-8.4-10.6-10c-2.4,3.3-5,6.9-8.2,11.4c-4.5-7.9,5.9-11.1,2.8-16.3C132.2,99.6,138.2,95.1,144.4,90.5z"/>
</g>
<g>
	<path class="st2" d="M346.6,556.3c-1,4.8-1.9,7.7-2.2,10.6c-0.8,8.3-1.4,16.6-2.1,24.8c-1.9,21.8-4,43.7-5.9,65.5
		c-0.6,7.4-2.9,15.1,1.7,22.8c18.8-0.7,36.3-7.8,54.7-10.6c4-13.1-2.5-25.7,1-39.4c-8.8,0.8-16.3,1.5-23.8,2.3
		c-5.8,0.5-5.8,0.5-5-6.5c7-1.5,14-3,21.4-4.6c-1.4-10.8,1.4-21.8-5.4-31c-4.9,0.6-9.4,1.2-14.4,1.8c0-3.2,0-5.3,0-7.6
		c11.9,1.2,23.2,2.8,34.4-1c-0.9-10.8,1.3-21-4.9-30.2C379.5,554.2,363.4,555.2,346.6,556.3z"/>
	<path class="st2" d="M84.6,734.6c5.6,2.7,9.9,1.3,14.3-0.3c15.4-5.9,27.3-17.4,41.2-25.6c11.7-7,17.8-17.5,21-30.2
		c3.8-15,5.6-30.1-0.5-44.9c-6.4-15.6-16.9-28.2-33.8-30.9c-14-2.3-29.3-3.3-42.2,6.5C84.6,650.8,84.6,692.8,84.6,734.6z"/>
	<path class="st2" d="M169.9,641.2c0.6,5.2,1.1,11.5,2.2,17.7c1,5.9,2.3,11.8,4.1,17.4c3.2,10.2,17.8,21.7,28.1,20.9
		c9.2-0.7,18.2-3.3,25.7-9.6c11.7-9.8,18.8-22.5,23.1-36.6c2-6.7,1.9-14.4,1.6-21.5c-0.5-12.6-7-22.9-14.8-32
		c-6.5-7.6-14.5-13.4-25.4-14c-10.3-0.6-19.5,3.6-28.9,6.6c-1.5,0.5-2.8,2.6-3.7,4.2C174,608.5,171,624,169.9,641.2z"/>
	<path class="st2" d="M297.8,640.4c2-0.4,3.2-0.7,4.4-0.8c19.4-2,35.7-23.8,31.9-45.5c-1.9-10.6-7.6-18.1-17.8-22.2
		c-11.2-4.5-22.6-4.6-34.2-2.2c-11.3,2.3-13.9,5-13.8,16.5c0.2,14.2,0.8,28.4,1,42.6c0.1,6.5-0.5,13.1-0.8,19.6
		c-0.5,10.1-1,20.2-1.5,31.7c11.7-1,22-1.8,32.3-2.7C298.8,664.4,298.3,652.5,297.8,640.4z"/>
	<path class="st1" d="M346.6,556.3c16.8-1.1,32.9-2.1,49.4-3.1c6.2,9.2,4,19.4,4.9,30.2c-11.2,3.8-22.5,2.3-34.4,1
		c0,2.3,0,4.4,0,7.6c5.1-0.6,9.5-1.2,14.4-1.8c6.8,9.2,4,20.2,5.4,31c-7.4,1.6-14.4,3.1-21.4,4.6c-0.8,7.1-0.8,7.1,5,6.5
		c7.5-0.7,15-1.4,23.8-2.3c-3.5,13.7,3,26.3-1,39.4c-18.5,2.8-35.9,9.9-54.7,10.6c-4.6-7.7-2.3-15.4-1.7-22.8
		c1.9-21.8,3.9-43.7,5.9-65.5c0.7-8.3,1.3-16.6,2.1-24.8C344.7,564,345.6,561.1,346.6,556.3z M395.5,579.1c0-4.4,0.1-8.9,0-13.4
		c-0.1-5.1-3.5-7.3-7.9-7.1c-10,0.2-19.9,0.6-29.8,1.8c-7.2,0.9-8.4,2.7-9.1,10.7c-1,10.2-1.4,20.5-2.4,30.8
		c-1.9,20.5-4,40.9-6.1,61.4c-1,10.1,0.8,12.1,11,10.1c11.4-2.3,22.7-5,33.8-8.1c1.9-0.5,4.3-3.6,4.3-5.5c0.1-7.5-0.6-15-1-23.4
		c-4.2,0.3-7.1,0.5-10,0.8c-4.6,0.4-9.3,1.3-13.9,1.1c-2.1-0.1-5.5-2.3-5.7-3.9c-0.6-5.1-1.7-10.5,0.8-14.5c7.6-0.7,14.2-1.4,21-2.1
		c0.8-8,2.1-14.8-2.1-21c-6.1-1.2-12.4,4.9-18-1.1c0.6-6.4,1.2-12.4,1.9-19.4C373.7,581.1,384.1,581.8,395.5,579.1z"/>
	<path class="st1" d="M84.6,734.6c0-41.7,0-83.8,0-125.5c13-9.9,28.2-8.8,42.2-6.5c16.8,2.7,27.4,15.4,33.8,30.9
		c6.1,14.9,4.3,29.9,0.5,44.9c-3.2,12.7-9.3,23.2-21,30.2c-13.9,8.3-25.8,19.8-41.2,25.6C94.5,735.9,90.2,737.3,84.6,734.6z
		 M90.5,730.7c7.5-3.1,14.6-4.2,20.7-8.5c7.3-5.2,15.2-9.6,22.3-15c6.2-4.8,13.3-9.7,17.2-16.2c9.6-15.9,12.9-33.7,7.1-51.7
		c-10-31.7-36.6-39.5-64.1-29.4c-4.4,1.6-5.9,4.5-5.8,9.1c0.4,26.9,0.4,53.8,0.9,80.7C88.9,709.6,89.8,719.4,90.5,730.7z"/>
	<path class="st1" d="M169.9,641.2c1-17.2,4-32.7,12-47c0.9-1.6,2.2-3.7,3.7-4.2c9.4-3,18.6-7.1,28.9-6.6c10.9,0.6,18.9,6.5,25.4,14
		c7.8,9.1,14.3,19.5,14.8,32c0.3,7.2,0.5,14.8-1.6,21.5c-4.3,14.1-11.4,26.9-23.1,36.6c-7.5,6.3-16.5,8.9-25.7,9.6
		c-10.2,0.8-24.9-10.7-28.1-20.9c-1.8-5.7-3.1-11.6-4.1-17.4C171.1,652.7,170.6,646.4,169.9,641.2z M250.6,632.8
		c0.1-5.4-2.5-14.5-8.1-22.7c-14.5-21.2-26.3-25-47.9-17.5c-6,2.1-9.4,5.3-11.8,10.8c-9.7,22.3-10,45.1-3.3,68
		c4.7,16.2,20.1,23.5,36.1,18.3C233.7,683.9,250.4,658.9,250.6,632.8z"/>
	<path class="st1" d="M297.8,640.4c0.5,12.2,1,24,1.6,36.9c-10.3,0.9-20.6,1.7-32.3,2.7c0.5-11.5,1-21.6,1.5-31.7
		c0.3-6.5,0.9-13.1,0.8-19.6c-0.2-14.2-0.8-28.4-1-42.6c-0.1-11.4,2.5-14.2,13.8-16.5c11.7-2.4,23-2.3,34.2,2.2
		c10.2,4.1,15.9,11.6,17.8,22.2c3.8,21.7-12.5,43.5-31.9,45.5C301,639.7,299.8,640,297.8,640.4z M273.9,578.4
		c-3.1,15.6,1.1,31.5,0.1,47.3c-1,15.7-1.1,31.5-1.6,48.4c7.5-0.4,13.9-0.8,20.9-1.1c0-14.4,0-27.6,0-42.1
		c7.1,3.9,13.7,4.3,18.8,0.2c5.8-4.8,11.8-10.4,15-16.9c9.5-19.4-1.9-38.5-23.4-40.3C294.1,573,284.4,573.2,273.9,578.4z"/>
	<path class="st3" d="M395.5,579.1c-11.4,2.7-21.8,2-33-2.8c-0.7,6.9-1.3,13-1.9,19.4c5.5,6,11.9-0.1,18,1.1c4.2,6.1,2.9,13,2.1,21
		c-6.8,0.7-13.5,1.3-21,2.1c-2.6,3.9-1.4,9.4-0.8,14.5c0.2,1.6,3.6,3.8,5.7,3.9c4.6,0.3,9.3-0.6,13.9-1.1c2.9-0.3,5.8-0.5,10-0.8
		c0.4,8.4,1.2,15.9,1,23.4c0,1.9-2.5,5-4.3,5.5c-11.2,3.1-22.5,5.8-33.8,8.1c-10.2,2-12,0-11-10.1c2-20.5,4.1-40.9,6.1-61.4
		c1-10.2,1.4-20.5,2.4-30.8c0.8-8,1.9-9.8,9.1-10.7c9.9-1.2,19.9-1.6,29.8-1.8c4.3-0.1,7.7,2.1,7.9,7.1
		C395.6,570.2,395.5,574.7,395.5,579.1z"/>
	<path class="st3" d="M90.5,730.7c-0.7-11.3-1.6-21.1-1.8-31c-0.4-26.9-0.5-53.8-0.9-80.7c-0.1-4.6,1.4-7.5,5.8-9.1
		c27.6-10.2,54.1-2.3,64.1,29.4c5.7,18.1,2.5,35.8-7.1,51.7c-3.9,6.5-11,11.4-17.2,16.2c-7.1,5.5-14.9,9.9-22.3,15
		C105.1,726.5,98,727.6,90.5,730.7z M104.6,682.6c11.3-3.3,16.5-10.4,20.3-19.2c4.3-10.1,1.4-18.9-4.7-27c-4.4-5.9-9.7-6.5-17.4-3
		C103.3,649.3,103.9,665.1,104.6,682.6z"/>
	<path class="st3" d="M250.6,632.8c-0.2,26-16.9,51.1-35,56.9c-16,5.2-31.4-2.1-36.1-18.3c-6.6-22.9-6.4-45.7,3.3-68
		c2.4-5.5,5.9-8.7,11.8-10.8c21.6-7.6,33.5-3.7,47.9,17.5C248.1,618.4,250.7,627.4,250.6,632.8z M198.3,636.3
		c1.4,5.3,1.7,10,7.2,11.9c4.6,1.6,9-0.3,12.6-5.3c4.8-6.7,6-13.7,2-21.3c-3.4-6.5-9.9-7.9-14-1.9
		C202.7,624.6,200.8,630.7,198.3,636.3z"/>
	<path class="st3" d="M273.9,578.4c10.6-5.2,20.3-5.4,29.9-4.6c21.5,1.8,32.9,20.9,23.4,40.3c-3.2,6.6-9.2,12.1-15,16.9
		c-5.1,4.2-11.7,3.7-18.8-0.2c0,14.5,0,27.7,0,42.1c-7,0.4-13.5,0.7-20.9,1.1c0.5-16.9,0.6-32.6,1.6-48.4
		C275,609.9,270.7,594,273.9,578.4z M291.6,588.8c0.2,4.4,0.6,8.3,0.5,12.1c-0.1,4.5,1.7,6.8,6.3,6.7c4.4-0.1,7.4-1.6,8.1-6.6
		C308,591.2,303.4,586.8,291.6,588.8z"/>
	<path class="st1" d="M104.6,682.6c-0.7-17.5-1.2-33.3-1.8-49.2c7.7-3.5,13-2.9,17.4,3c6.1,8.1,9,16.9,4.7,27
		C121.1,672.2,115.9,679.3,104.6,682.6z M110.1,673.7c8.2-4.9,13.4-14.6,11.9-22c-1.7-8.6-6-13-13.6-13.9c0,11.2,0,22.5,0.1,33.7
		C108.5,672.2,109.6,673,110.1,673.7z"/>
	<path class="st1" d="M198.3,636.3c2.5-5.6,4.4-11.7,7.8-16.6c4.1-5.9,10.6-4.6,14,1.9c4,7.6,2.8,14.6-2,21.3
		c-3.7,5.1-8.1,6.9-12.6,5.3C200,646.3,199.7,641.6,198.3,636.3z M208.3,644.1c12.1-8.5,12.8-15,3.2-22.5
		C203,631.5,202.1,636.5,208.3,644.1z"/>
	<path class="st1" d="M291.6,588.8c11.8-2,16.4,2.4,15,12.2c-0.7,5-3.8,6.5-8.1,6.6c-4.6,0.1-6.4-2.3-6.3-6.7
		C292.3,597.1,291.9,593.2,291.6,588.8z M301.7,602.4c0.9-5.2,0.9-8.4-5-9.8C295.8,597,295.3,600.4,301.7,602.4z"/>
	<path class="st0" d="M110.1,673.7c-0.6-0.7-1.6-1.5-1.6-2.2c-0.1-11.2-0.1-22.5-0.1-33.7c7.6,1,11.9,5.3,13.6,13.9
		C123.5,659.1,118.3,668.8,110.1,673.7z"/>
	<path class="st0" d="M208.3,644.1c-6.1-7.5-5.3-12.6,3.2-22.5C221.1,629.1,220.3,635.6,208.3,644.1z"/>
	<path class="st0" d="M301.7,602.4c-6.4-2-5.9-5.4-5-9.8C302.6,594,302.6,597.3,301.7,602.4z"/>
</g>
<g>
	<path class="st2" d="M963.8,740.3c0.1,0.5,0.2,1.1,0.3,1.6c12.5-2.9,25.2-5.5,37.6-8.8c5.5-1.4,6.5-3.9,3.8-9
		c-7.1-13.1-13.3-27.1-22.5-38.6c-13.1-16.5-29.4-29.8-51.4-33.7c-28.1-4.9-53.1,4.8-77.8,16.1c-1.5,0.7-3,3.1-3.1,4.7
		c-0.1,4.9-0.8,10.5,1.1,14.7c6.2,13.8,15.2,25.9,27.5,34.9c8,5.9,16.9,10.6,25.2,16.1c8.2,5.4,17.1,6.8,26.7,5.6
		C942.1,742.4,952.9,741.4,963.8,740.3z"/>
	<path class="st1" d="M963.8,740.3c-10.9,1.1-21.8,2.1-32.6,3.5c-9.6,1.2-18.5-0.2-26.7-5.6c-8.3-5.5-17.2-10.2-25.2-16.1
		c-12.3-9-21.2-21.1-27.5-34.9c-1.9-4.2-1.2-9.8-1.1-14.7c0-1.6,1.6-4,3.1-4.7c24.7-11.3,49.7-21,77.8-16.1
		c22,3.9,38.3,17.2,51.4,33.7c9.2,11.5,15.4,25.5,22.5,38.6c2.8,5.1,1.7,7.6-3.8,9c-12.4,3.3-25.1,5.9-37.6,8.8
		C964,741.3,963.9,740.8,963.8,740.3z M902.9,658.7c-0.4-0.1-1.4-0.6-2.2-0.4c-4.8,1.2-9.6,2.5-14.4,4.1c-9.5,3.1-11.4,6.6-9.6,16.5
		c3.2,17.2,10.9,30.7,27,39.6c15.4,8.5,34.5,8.7,48.5-1.9c4-3,8.3-5.7,11.6-9.4c4.2-4.6,7.9-9.8,11.2-15.1c1.1-1.8,1.1-5.8-0.2-7.1
		c-5.3-5.3-11.3-9.9-17-14.7c-1.7,1.6-2.6,2.1-3,2.9c-6.3,14.1-18,19.5-32.5,21.1c-9.9,1.1-15.5-2.3-17.3-12
		C903.6,674.9,903.6,667.3,902.9,658.7z M983.2,694.6c-2,1.9-3.8,2.9-4.8,4.5c-5.4,9.1-13.9,15-21.6,21.8
		c-11.7,10.1-24.8,13.8-39.7,10.1c-21.8-5.3-38-17.1-43.9-39.8c-1.8-7-2.9-14.1-4.3-21.1c-8.7,0.9-12.3,3.6-12,9.9
		c0.2,3.2,1.2,6.7,2.9,9.4c7.1,11.6,14.9,22.8,26.6,30.5c6.4,4.2,12.8,8.3,19.4,12.1c8.2,4.8,16.9,7.1,26.7,5.6
		c12.1-1.8,24.4-2.6,36.6-3.8c3.2-0.3,6.5-0.9,7.4-1.1c5.9-8.6,10.7-15.4,15.9-23.1C989.7,705.2,986.6,700.2,983.2,694.6z
		 M947.7,665.7c-2.1-3.8-5.1-5.8-9.4-3.4c-0.8,0.4-1.1,3.5-0.5,4.1C941.1,669.7,944.6,670.5,947.7,665.7z M989,729.1
		c2.8-0.7,5.7-1.4,8.8-2.2c-1.2-4.1-2.5-6.9-6.2-5.8C988.7,722,987.3,724.7,989,729.1z"/>
	<path class="st0" d="M902.9,658.7c0.7,8.6,0.7,16.2,2,23.5c1.8,9.8,7.4,13.1,17.3,12c14.5-1.5,26.2-7,32.5-21.1
		c0.4-0.8,1.4-1.4,3-2.9c5.7,4.8,11.7,9.4,17,14.7c1.3,1.3,1.3,5.3,0.2,7.1c-3.2,5.3-6.9,10.5-11.2,15.1c-3.3,3.6-7.7,6.3-11.6,9.4
		c-14,10.6-33.1,10.4-48.5,1.9c-16.1-8.9-23.9-22.4-27-39.6c-1.8-9.9,0.1-13.4,9.6-16.5c4.7-1.6,9.6-2.8,14.4-4.1
		C901.5,658.1,902.6,658.7,902.9,658.7z"/>
	<path class="st0" d="M983.2,694.6c3.4,5.6,6.5,10.6,9.1,14.9c-5.3,7.6-10,14.5-15.9,23.1c-0.9,0.1-4.1,0.7-7.4,1.1
		c-12.2,1.3-24.5,2-36.6,3.8c-9.8,1.5-18.5-0.8-26.7-5.6c-6.6-3.9-13-8-19.4-12.1c-11.7-7.6-19.5-18.8-26.6-30.5
		c-1.7-2.7-2.7-6.2-2.9-9.4c-0.3-6.3,3.2-9,12-9.9c1.4,7,2.5,14.2,4.3,21.1c6,22.7,22.1,34.5,43.9,39.8c15,3.7,28.1,0,39.7-10.1
		c7.8-6.7,16.2-12.7,21.6-21.8C979.4,697.5,981.2,696.4,983.2,694.6z"/>
	<path class="st0" d="M947.7,665.7c-3.1,4.8-6.6,3.9-9.8,0.8c-0.6-0.6-0.3-3.7,0.5-4.1C942.7,659.9,945.6,662,947.7,665.7z"/>
	<path class="st0" d="M989,729.1c-1.7-4.4-0.2-7.1,2.7-8c3.6-1.2,5,1.7,6.2,5.8C994.6,727.7,991.8,728.4,989,729.1z"/>
</g>
<g>
	<path class="st1" d="M764.7,254.8c-1,0.2-2,0.5-3,0.7c-4.1-11.1-8.3-22.2-12.3-33.4c-1.6-4.4-2.6-9-4.4-13.2
		c-0.7-1.6-3-2.4-6.3-4.9c-1.2,18.7-0.2,35.2-1.6,51.9c-5.5-12.3-9.6-24.7-13.8-37.2c-1.5-4.4-2.8-8.9-4.6-13.1
		c-0.4-1-2.6-1.3-3.9-2c-0.6,1.4-1.6,2.7-1.8,4.1c-0.1,1.2,0.7,2.5,1.1,3.8c5.9,18.3,11.7,36.7,17.6,55c1.6,5,3.1,10.2,5.2,15
		c0.7,1.7,3.3,2.5,5,3.7c1-1.8,2.9-3.6,3-5.5c0.3-12.3,0.2-24.6,0.2-36.9c0-1.8,0.3-3.5,0.4-5.3c0.6-0.1,1.3-0.3,1.9-0.4
		c1.2,2.9,2.5,5.7,3.6,8.6c4.4,11.8,8.6,23.6,13.2,35.3c0.8,2,3.4,3.4,5.2,5.1c1-1.8,3.1-3.6,3-5.3c-2.5-20.9-0.9-41.8-0.3-62.7
		c0.2-7.9-1-15.8-1.6-23.6c-7.7,0.1-8.8,1-7.3,6.9C767.5,219.3,763.2,237.1,764.7,254.8z"/>
	<path class="st1" d="M827.4,236.6c3.3-3,6.4-5.3,8.9-8.1c3-3.3,7-6.8,7.9-10.8c2.8-13.5-7.3-28-20.5-31
		c-9.6-2.2-13.7,1.7-12.1,11.3c3.9,22.2,7.7,44.4,11.6,66.6c1,5.9,2.4,11.7,3.8,17.5c0.8,3.2,1.7,6.8,7.9,5.1
		c-2.5-12.8-5.1-25.7-7.9-39.9c3.3,1,5,1.2,6.3,2c7.7,4.6,15.3,9.3,22.9,14.1c2.8,1.8,6,4.4,8.5,0.5c2.6-4-0.9-5.4-4-7.2
		C849.9,250.5,839.3,243.8,827.4,236.6z"/>
	<path class="st1" d="M679.2,245.5c1.8,9.2,3.4,20.4,6.4,31.2c2.4,8.4,9.7,10.7,16.2,5.1c5.1-4.4,10.2-10.2,12.4-16.3
		c6.3-17.9,1.6-35.4-5.3-52.2c-1.3-3.2-5.4-5.8-8.8-7.6c-8.1-4.1-14.5-0.9-16.2,8.1C682.1,223.6,681,233.5,679.2,245.5z"/>
	<path class="st1" d="M599.1,255.5c8,2.9,7.7,8.5,7.9,13.8c0.1,4.3,0.1,8.6,0.3,12.9c0.1,3.3,1.1,6.4,5.2,5.5c3.5-0.8,4-3.5,3.3-7
		c-1.2-5.8-1.7-11.8-2.6-17.7c-0.7-4.3,0.6-7.1,5-8.2c2.3-0.6,4.6-0.9,6.7-1.9c3.3-1.5,6.9-3.1,5.9-8.2c-6.6-4.2-11.8,5-19.1,2
		c0-11.3,0-22.8,0-34.7c7.9-1.9,15.6-3.8,23.3-5.7c4-1,7.8-2.2,7.3-7.8c-1.3-0.4-2.7-1.2-3.8-0.9c-11,2.4-21.9,4.9-32.8,7.6
		c-3.4,0.8-4.5,3.7-4.1,7c1,8.9,1.8,17.7,3.1,26.5C605.2,244.5,605.1,249.9,599.1,255.5z"/>
	<path class="st1" d="M803.3,193.7c-4,1-6.4,1.5-8.8,2.1c-2.9,0.7-5.7,1.9-8.6,2.2c-10.4,1.1-10.4,1-8.9,11.4c0.3,2,1.1,3.9,1.1,5.9
		c-0.1,9.4,4.8,18.8,0.7,26.9c1.9,5.8,3.7,10.3,4.7,15c1.5,7.1,2.4,14.4,3.6,21.6c1,6.1,4.1,7.7,8.7,4c4.6-3.7,9.2-7.7,13.2-12.2
		c1.6-1.7,1.5-4.9,2.2-7.4c-0.7-0.4-1.4-0.9-2.1-1.3c-4.8,3.7-9.6,7.4-15.2,11.7c-1.1-4.8-2-8.6-2.8-12.4
		c-1.6-7.4-2.9-14.7,3.9-20.5c0.2-0.2-0.2-1.2-0.4-2.1c-2.4-0.6-4.8-1.2-7.4-1.8c-0.8-10.3-1.5-20.2-2.3-29.7
		C800.8,200.6,800.8,200.6,803.3,193.7z"/>
	<path class="st1" d="M650.8,204.7c-0.7,0.8-2.2,1.8-2.2,2.8c0.4,28.1,0.9,56.2,1.5,86.2c3.9-1.3,7.1-1.4,8.2-3
		c5.6-7.7,14.9-12.3,19.3-22.3c-10.2-1.5-13.1,8.6-21.2,10.3c0-17,0-33.3,0-49.5c0-6-0.2-12-0.3-18
		C656,207.9,654.9,205.3,650.8,204.7z"/>
	<path class="st1" d="M764.7,254.8c-1.6-17.7,2.7-35.5-1.7-53.2c-1.5-5.9-0.3-6.8,7.3-6.9c0.6,7.8,1.8,15.7,1.6,23.6
		c-0.6,20.9-2.1,41.8,0.3,62.7c0.2,1.6-1.9,3.5-3,5.3c-1.8-1.7-4.4-3-5.2-5.1c-4.6-11.7-8.8-23.6-13.2-35.3
		c-1.1-2.9-2.4-5.7-3.6-8.6c-0.6,0.1-1.3,0.3-1.9,0.4c-0.1,1.8-0.4,3.5-0.4,5.3c0,12.3,0.1,24.6-0.2,36.9c0,1.8-1.9,3.6-3,5.5
		c-1.7-1.2-4.3-2.1-5-3.7c-2.1-4.8-3.6-10-5.2-15c-5.9-18.3-11.7-36.7-17.6-55c-0.4-1.3-1.2-2.6-1.1-3.8c0.2-1.4,1.2-2.8,1.8-4.1
		c1.4,0.6,3.5,0.9,3.9,2c1.8,4.3,3.1,8.7,4.6,13.1c4.2,12.4,8.3,24.9,13.8,37.2c1.5-16.7,0.4-33.2,1.6-51.9c3.3,2.5,5.6,3.3,6.3,4.9
		c1.8,4.2,2.8,8.8,4.4,13.2c4,11.2,8.2,22.3,12.3,33.4C762.7,255.3,763.7,255,764.7,254.8z"/>
	<path class="st1" d="M827.4,236.6c11.9,7.2,22.5,13.9,33.4,20.1c3.1,1.8,6.6,3.3,4,7.2c-2.5,3.9-5.7,1.3-8.5-0.5
		c-7.6-4.8-15.2-9.5-22.9-14.1c-1.3-0.8-3-0.9-6.3-2c2.8,14.2,5.4,27.2,7.9,39.9c-6.2,1.6-7.1-2-7.9-5.1c-1.5-5.8-2.8-11.7-3.8-17.5
		c-3.9-22.2-7.7-44.4-11.6-66.6c-1.7-9.6,2.4-13.6,12.1-11.3c13.2,3.1,23.3,17.5,20.5,31c-0.8,4-4.9,7.5-7.9,10.8
		C833.8,231.3,830.7,233.6,827.4,236.6z M818.3,195.1c1.8,10.5,1.1,21.3,5.2,31.4c11.5-3.8,15.2-8.1,14-15.8
		C836.1,201.2,829.2,195.1,818.3,195.1z"/>
	<path class="st1" d="M679.2,245.5c1.7-12,2.8-21.9,4.7-31.7c1.8-9.1,8.1-12.2,16.2-8.1c3.4,1.7,7.5,4.3,8.8,7.6
		c6.9,16.8,11.6,34.3,5.3,52.2c-2.2,6.2-7.3,12-12.4,16.3c-6.6,5.6-13.9,3.3-16.2-5.1C682.6,265.9,681,254.7,679.2,245.5z
		 M693.7,277.6c11.6-4.5,16.3-13.3,16-23.1c-0.3-11.8-3-23.6-5.7-35.2c-1.4-6.1-4.9-7.1-12.4-6.1
		C685.6,234.5,685.5,255.6,693.7,277.6z"/>
	<path class="st1" d="M599.1,255.5c6-5.7,6.2-11,5.3-16.8c-1.3-8.8-2.1-17.7-3.1-26.5c-0.4-3.3,0.7-6.2,4.1-7
		c10.9-2.7,21.9-5.2,32.8-7.6c1.1-0.2,2.5,0.6,3.8,0.9c0.5,5.7-3.3,6.8-7.3,7.8c-7.7,1.9-15.4,3.8-23.3,5.7c0,11.9,0,23.4,0,34.7
		c7.3,3,12.5-6.2,19.1-2c0.9,5.1-2.6,6.7-5.9,8.2c-2.1,0.9-4.4,1.3-6.7,1.9c-4.4,1.1-5.7,4-5,8.2c0.9,5.9,1.4,11.8,2.6,17.7
		c0.7,3.5,0.2,6.2-3.3,7c-4,0.9-5.1-2.2-5.2-5.5c-0.1-4.3-0.2-8.6-0.3-12.9C606.8,264,607.1,258.5,599.1,255.5z"/>
	<path class="st1" d="M803.3,193.7c-2.5,6.9-2.5,6.9-18.5,13.4c0.7,9.5,1.5,19.3,2.3,29.7c2.6,0.6,5,1.2,7.4,1.8
		c0.2,0.9,0.6,1.9,0.4,2.1c-6.8,5.8-5.5,13.1-3.9,20.5c0.8,3.8,1.7,7.6,2.8,12.4c5.6-4.3,10.4-8,15.2-11.7c0.7,0.4,1.4,0.9,2.1,1.3
		c-0.7,2.5-0.6,5.7-2.2,7.4c-4,4.4-8.5,8.4-13.2,12.2c-4.6,3.7-7.7,2.1-8.7-4c-1.2-7.2-2.1-14.5-3.6-21.6c-1-4.7-2.8-9.2-4.7-15
		c4.1-8-0.7-17.4-0.7-26.9c0-2-0.8-3.9-1.1-5.9c-1.6-10.4-1.5-10.3,8.9-11.4c2.9-0.3,5.7-1.5,8.6-2.2
		C796.9,195.2,799.3,194.7,803.3,193.7z"/>
	<path class="st1" d="M650.8,204.7c4.1,0.7,5.2,3.3,5.2,6.5c0.1,6,0.3,12,0.3,18c0,16.2,0,32.5,0,49.5c8.1-1.8,11-11.8,21.2-10.3
		c-4.4,10-13.7,14.6-19.3,22.3c-1.1,1.6-4.3,1.6-8.2,3c-0.6-30-1.1-58.1-1.5-86.2C648.6,206.5,650.1,205.5,650.8,204.7z"/>
	<path class="st0" d="M818.3,195.1c10.9,0,17.8,6.1,19.3,15.6c1.1,7.7-2.5,12-14,15.8C819.4,216.4,820,205.6,818.3,195.1z"/>
	<path class="st0" d="M693.7,277.6c-8.1-22-8.1-43.1-2.1-64.4c7.4-0.9,10.9,0,12.4,6.1c2.7,11.6,5.4,23.4,5.7,35.2
		C710,264.3,705.3,273.1,693.7,277.6z"/>
</g>
<g>
	<path class="st2" d="M494.7-239.4c2.8,3.1,5.7,6.2,8.6,9.3c5.7-3.4,3.3-6.9,0.9-9.4c-9.1-9-20.2-13-32.7-10.2
		c-12.6,2.9-22.4,17.3-20.2,29.5c2.1,12.1,9.1,23.2,26,26.3c15.8,3,32.1-13.6,24.2-30.4c-1.7-3.6-4.2-6.7-6-10.2
		c-0.7-1.4-0.5-3.4-0.6-5.1L494.7-239.4z"/>
	<path class="st2" d="M442.4-51.5c-10.5-6.2-9.1-14.3-9.5-22.4C432-95,462.5-112,478.4-96.5c0.7,0.7,1.5,1.7,2.3,1.8
		c2,0.1,4-0.3,6.1-0.5c-0.4-1.8-0.2-4.3-1.3-5.2c-8.7-7.3-18.2-12.7-30-8.6c-5.6,1.9-11.2,4.3-16.1,7.7
		c-16.3,11.4-19.4,37.2-7.2,51.9c9,10.8,23.7,11.5,35.5,6.3c9.2-4.1,14-17.3,11.5-29.5c-2.4-11.4-18.1-20.1-27.8-15.4
		C439-82,434.7-71.1,439.5-58.1C440-56.7,440.7-55.3,442.4-51.5z"/>
	<path class="st2" d="M423-132c-12.4-6-17.5-15.2-12.7-24.9c3.4-6.9,9-13.1,14.5-18.7c4.4-4.5,10.7-5.6,16.6-2.4
		c5.1,2.9,9.8,6.7,14.8,9.8c1.6,1,3.8,1.1,5.8,1.6c-0.1-2.1,0.6-5-0.5-6.1c-3.5-3.5-7.2-6.9-11.5-9.2c-12-6.4-18-8.7-30.8,1.6
		c-4.6,3.7-8.4,8.4-12.2,13c-9.2,11.1-7.1,25.8,1.5,35.5c7.1,7.9,27.2,10.4,36.4,4.9c1.4-0.8,2.9-1.9,3.6-3.3
		c2.8-5.3,6-10.5,7.8-16.1c2.5-7.8-8.7-24.4-16.7-25.5c-1.6-0.2-3.4,0.1-4.8,0.7c-16.6,6.7-27.9,17.8-12.2,37.1
		C422.8-133.7,422.8-133.4,423-132z"/>
	<path class="st2" d="M553.6-90.8c0.5-3.8,1.9-6.9,1.1-9c-2.7-6.4-12-10.1-18.5-7.6c-10,3.9-18.7,9.9-25.1,18.8
		c-6.5,8.9-6.7,18.1-1.4,27.8c6.6,12.3,30.5,17.3,38.7,14.2c2.6-1,5.5-3,6.8-5.4c8.4-16.1,9.4-24.6-0.1-36.8
		C554.2-89.7,553.5-90.9,553.6-90.8z"/>
	<path class="st2" d="M543.7-285.2c8.9,15.7,5.2,24.3-9.7,27.2c-1,0.2-2,0.2-3,0.5c-8.8,2-16.1-1.4-21.2-7.8
		c-5.3-6.6-3.6-14.5-0.3-21.6c3-6.4,7.5-11.9,14.3-14.7c6-2.5,11.9-6.3,19-2.7c1.1,0.6,3.3-0.9,5.1-1.5c-1-1.8-1.6-4.8-2.9-5.2
		c-3.7-1.1-7.9-1.9-11.6-1.2c-17,2.9-28.1,13.3-33,29.5c-2.6,8.5-0.9,16.9,5.8,23.9c8.9,9.3,19.2,10,31.1,7.3
		c8.5-1.9,15.9-5.8,17.8-13.8c2.4-10.2,0.6-20.5-8.7-27.9c-3.3-2.6-6.7-4.1-11-3.6c-9.6,1.3-16.8,6.6-20.9,15
		c-1.6,3.3-1,8.6,0.5,12.1c2.7,6.1,13.2,9.4,20.2,7.5c6.1-1.6,9.2-7,8.9-15.8C544.1-279.8,543.9-281.4,543.7-285.2z"/>
	<path class="st2" d="M582-164.8c4.1-4.1,2-7.3-1.6-9.9c-4.9-3.6-10.3-4.1-16.1-2.4c-7.9,2.2-12.9,7.7-17.3,14.3
		c-8.1,12.1-6,28.6,5,39.1c9.8,9.3,25.6,10.2,36.8,1.9c9.4-7,10.7-17.1,10.1-27.8c-0.5-8.9-7.6-10.8-14.2-13
		C584.1-162.9,583.7-163.5,582-164.8z"/>
	<path class="st2" d="M574-222.4c-10.8-14.7-25.1-17.8-36.2-9c-9.9,7.9-12.8,19-12.5,31c0,1.8,1.1,3.8,2.2,5.4
		c7.9,11.3,21.1,14.1,33.4,7.3c11.8-6.5,14-14.1,8.5-28.6c-0.3-0.9-0.5-1.8-1-3.3C570.2-220.4,572.2-221.5,574-222.4z"/>
	<path class="st2" d="M521.2-140.5c2.7,2.1,2.4,4.5,0.6,6.8c-4.1,5.5-15,7-22.1,3.2c-7.3-4-9.3-9.1-6.8-17.4
		c0.7-2.2,1.3-4.5,2.1-6.6c4.8-12.7,14.8-15.6,25.5-7.2c2.8,2.2,4.9,3.1,7.4,0c-6.3-13.4-17.2-16.5-28.9-8.6
		c-7.4,5-10.9,12.3-13.5,20.3c-4.2,13.3,2.1,25,15.8,28c4.7,1.1,10,1.2,14.8,0.3c14.2-2.6,19-17.1,9.6-28.1
		c-3.5-4.1-12.4-6.2-17.5-4.1c-4.2,1.8-8,8.8-7.6,14.2c0.4,5.4,2.9,7.8,8.2,8C515.3-131.6,517.1-132.8,521.2-140.5z"/>
	<path d="M442.4-51.5c-1.7-3.8-2.4-5.2-2.9-6.6c-4.8-13-0.5-23.8,11.9-29.9c9.7-4.8,25.4,3.9,27.8,15.4c2.5,12.2-2.3,25.4-11.5,29.5
		c-11.8,5.3-26.5,4.5-35.5-6.3c-12.2-14.7-9.2-40.5,7.2-51.9c4.8-3.4,10.5-5.8,16.1-7.7c11.8-4.1,21.4,1.3,30,8.6
		c1.1,0.9,0.9,3.4,1.3,5.2c-2,0.2-4.1,0.6-6.1,0.5c-0.8,0-1.6-1.1-2.3-1.8c-16-15.5-46.4,1.5-45.5,22.6
		C433.3-65.8,431.9-57.7,442.4-51.5z M448-48.8c17.8,4.4,25.1-6.1,23.7-20.1c-0.6-6.2-4.5-9.3-9.7-11.3c-5.6-2.1-9.6-0.8-13.2,3.8
		c-3.6,4.5-4.6,9.3-2.2,14.8c1.9,4.3,4.8,5.1,9.3,2.6c-1.7-0.8-3.3-1.3-4.4-2.2c-3-2.5-3.5-7.8-1.3-10.7c1.8-2.4,9.3-4.8,10.7-2.8
		c2.7,3.9,4.8,8.4,5.9,13c0.9,3.6-1.2,7.3-5.1,8.8C457.2-51.3,452.4-50.1,448-48.8z"/>
	<path d="M423-132c-0.2-1.3-0.2-1.7-0.4-1.9c-15.7-19.2-4.4-30.4,12.2-37.1c1.5-0.6,3.3-1,4.8-0.7c8,1.1,19.2,17.7,16.7,25.5
		c-1.8,5.6-5,10.8-7.8,16.1c-0.7,1.4-2.3,2.5-3.6,3.3c-9.3,5.5-29.4,3-36.4-4.9c-8.6-9.7-10.7-24.5-1.5-35.5
		c3.8-4.6,7.7-9.3,12.2-13c12.7-10.4,18.8-8.1,30.8-1.6c4.3,2.3,8.1,5.8,11.5,9.2c1.1,1.1,0.4,4,0.5,6.1c-1.9-0.5-4.2-0.6-5.8-1.6
		c-5-3.1-9.6-6.9-14.8-9.8c-5.9-3.3-12.2-2.2-16.6,2.4c-5.5,5.6-11,11.7-14.5,18.7C405.5-147.2,410.6-138,423-132z M431.2-132.4
		c10.3,0.1,14.7-3.8,17.3-13.8c1.2-4.6-3.6-14.6-8.1-16.8c-0.8-0.4-2-0.8-2.8-0.6c-5.7,2-11.5,4.5-13.6,10.5c-1,2.6,0.3,6.4,1.5,9.3
		c0.5,1.1,3.3,1.3,7,2.6c-7.5-8.9-5.3-13.9,5.9-18.2C449.1-149.1,447.4-141.4,431.2-132.4z"/>
	<path d="M553.6-90.8c-0.1-0.1,0.6,1,1.4,2.1c9.4,12.2,8.5,20.7,0.1,36.8c-1.2,2.4-4.2,4.4-6.8,5.4c-8.2,3.1-32.2-1.9-38.7-14.2
		c-5.2-9.8-5-18.9,1.4-27.8c6.4-8.8,15.1-14.8,25.1-18.8c6.5-2.5,15.8,1.2,18.5,7.6C555.5-97.7,554.1-94.6,553.6-90.8z M549.7-93.8
		c-7.5-7.9-9.7-8.7-16.7-4c-5.7,3.8-10.9,8.6-15.4,13.7c-6,6.8-4.8,17.1,1.9,23.1c3.7,3.4,5.4,4,10.8,3.5c-1.5-1.2-2.8-2.2-3.9-3.4
		c-7-6.8-7.6-15-0.5-21.6c3.8-3.5,8.7-5.8,13.4-8.2C542.1-92,545.4-92.5,549.7-93.8z M539.5-64.2c-1.5-3.3-4.1-6.3-3.8-9.1
		c0.4-4.2,4.8-4.7,8.5-5c2.4-0.2,4.7-0.4,7.7-0.6c-1.9-4.8-4.6-6-8.2-5c-2.8,0.8-5.7,1.8-8.2,3.2c-3.8,2.2-7.4,5.2-6.1,10.2
		C530.9-65.4,534.7-63.1,539.5-64.2z M540.6-55.3c0.1,0.6,0.2,1.1,0.3,1.7c2.3-0.7,4.7-1.2,7-2.1c0.4-0.1,0.3-1.5,0.5-2.9
		C545.3-57.3,543-56.3,540.6-55.3z"/>
	<path d="M543.7-285.2c0.2,3.8,0.4,5.4,0.4,7.1c0.2,8.8-2.8,14.2-8.9,15.8c-7,1.9-17.4-1.4-20.2-7.5c-1.6-3.5-2.1-8.9-0.5-12.1
		c4.1-8.4,11.3-13.7,20.9-15c4.3-0.6,7.6,0.9,11,3.6c9.3,7.4,11.1,17.7,8.7,27.9c-1.9,8-9.3,11.8-17.8,13.8
		c-11.9,2.7-22.2,2-31.1-7.3c-6.7-7-8.4-15.4-5.8-23.9c4.9-16.2,16-26.6,33-29.5c3.7-0.6,7.9,0.2,11.6,1.2c1.4,0.4,2,3.4,2.9,5.2
		c-1.7,0.5-3.9,2-5.1,1.5c-7.1-3.6-12.9,0.2-19,2.7c-6.8,2.8-11.3,8.2-14.3,14.7c-3.4,7.1-5,15.1,0.3,21.6
		c5.2,6.4,12.4,9.8,21.2,7.8c1-0.2,2-0.3,3-0.5C548.8-260.9,552.6-269.5,543.7-285.2z M533.9-281.3c-1.7,4.9-2.7,7.8-4,11.6
		C537.5-272.5,537.5-272.5,533.9-281.3z"/>
	<path d="M582-164.8c1.7,1.3,2.1,1.9,2.7,2.1c6.7,2.2,13.8,4.1,14.2,13c0.5,10.6-0.8,20.8-10.1,27.8c-11.2,8.3-27,7.4-36.8-1.9
		c-11-10.4-13.1-26.9-5-39.1c4.3-6.5,9.4-12,17.3-14.3c5.8-1.6,11.2-1.2,16.1,2.4C583.9-172.1,586.1-168.9,582-164.8z M577.5-165.4
		c-5.4-5.4-7.7-5.9-13.4-3.5c-15.6,6.4-19.3,29.1-6.4,39.8c6.9,5.8,14.6,7,23.3,3.3c8.5-3.7,10.3-10.7,10.7-18.7
		c0.1-2.3-0.6-4.6-0.9-6.7c-10.3-5.5-15.4-6.5-18.6-2.8c-3.1,3.6-5.8,7.9-2.4,13c0.9-1.3,0.6-3,1.3-4c1.7-2.6,3.4-5.9,5.9-7
		c3.9-1.7,7.5,1.2,8.9,4.5c1.3,3,2.1,7.3,0.9,10.2c-2.1,5.4-13.6,8.7-19.5,6.5c-5.6-2.1-8.3-9.2-6.8-16.8
		C562.4-156.8,568.2-162.1,577.5-165.4z"/>
	<path d="M494.7-239.5c0.2,1.7-0.1,3.7,0.6,5.1c1.8,3.5,4.3,6.7,6,10.2c7.9,16.7-8.5,33.3-24.2,30.4c-16.9-3.2-23.9-14.3-26-26.3
		c-2.1-12.2,7.7-26.6,20.2-29.5c12.6-2.9,23.7,1.1,32.7,10.2c2.4,2.4,4.8,6-0.9,9.4c-2.9-3.1-5.7-6.2-8.6-9.3
		c-4.9-1.1-9.6-2.8-14.5-3.4c-10.2-1.3-20.6,7.6-21.2,17.8c-0.8,13.5,8.4,23.2,22.3,23.7c6.9,0.2,12.3-3.8,14-10.3
		c1.6-6.3-1.4-15-6.2-17.8c-3.7-2.1-12.2-1.3-13.9,1.3c-2.4,3.6-1.1,7.4,2.7,10.3c1.6-2.4,2.9-6.3,5-6.9c4.1-1.1,6.8,2.5,7.6,6.2
		c0.4,1.9-0.4,4.7-1.7,6.3c-3.4,4.6-12.7,5.4-17.3,1.8c-3.8-3-6.1-14.2-4.2-20.6c1.8-5.9,6.7-6.7,11.8-7.2
		C484.3-238.5,489.5-239,494.7-239.5z"/>
	<path d="M574-222.4c-1.7,0.9-3.7,2-5.6,3c0.4,1.4,0.6,2.4,1,3.3c5.5,14.4,3.3,22.1-8.5,28.6c-12.3,6.8-25.6,3.9-33.4-7.3
		c-1.1-1.6-2.2-3.6-2.2-5.4c-0.2-12.1,2.6-23.1,12.5-31C548.8-240.2,563.1-237.1,574-222.4z M556.6-196.6c-11,2.4-16.6-2.1-15.9-13
		c0.5-7.8,3.8-14,12.4-18.5c-12.8,1.1-17.7,6.3-19.6,18.8c-1.8,11.6,8.6,20.5,19.6,16.5c1.4-0.5,2.2-2.7,3.4-4
		c7.7-0.8,7.7-0.8,6.8-8C561-202,558.8-199.3,556.6-196.6z M563.4-211.2c-7.7-8.9-9.5-9-13.9-1.9C553.7-212.6,557.8-212,563.4-211.2
		z"/>
	<path d="M521.2-140.5c-4.2,7.7-5.9,8.9-12.2,8.7c-5.3-0.2-7.8-2.7-8.2-8c-0.4-5.4,3.3-12.4,7.6-14.2c5.1-2.1,13.9,0,17.5,4.1
		c9.4,11,4.6,25.5-9.6,28.1c-4.8,0.9-10.1,0.7-14.8-0.3c-13.7-3-20-14.7-15.8-28c2.5-8,6.1-15.4,13.5-20.3
		c11.7-7.9,22.7-4.8,28.9,8.6c-2.4,3.1-4.6,2.2-7.4,0c-10.6-8.4-20.7-5.5-25.5,7.2c-0.8,2.2-1.5,4.4-2.1,6.6
		c-2.5,8.4-0.6,13.5,6.8,17.4c7.1,3.9,18,2.3,22.1-3.2C523.6-136,523.9-138.4,521.2-140.5z"/>
	<path class="st2" d="M448-48.8c4.4-1.3,9.2-2.4,13.7-4.1c3.9-1.4,5.9-5.2,5.1-8.8c-1.1-4.6-3.3-9.1-5.9-13c-1.4-2-8.8,0.4-10.7,2.8
		c-2.2,2.9-1.7,8.2,1.3,10.7c1.1,0.9,2.7,1.4,4.4,2.2c-4.5,2.4-7.3,1.7-9.3-2.6c-2.5-5.5-1.4-10.3,2.2-14.8
		c3.7-4.6,7.6-5.9,13.2-3.8c5.2,1.9,9.1,5.1,9.7,11.3C473.1-54.9,465.8-44.4,448-48.8z"/>
	<path class="st2" d="M431.2-132.4c16.3-9,18-16.6,7.1-26.9c-11.2,4.3-13.5,9.3-5.9,18.2c-3.7-1.3-6.6-1.5-7-2.6
		c-1.2-2.9-2.4-6.7-1.5-9.3c2.2-6,8-8.5,13.6-10.5c0.8-0.3,2,0.2,2.8,0.6c4.5,2.1,9.3,12.2,8.1,16.8
		C445.9-136.2,441.5-132.3,431.2-132.4z"/>
	<path class="st2" d="M549.7-93.8c-4.3,1.3-7.6,1.8-10.5,3.3c-4.7,2.4-9.6,4.7-13.4,8.2c-7.1,6.5-6.6,14.8,0.5,21.6
		c1.2,1.1,2.5,2.1,3.9,3.4c-5.4,0.5-7.1-0.1-10.8-3.5c-6.6-6-7.8-16.3-1.9-23.1c4.5-5.2,9.8-9.9,15.4-13.7
		C540-102.5,542.2-101.6,549.7-93.8z"/>
	<path class="st2" d="M539.5-64.2c-4.8,1-8.6-1.2-10-6.3c-1.4-5,2.2-8,6.1-10.2c2.5-1.4,5.4-2.5,8.2-3.2c3.6-1,6.3,0.2,8.2,5
		c-3,0.2-5.4,0.4-7.7,0.6c-3.7,0.3-8.1,0.8-8.5,5C535.4-70.5,538-67.4,539.5-64.2z"/>
	<path class="st2" d="M540.6-55.3c2.3-1,4.7-2,7.7-3.3c-0.2,1.4-0.1,2.8-0.5,2.9c-2.3,0.8-4.6,1.4-7,2.1
		C540.8-54.2,540.7-54.8,540.6-55.3z"/>
	<path class="st2" d="M533.9-281.3c3.6,8.8,3.6,8.8-4,11.6C531.2-273.5,532.2-276.4,533.9-281.3z"/>
	<path class="st2" d="M577.5-165.4c-9.3,3.3-15.1,8.6-16.9,17.7c-1.5,7.6,1.1,14.7,6.8,16.8c5.8,2.2,17.4-1.1,19.5-6.5
		c1.1-2.9,0.4-7.2-0.9-10.2c-1.5-3.3-5.1-6.2-8.9-4.5c-2.5,1.1-4.2,4.5-5.9,7c-0.7,1-0.4,2.7-1.3,4c-3.4-5.1-0.8-9.4,2.4-13
		c3.2-3.7,8.4-2.7,18.6,2.8c0.3,2.1,1,4.4,0.9,6.7c-0.4,7.9-2.2,15-10.7,18.7c-8.7,3.8-16.4,2.5-23.3-3.3
		c-12.9-10.7-9.2-33.4,6.4-39.8C569.8-171.3,572.1-170.8,577.5-165.4z"/>
	<path class="st2" d="M494.7-239.5c-5.2,0.5-10.4,1-15.7,1.5c-5.1,0.5-10,1.3-11.8,7.2c-1.9,6.4,0.3,17.6,4.2,20.6
		c4.6,3.5,13.9,2.8,17.3-1.8c1.2-1.7,2.1-4.4,1.7-6.3c-0.9-3.7-3.5-7.3-7.6-6.2c-2.1,0.6-3.3,4.5-5,6.9c-3.8-2.9-5-6.7-2.7-10.3
		c1.7-2.6,10.2-3.4,13.9-1.3c4.8,2.8,7.9,11.5,6.2,17.8c-1.7,6.5-7.1,10.5-14,10.3c-13.9-0.5-23.1-10.2-22.3-23.7
		c0.6-10.2,10.9-19.2,21.2-17.8c4.9,0.6,9.7,2.3,14.5,3.4C494.7-239.4,494.7-239.5,494.7-239.5z"/>
	<path class="st2" d="M556.4-196.8c-1.1,1.4-1.9,3.5-3.3,4c-11,4-21.4-4.8-19.6-16.5c1.9-12.5,6.9-17.7,19.6-18.8
		c-8.6,4.5-11.9,10.7-12.4,18.5c-0.7,10.9,4.9,15.4,15.9,13L556.4-196.8z"/>
	<path class="st2" d="M563.4-211.2c-5.6-0.8-9.7-1.3-13.9-1.9C553.9-220.3,555.7-220.2,563.4-211.2z"/>
	<path class="st2" d="M556.6-196.6c2.2-2.7,4.4-5.4,6.6-8.2c1,7.2,1,7.2-6.8,8C556.4-196.8,556.6-196.6,556.6-196.6z"/>
</g>
<g>
	<path class="st3" d="M1492.6,514.9c1.2-0.8,2.4-1.6,3.6-2.4c4.5,5.1,9.1,10.1,13.4,15.4c4.6,5.7,8.4,12.1,13.4,17.3
		c2,2.1,6.3,2,9.6,2.9c0.8-3.9,1.7-7.7,2.1-11.6c0.1-1.2-1.1-2.7-2-3.8c-16.8-18.4-33.4-37-50.5-55.1c-2.5-2.7-7.6-2.9-15.6-5.8
		c4.3,18.5,7.9,33.8,11.5,49.1c-1.5,0.7-2.9,1.4-4.4,2.1c-11-12.4-21.9-24.9-32.9-37.3c-3.9-4.5-8.9-10.2-14.2-4.6
		c-2.5,2.6-1.8,12.2,1.1,15.1c18.5,18.8,37.7,36.8,57.3,54.4c2.7,2.4,8.7,1.2,16.1,2C1497.9,538.2,1495.3,526.6,1492.6,514.9z"/>
	<path class="st3" d="M1056,464.8c1.2-0.6,2.4-1.3,3.6-1.9c3.3,3.5,6.9,6.8,9.9,10.5c6,7.4,11.2,15.5,17.8,22.4
		c2.2,2.3,7.4,1.6,11.2,2.3c-0.1-3.9,1.3-9.1-0.7-11.4c-16.2-18.8-32.9-37.3-50-55.2c-3.2-3.4-9.2-4.1-15.1-6.4
		c-6.2,22,11,36.2,11,56.8c-13.9-9.1-25.1-17.2-37.2-23.8c-3.2-1.8-9,0.9-13.5,1.6c0.9,3.3,0.7,8.3,2.8,9.6
		c17.8,11.6,35.8,22.9,54.3,33.3c3.4,1.9,10.3,0.4,13.8-2c2.1-1.5,2-8.2,0.9-11.9C1062.6,480.4,1059.1,472.7,1056,464.8z"/>
	<path class="st3" d="M1053.5,661.6c2-1.2,4-2.3,6-3.5c-2.3-12.3-4.6-24.6-6.9-36.9c12.3,10.2,22.2,21,30.9,32.5
		c5.9,7.8,11.1,6.9,18.1,2.8c-14.4-27.5-57.9-69.8-73.4-71.9c-8.5,17,9.6,30.5,7.9,49.4c-9.6-7.4-17-13.2-24.5-18.9
		c-4.9-3.7-10.8-7-15,0c-3.4,5.8-0.6,10.8,5.4,14.6c10.5,6.6,20.2,14.3,30.6,21C1039.3,654.9,1046.6,658,1053.5,661.6z"/>
	<path class="st3" d="M1551.5,374.7c-1.6-4-1.9-7-3.3-7.7c-20.5-11-34.3-28.9-49.5-45.5c-2.7-2.9-8.3-3.1-12.5-4.5
		c0,4.6-1.2,9.7,0.4,13.7c3.5,9.1,7.9,17.7,5.5,33.2c-8.6-12.3-14.1-20.7-20.1-28.6c-3.8-5-9.6-8.6-14.5-2.6
		c-2.2,2.6-1.9,10.3,0.4,13.1c15,17.8,30.9,35,46.6,52.2c4,4.4,8.4,8.5,16.6,2.3c-3.7-12.4-7.6-25.3-12.5-42
		C1525.2,365.4,1532.2,384.4,1551.5,374.7z"/>
	<path class="st3" d="M1308.5,514.8c-13.6-11.9-27.2-23.8-40.9-35.6c-6.9-6-14.2-10.4-24.9-1.3c4.7,4.5,8.3,8.6,12.6,11.9
		c8,6.3,16.6,11.9,24.5,18.4c11.8,9.8,22.9,20.5,34.9,30c3.2,2.5,10.4,4,13.2,2.1c2.7-1.9,3.5-8.8,2.8-13.1
		c-1.4-7.8-4.5-15.3-7.8-25.8c20.2,10.3,22.2,33.5,45.6,40.5c-2.1-8.2-2-14.3-5-17.9c-15.7-19.2-28.9-41.2-55.2-54.3
		C1303.9,486.6,1310.2,499.4,1308.5,514.8z"/>
	<path class="st3" d="M1393.1,412.6c1.5-9.5,4.3-15.5,2.5-17.8c-14.4-18.1-28.6-36.5-48.2-49.8c-14.8,13.3,4.6,25-0.4,37.2
		c-24-6.4-33.4-33.7-58.8-39.1c-0.1,6.9,0.4,14.2,4.3,17.4c19.8,16.1,40.5,31.3,60.9,46.6c6.9,5.2,14.1,8.7,20.8-1
		c-1.8-5.6-3.6-11.3-5.5-17c0.8-0.4,1.6-0.7,2.4-1.1C1377.4,394.9,1383.4,401.7,1393.1,412.6z"/>
	<path class="st3" d="M1328.4,748.4c6.2,4.8,10.2,9.2,15.3,11.3c3.8,1.6,8.9,0.2,13.4,0.2c-1-3.9-0.8-9-3.2-11.5
		c-12.9-12.9-26.3-25.4-40-37.5c-2.8-2.5-7.2-3.1-14.7-6.1c2,12,3.4,20.6,5.5,34c-11.9-9.5-19.9-16.7-28.8-22.5
		c-2.6-1.7-10.3-0.8-11,0.9c-1.6,3.9-0.6,8.9-0.1,13.5c0.1,1,1.9,2.3,3.2,2.8c18.9,7.2,33.9,19.6,47.4,34.5
		c2.5,2.8,8.7,2.2,15.3,3.7C1329.8,762.8,1329.2,756.8,1328.4,748.4z"/>
	<path class="st3" d="M1407.3,666.4c-14.1-12.1-24.8-21.8-36.2-30.6c-2.8-2.1-7.9-1.2-12-1.7c-0.3,4.7-2.2,10.3-0.4,14
		c2,4.1,7.3,6.6,11.4,9.5c8.3,5.9,17,11.2,25.1,17.4c6.8,5.1,11.6,14.1,22.3,10.7c11.7-3.7,4-15.2,8.6-24.2
		c6.9,7.6,12.1,14.5,18.5,20.1c2.5,2.2,7.5,1.4,11.4,2c-0.1-4,1.5-9.1-0.4-11.7c-6.4-8.8-13.9-16.9-21.4-24.9
		c-7.1-7.7-11.4-18.7-23.1-21.5C1404.7,638.8,1404.7,638.8,1407.3,666.4z"/>
	<path class="st3" d="M1244.1,611.6c-0.6-5.6,0.3-10-1.5-12.2c-12.8-16-25.8-31.8-39.4-47c-2.3-2.5-10-4.2-11.3-2.7
		c-2.8,3-4.3,8.6-3.8,12.8c1.2,9.6,3.9,19,7.1,33.6c-11.4-8.4-17.9-14.3-25.4-18.2c-3.5-1.8-9,0.2-13.6,0.4
		c1.4,4.4,1.5,10.3,4.5,12.8c8.8,7.5,18.5,14.2,28.4,20.2c4.9,3,11,4,19.9,7c0-14.2,0-24.3,0-34
		C1223.7,590.2,1223.7,610,1244.1,611.6z"/>
	<path class="st3" d="M1146.4,386.8c-3.5,0-5.4,0.6-6.3-0.1c-7.9-6.4-15.7-13-23.4-19.6c-4.9-4.2-9.5-10.6-16.5-4
		c-5.3,4.9-2.7,12,5.5,17.6c7.8,5.3,15.3,11.1,23.1,16.3c5.4,3.6,11,7.6,17,9.7c10.9,3.8,16.4-0.3,17.3-12
		c0.4-5.6,0.1-11.3,0.1-17.4c15,3.9,15,3.9,27.6-1.1c-12.1-13.7-26.2-21.7-44.4-30.6C1146.4,361.6,1146.4,373.5,1146.4,386.8z"/>
	<path class="st3" d="M1492.6,514.9c2.6,11.7,5.3,23.3,8.5,37.9c-7.3-0.8-13.4,0.4-16.1-2c-19.6-17.6-38.8-35.7-57.3-54.4
		c-2.8-2.9-3.5-12.5-1.1-15.1c5.3-5.7,10.3,0.1,14.2,4.6c10.9,12.4,21.9,24.9,32.9,37.3c1.5-0.7,2.9-1.4,4.4-2.1
		c-3.6-15.3-7.2-30.6-11.5-49.1c8,2.9,13.1,3.1,15.6,5.8c17.2,18.1,33.8,36.6,50.5,55.1c1,1,2.1,2.6,2,3.8
		c-0.4,3.9-1.4,7.8-2.1,11.6c-3.3-0.9-7.6-0.8-9.6-2.9c-5-5.3-8.8-11.6-13.4-17.3c-4.3-5.3-8.9-10.3-13.4-15.4
		C1495.1,513.3,1493.8,514.1,1492.6,514.9z"/>
	<path class="st3" d="M1056,464.8c3.1,7.9,6.6,15.6,8.9,23.7c1.1,3.8,1.2,10.4-0.9,11.9c-3.5,2.5-10.4,3.9-13.8,2
		c-18.5-10.4-36.5-21.7-54.3-33.3c-2.1-1.4-1.9-6.3-2.8-9.6c4.6-0.7,10.3-3.4,13.5-1.6c12.1,6.6,23.3,14.7,37.2,23.8
		c0-20.6-17.2-34.8-11-56.8c5.9,2.4,11.9,3.1,15.1,6.4c17.1,18,33.8,36.4,50,55.2c2,2.3,0.5,7.5,0.7,11.4c-3.8-0.7-9-0.1-11.2-2.3
		c-6.5-6.9-11.8-15-17.8-22.4c-3-3.7-6.6-7-9.9-10.5C1058.4,463.5,1057.2,464.1,1056,464.8z"/>
	<path class="st3" d="M1053.5,661.6c-6.9-3.6-14.2-6.7-20.7-10.9c-10.4-6.7-20.2-14.4-30.6-21c-6-3.8-8.8-8.7-5.4-14.6
		c4.1-7,10-3.6,15,0c7.5,5.6,14.9,11.5,24.5,18.9c1.6-19-16.4-32.4-7.9-49.4c15.5,2,59,44.4,73.4,71.9c-7,4.1-12.2,5-18.1-2.8
		c-8.8-11.6-18.6-22.3-30.9-32.5c2.3,12.3,4.6,24.6,6.9,36.9C1057.5,659.3,1055.5,660.4,1053.5,661.6z"/>
	<path class="st3" d="M1551.5,374.7c-19.3,9.7-26.3-9.3-43.1-16.6c5,16.7,8.8,29.6,12.5,42c-8.1,6.2-12.6,2.1-16.6-2.3
		c-15.7-17.2-31.6-34.4-46.6-52.2c-2.3-2.7-2.6-10.4-0.4-13.1c4.9-6,10.7-2.4,14.5,2.6c6,7.9,11.5,16.3,20.1,28.6
		c2.4-15.5-2-24.1-5.5-33.2c-1.5-4-0.3-9.1-0.4-13.7c4.3,1.4,9.9,1.6,12.5,4.5c15.2,16.6,29.1,34.6,49.5,45.5
		C1549.7,367.7,1549.9,370.7,1551.5,374.7z"/>
	<path class="st3" d="M1308.5,514.8c1.7-15.4-4.6-28.2-0.3-45.2c26.4,13.1,39.6,35.1,55.2,54.3c3,3.6,2.8,9.8,5,17.9
		c-23.5-7-25.5-30.2-45.6-40.5c3.3,10.4,6.5,17.9,7.8,25.8c0.8,4.3,0,11.2-2.8,13.1c-2.7,1.9-9.9,0.5-13.2-2.1
		c-12.1-9.5-23.1-20.2-34.9-30c-7.8-6.5-16.5-12.1-24.5-18.4c-4.2-3.3-7.9-7.5-12.6-11.9c10.7-9.1,17.9-4.6,24.9,1.3
		C1281.3,491,1294.9,502.9,1308.5,514.8z"/>
	<path class="st3" d="M1393.1,412.6c-9.7-10.9-15.8-17.7-21.8-24.4c-0.8,0.4-1.6,0.7-2.4,1.1c1.8,5.7,3.7,11.4,5.5,17
		c-6.7,9.7-13.9,6.2-20.8,1c-20.5-15.3-41.1-30.5-60.9-46.6c-3.9-3.2-4.4-10.5-4.3-17.4c25.4,5.4,34.7,32.7,58.8,39.1
		c5-12.2-14.4-23.9,0.4-37.2c19.6,13.3,33.8,31.7,48.2,49.8C1397.4,397.1,1394.6,403.1,1393.1,412.6z"/>
	<path class="st3" d="M1328.4,748.4c0.8,8.5,1.4,14.4,2.2,23.2c-6.5-1.4-12.7-0.9-15.3-3.7c-13.5-14.9-28.5-27.3-47.4-34.5
		c-1.3-0.5-3.1-1.7-3.2-2.8c-0.4-4.5-1.5-9.6,0.1-13.5c0.7-1.7,8.4-2.6,11-0.9c8.9,5.9,17,13.1,28.8,22.5c-2.2-13.4-3.6-22-5.5-34
		c7.5,3,11.9,3.6,14.7,6.1c13.6,12.2,27.1,24.6,40,37.5c2.4,2.5,2.2,7.6,3.2,11.5c-4.5,0-9.6,1.4-13.4-0.2
		C1338.7,757.6,1334.6,753.2,1328.4,748.4z"/>
	<path class="st3" d="M1407.3,666.4c-2.6-27.6-2.6-27.6,3.8-41c11.7,2.9,16,13.9,23.1,21.5c7.4,8,14.9,16.1,21.4,24.9
		c1.9,2.6,0.4,7.7,0.4,11.7c-3.9-0.6-8.9,0.1-11.4-2c-6.4-5.6-11.7-12.5-18.5-20.1c-4.6,9,3.1,20.5-8.6,24.2
		c-10.7,3.4-15.5-5.6-22.3-10.7c-8.1-6.1-16.8-11.5-25.1-17.4c-4.1-2.9-9.4-5.4-11.4-9.5c-1.8-3.7,0.1-9.2,0.4-14
		c4.1,0.5,9.2-0.5,12,1.7C1382.5,644.6,1393.2,654.3,1407.3,666.4z"/>
	<path class="st3" d="M1244.1,611.6c-20.4-1.6-20.3-21.4-35-27.4c0,9.8,0,19.8,0,34c-8.9-3-15-4-19.9-7
		c-9.9-6.1-19.6-12.7-28.4-20.2c-3-2.5-3.1-8.5-4.5-12.8c4.6-0.3,10.1-2.2,13.6-0.4c7.5,3.9,13.9,9.8,25.4,18.2
		c-3.2-14.6-5.9-24-7.1-33.6c-0.5-4.2,1.1-9.8,3.8-12.8c1.3-1.5,9.1,0.2,11.3,2.7c13.6,15.3,26.7,31,39.4,47
		C1244.4,601.6,1243.5,606,1244.1,611.6z"/>
	<path class="st3" d="M1146.4,386.8c0-13.2,0-25.2,0-41.2c18.2,8.9,32.4,16.9,44.4,30.6c-12.6,5-12.6,5-27.6,1.1
		c0,6.1,0.4,11.8-0.1,17.4c-0.9,11.7-6.4,15.8-17.3,12c-6.1-2.1-11.6-6.1-17-9.7c-7.9-5.2-15.3-11-23.1-16.3
		c-8.2-5.6-10.8-12.6-5.5-17.6c7.1-6.6,11.6-0.2,16.5,4c7.7,6.6,15.5,13.2,23.4,19.6C1140.9,387.4,1142.8,386.8,1146.4,386.8z"/>
</g>
<g>
	<path class="st3" d="M1161.4-31.9c1.3-0.9,2.6-1.7,3.9-2.6c4.9,5.6,9.9,11,14.6,16.8c5,6.2,9.1,13.1,14.6,18.9
		c2.2,2.3,6.9,2.2,10.5,3.2c0.8-4.2,1.9-8.4,2.3-12.6c0.1-1.3-1.2-3-2.2-4.1c-18.2-20.1-36.3-40.3-55-59.9
		c-2.7-2.9-8.2-3.2-16.9-6.3c4.7,20.2,8.6,36.8,12.5,53.5c-1.6,0.8-3.2,1.5-4.8,2.3c-11.9-13.5-23.8-27-35.7-40.6
		c-4.3-4.9-9.7-11.1-15.5-5c-2.7,2.8-1.9,13.3,1.2,16.4c20.1,20.4,41,40,62.4,59.2c3,2.7,9.5,1.3,17.5,2.2
		C1167.1-6.5,1164.2-19.2,1161.4-31.9z"/>
	<path class="st3" d="M686.4-86.4c1.3-0.7,2.6-1.4,3.9-2.1c3.6,3.8,7.5,7.4,10.8,11.5c6.5,8.1,12.2,16.9,19.4,24.3
		c2.4,2.5,8,1.8,12.2,2.5c-0.2-4.2,1.4-9.9-0.7-12.4c-17.7-20.4-35.7-40.5-54.4-60.1c-3.5-3.7-10.1-4.4-16.4-7
		c-6.7,23.9,12,39.4,12,61.7c-15.1-9.9-27.3-18.7-40.4-25.9c-3.5-1.9-9.7,1-14.7,1.7c1,3.6,0.7,9,3.1,10.5
		c19.4,12.6,38.9,24.9,59.1,36.2c3.7,2.1,11.2,0.5,15-2.2c2.3-1.6,2.2-8.9,1-13C693.6-69.4,689.7-77.9,686.4-86.4z"/>
	<path class="st3" d="M683.7,127.7c2.2-1.3,4.3-2.5,6.5-3.8c-2.5-13.4-5-26.8-7.5-40.2c13.4,11.1,24.1,22.8,33.7,35.4
		c6.4,8.4,12.1,7.5,19.7,3.1c-15.6-29.9-63-76-79.8-78.2c-9.2,18.5,10.4,33.1,8.6,53.8c-10.4-8-18.5-14.4-26.6-20.5
		c-5.4-4-11.8-7.7-16.3,0c-3.7,6.3-0.7,11.7,5.8,15.8c11.4,7.2,22,15.6,33.3,22.8C668.2,120.4,676.1,123.8,683.7,127.7z"/>
	<path class="st3" d="M1225.5-184.4c-1.8-4.3-2-7.6-3.6-8.4c-22.3-11.9-37.3-31.4-53.9-49.5c-2.9-3.2-9-3.4-13.6-4.9
		c0,5-1.3,10.5,0.4,14.9c3.8,9.8,8.6,19.2,6,36.1c-9.4-13.4-15.3-22.5-21.9-31.1c-4.2-5.5-10.5-9.4-15.8-2.8
		c-2.3,2.9-2.1,11.2,0.4,14.2c16.4,19.4,33.6,38,50.7,56.8c4.3,4.8,9.2,9.2,18,2.5c-4-13.5-8.2-27.6-13.6-45.7
		C1196.8-194.5,1204.4-173.9,1225.5-184.4z"/>
	<path class="st3" d="M961.1-32c-14.8-12.9-29.6-25.9-44.5-38.7c-7.5-6.5-15.4-11.3-27.1-1.4c5.1,4.9,9,9.3,13.7,13
		c8.7,6.9,18.1,12.9,26.6,20c12.8,10.7,24.9,22.3,38,32.6c3.5,2.8,11.3,4.3,14.3,2.3c3-2.1,3.8-9.6,3-14.2c-1.5-8.5-4.9-16.7-8.5-28
		c21.9,11.2,24.1,36.4,49.6,44.1c-2.3-8.9-2.2-15.6-5.4-19.5c-17-20.9-31.4-44.9-60.1-59.1C956.1-62.7,962.9-48.7,961.1-32z"/>
	<path class="st3" d="M1053.1-143.2c1.6-10.4,4.6-16.8,2.7-19.3c-15.6-19.6-31.1-39.7-52.4-54.1c-16.1,14.4,5,27.2-0.4,40.5
		c-26.1-6.9-36.3-36.7-63.9-42.5c-0.1,7.5,0.5,15.5,4.7,18.9c21.6,17.6,44,34,66.3,50.7c7.5,5.6,15.4,9.5,22.7-1.1
		c-1.9-6.1-3.9-12.3-5.9-18.5c0.9-0.4,1.8-0.8,2.6-1.2C1036-162.4,1042.5-155.1,1053.1-143.2z"/>
	<path class="st3" d="M982.7,222.1c6.8,5.2,11.1,10,16.6,12.3c4.2,1.7,9.7,0.3,14.6,0.2c-1.1-4.2-0.8-9.8-3.5-12.5
		c-14-14.1-28.6-27.6-43.5-40.8c-3-2.7-7.9-3.4-16-6.7c2.1,13.1,3.7,22.5,6,37c-12.9-10.3-21.7-18.1-31.4-24.5
		c-2.8-1.9-11.2-0.9-12,0.9c-1.7,4.2-0.6,9.7-0.1,14.6c0.1,1.1,2.1,2.5,3.5,3c20.6,7.9,36.9,21.4,51.6,37.5c2.7,3,9.5,2.4,16.6,4
		C984.2,237.8,983.6,231.3,982.7,222.1z"/>
	<path class="st3" d="M1068.5,132.9c-15.3-13.1-27-23.7-39.4-33.3c-3-2.3-8.6-1.3-13.1-1.8c-0.3,5.1-2.4,11.2-0.4,15.2
		c2.2,4.4,8,7.2,12.4,10.3c9,6.4,18.5,12.2,27.3,18.9c7.4,5.6,12.7,15.3,24.3,11.7c12.7-4,4.4-16.6,9.4-26.4
		c7.5,8.3,13.2,15.8,20.1,21.9c2.7,2.4,8.1,1.6,12.3,2.2c-0.1-4.3,1.6-9.9-0.5-12.7c-7-9.6-15.2-18.4-23.2-27.1
		c-7.7-8.4-12.4-20.3-25.1-23.4C1065.7,102.9,1065.7,102.9,1068.5,132.9z"/>
	<path class="st3" d="M891,73.3c-0.6-6.1,0.3-10.9-1.6-13.3c-13.9-17.4-28.1-34.6-42.9-51.2c-2.5-2.8-10.9-4.6-12.3-3
		c-3,3.3-4.7,9.4-4.2,13.9c1.3,10.5,4.2,20.7,7.7,36.6c-12.4-9.2-19.5-15.6-27.6-19.8c-3.8-2-9.8,0.2-14.7,0.4
		c1.5,4.8,1.7,11.2,4.9,13.9c9.6,8.2,20.1,15.4,30.9,22c5.3,3.3,12,4.3,21.7,7.6c0-15.5,0-26.4,0-37C868.8,50.1,868.8,71.6,891,73.3
		z"/>
	<path class="st3" d="M784.7-171.3c-3.8,0-5.9,0.6-6.8-0.1c-8.6-7-17.1-14.1-25.5-21.3c-5.3-4.5-10.3-11.5-18-4.4
		c-5.7,5.4-2.9,13,6,19.1c8.5,5.8,16.6,12.1,25.2,17.8c5.9,3.9,11.9,8.3,18.5,10.6c11.9,4.1,17.9-0.3,18.9-13
		c0.5-6.1,0.1-12.3,0.1-18.9c16.3,4.2,16.3,4.2,30-1.2c-13.1-14.9-28.5-23.7-48.3-33.3C784.7-198.7,784.7-185.7,784.7-171.3z"/>
	<path class="st3" d="M1161.4-31.9c2.9,12.7,5.7,25.4,9.3,41.3c-8-0.8-14.5,0.5-17.5-2.2c-21.3-19.2-42.3-38.8-62.4-59.2
		c-3.1-3.1-3.8-13.6-1.2-16.4c5.8-6.2,11.2,0.1,15.5,5c11.9,13.5,23.8,27,35.7,40.6c1.6-0.8,3.2-1.5,4.8-2.3
		c-3.9-16.6-7.8-33.3-12.5-53.5c8.7,3.1,14.2,3.4,16.9,6.3c18.7,19.7,36.8,39.8,55,59.9c1,1.1,2.3,2.8,2.2,4.1
		c-0.5,4.2-1.5,8.4-2.3,12.6c-3.6-1-8.3-0.9-10.5-3.2c-5.5-5.7-9.6-12.7-14.6-18.9c-4.6-5.8-9.7-11.2-14.6-16.8
		C1164-33.6,1162.7-32.7,1161.4-31.9z"/>
	<path class="st3" d="M686.4-86.4c3.3,8.6,7.2,17,9.7,25.8c1.2,4.1,1.3,11.3-1,13c-3.8,2.7-11.3,4.3-15,2.2
		C659.9-56.7,640.4-69,621-81.6c-2.3-1.5-2.1-6.9-3.1-10.5c5-0.7,11.2-3.7,14.7-1.7c13.1,7.2,25.3,16,40.4,25.9
		c-0.1-22.4-18.7-37.9-12-61.7c6.4,2.6,12.9,3.3,16.4,7c18.6,19.6,36.7,39.6,54.4,60.1c2.2,2.5,0.6,8.2,0.7,12.4
		c-4.2-0.8-9.8-0.1-12.2-2.5c-7.1-7.5-12.8-16.3-19.4-24.3c-3.3-4.1-7.2-7.7-10.8-11.5C689-87.8,687.7-87.1,686.4-86.4z"/>
	<path class="st3" d="M683.7,127.7c-7.5-3.9-15.4-7.3-22.6-11.9c-11.3-7.2-22-15.6-33.3-22.8c-6.5-4.1-9.6-9.5-5.8-15.8
		c4.5-7.6,10.9-4,16.3,0c8.2,6.1,16.2,12.5,26.6,20.5c1.8-20.6-17.8-35.2-8.6-53.8c16.9,2.2,64.2,48.3,79.8,78.2
		c-7.6,4.5-13.3,5.4-19.7-3.1c-9.5-12.6-20.2-24.3-33.7-35.4c2.5,13.4,5,26.8,7.5,40.2C688,125.1,685.8,126.4,683.7,127.7z"/>
	<path class="st3" d="M1225.5-184.4c-21,10.5-28.7-10.1-46.9-18.1c5.4,18.1,9.6,32.2,13.6,45.7c-8.9,6.8-13.7,2.3-18-2.5
		c-17.1-18.7-34.3-37.4-50.7-56.8c-2.5-3-2.8-11.3-0.4-14.2c5.3-6.5,11.6-2.6,15.8,2.8c6.6,8.6,12.5,17.7,21.9,31.1
		c2.6-16.9-2.2-26.2-6-36.1c-1.7-4.4-0.3-9.9-0.4-14.9c4.6,1.6,10.7,1.8,13.6,4.9c16.5,18.1,31.6,37.6,53.9,49.5
		C1223.4-192,1223.7-188.8,1225.5-184.4z"/>
	<path class="st3" d="M961.1-32c1.8-16.7-5-30.7-0.4-49.1c28.7,14.2,43,38.2,60.1,59.1c3.2,3.9,3.1,10.6,5.4,19.5
		c-25.5-7.6-27.7-32.8-49.6-44.1c3.6,11.3,7,19.5,8.5,28c0.8,4.7,0,12.2-3,14.2c-3,2.1-10.8,0.5-14.3-2.3
		c-13.1-10.3-25.1-22-38-32.6c-8.5-7.1-17.9-13.1-26.6-20c-4.6-3.6-8.6-8.1-13.7-13c11.7-9.9,19.5-5,27.1,1.4
		C931.5-57.9,946.3-44.9,961.1-32z"/>
	<path class="st3" d="M1053.1-143.2c-10.6-11.9-17.1-19.2-23.7-26.6c-0.9,0.4-1.8,0.8-2.6,1.2c2,6.2,4,12.4,5.9,18.5
		c-7.3,10.6-15.1,6.7-22.7,1.1c-22.3-16.7-44.7-33.1-66.3-50.7c-4.2-3.4-4.8-11.4-4.7-18.9c27.6,5.8,37.8,35.6,63.9,42.5
		c5.4-13.3-15.7-26,0.4-40.5c21.3,14.5,36.8,34.5,52.4,54.1C1057.8-160,1054.7-153.5,1053.1-143.2z"/>
	<path class="st3" d="M982.7,222.1c0.9,9.2,1.5,15.7,2.4,25.2c-7.1-1.6-13.8-1-16.6-4c-14.7-16.2-31-29.7-51.6-37.5
		c-1.4-0.5-3.4-1.9-3.5-3c-0.5-4.9-1.6-10.4,0.1-14.6c0.7-1.8,9.2-2.8,12-0.9c9.7,6.4,18.5,14.2,31.4,24.5c-2.4-14.6-3.9-23.9-6-37
		c8.2,3.3,13,4,16,6.7c14.8,13.2,29.4,26.8,43.5,40.8c2.7,2.7,2.4,8.2,3.5,12.5c-4.9,0-10.4,1.5-14.6-0.2
		C993.9,232.1,989.5,227.3,982.7,222.1z"/>
	<path class="st3" d="M1068.5,132.9c-2.8-30-2.8-30,4.2-44.6c12.7,3.1,17.4,15.1,25.1,23.4c8.1,8.7,16.2,17.5,23.2,27.1
		c2.1,2.8,0.4,8.4,0.5,12.7c-4.2-0.6-9.7,0.2-12.3-2.2c-7-6.1-12.7-13.6-20.1-21.9c-5,9.8,3.4,22.4-9.4,26.4
		c-11.6,3.7-16.9-6.1-24.3-11.7c-8.8-6.6-18.3-12.5-27.3-18.9c-4.5-3.1-10.3-5.9-12.4-10.3c-2-4,0.1-10,0.4-15.2
		c4.4,0.5,10-0.5,13.1,1.8C1041.5,109.2,1053.2,119.8,1068.5,132.9z"/>
	<path class="st3" d="M891,73.3c-22.2-1.7-22.1-23.2-38.1-29.8c0,10.6,0,21.6,0,37c-9.7-3.3-16.4-4.3-21.7-7.6
		c-10.8-6.6-21.3-13.8-30.9-22c-3.2-2.8-3.4-9.2-4.9-13.9c5-0.3,10.9-2.4,14.7-0.4c8.1,4.3,15.2,10.7,27.6,19.8
		c-3.5-15.9-6.5-26.1-7.7-36.6c-0.6-4.6,1.2-10.7,4.2-13.9c1.5-1.6,9.9,0.2,12.3,3c14.8,16.6,29,33.8,42.9,51.2
		C891.3,62.4,890.3,67.2,891,73.3z"/>
	<path class="st3" d="M784.7-171.3c0-14.4,0-27.4,0-44.9c19.8,9.7,35.2,18.4,48.3,33.3c-13.7,5.5-13.7,5.5-30,1.2
		c0,6.6,0.4,12.8-0.1,18.9c-1,12.7-7,17.2-18.9,13c-6.6-2.3-12.6-6.6-18.5-10.6c-8.6-5.7-16.7-12-25.2-17.8
		c-8.9-6.1-11.7-13.7-6-19.1c7.7-7.2,12.7-0.2,18,4.4c8.4,7.2,16.9,14.4,25.5,21.3C778.8-170.6,780.8-171.3,784.7-171.3z"/>
</g>
<g>
	<path class="st2" d="M317.9,251.5c-10.3,15.9-19.8,30.6-29.3,45.4c-2.8,4.3-2.3,7.6,1.3,9c4,1.5,5.1-1.1,6.2-4.3
		c6.9-18.7,19.4-33.9,31.8-49.1c2.1-2.5,5.8-4.4,9.1-5c8-1.4,15.4-4.4,22-8.8c7.8-5.2,13.2-12,12.8-22.2c-0.3-8.5-3.8-10.9-11.4-7.5
		c-1.8,0.8-3.7,1.7-5.1,3.1c-7.6,7.4-15,15-22.4,22.5c-2,2.1-3.8,5.4-6.2,6c-12.2,3.1-24.6,3.3-37,0c7.9-11.2,15.7-21.6,22.9-32.3
		c5.6-8.3,10.4-17,15.7-25.5c2.4-3.9,2.4-6.7-2.8-7.6c-11.9,20.3-23.3,40.6-38.5,58.4c-5.8,6.8-11.5,12.7-21.1,13.5
		c-2.9,0.2-5.7,1.7-8.5,2.9c-9.8,4.2-14.3,12.4-16,22.4c-0.7,4-0.1,8.2,4.3,10.2c4,1.8,7.2-0.2,9.7-3c5.9-6.4,12.1-12.5,17.1-19.5
		c4.6-6.4,10.4-9.2,17.7-9.3C299.3,250.7,308.2,251.2,317.9,251.5z"/>
	<path class="st2" d="M344.9,359c8.9,4.5,9.3-2.6,10.6-5.9c6.2-15.7,11.6-31.6,17.5-47.4c6.3-16.8,12.9-33.4,19.2-50.2
		c1.6-4.3,2.8-8.9,3.7-13.4c0.3-1.6-0.5-4.6-1.6-5.1c-1.7-0.8-4.2,0-6.3,0.4c-0.9,0.2-1.6,1.1-2.4,1.7c-16,12.8-32.2,25.5-48.1,38.6
		c-4.6,3.7-9.2,6.4-15.8,4.9c0,8.9-6,13.1-12.2,17.2c-2.2,1.5-4.3,3.2-6.6,4.5c-3,1.7-6.7,3.4-4.1,7.4c2.7,4.3,6.2,2.2,9.3-0.4
		c4.1-3.4,8.2-6.7,12.4-10c2.5-2,5-3.9,8-6.3c8.5,7.8,16.4,14.8,24.1,22c6.9,6.4,6.7,6.5,3.2,14.9
		C352.3,340.8,348.7,349.6,344.9,359z"/>
	<path class="st2" d="M491,310.6c-2.7,2.6-4.3,3.8-5.4,5.3c-10.7,14.4-21.1,29-31.9,43.3c-11.4,15.1-23.1,30-34.7,44.9
		c-3.6,4.6-4.4,8.7-1.4,10c5.3,2.4,5.8-2.9,7.7-5.5c3.7-5,7-10.2,10.7-15.5c2.4,1.3,3.8,2.3,5.3,2.7c7.8,2.5,15.6,6,23.6,7
		c7.8,0.9,16-0.2,23.8-1.7c7.3-1.4,15.7-1.6,20.9-8.1c8-10.1,13.2-21.5,13.1-34.7c-0.1-10.3-2.6-20-9.7-27.6
		C506.3,323.7,498.8,317.7,491,310.6z"/>
	<path class="st2" d="M432.3,263.5c-2.3,3.5-4.2,6.4-6.1,9.2c-11.7,16.9-23.3,33.9-35.2,50.7c-2,2.8-5.5,4.4-8.3,6.7
		c-0.7,0.6-1.5,1.5-1.7,2.4c-1.7,9.9-10.1,15.3-15.5,22.7c-1.8,2.4-4.2,4.5-5.2,7.2c-0.6,1.6,0.8,4,1.3,6c1.9-0.8,4.3-1,5.5-2.4
		c5.2-6.4,10.1-13.1,15-19.7c2.6-3.5,5.6-4.9,9.3-2c8.1,6.3,17.8,7.1,27.3,8.3c16.7,2,32.6-4.7,39.2-22c2.2-5.9,4.3-11.9,5.4-18.1
		c1.6-8.7,0.8-17.5-4.6-24.8C451.7,278.1,442.2,271.4,432.3,263.5z"/>
	<path class="st2" d="M488.7,477.9c4.6,2.5,8-0.6,8.9-3.7c3.2-11.1,12.2-18.2,18.2-27.2c6.7-10.2,14.4-20.2,23.6-28.1
		c14-12.1,29.8-22.1,47.8-27.8c3.2-1,7-2.2,4.7-6.8c-1.5-3-4.4-3.5-7.6-1.6c-11.7,6.9-23.5,13.6-35.4,20.2c-1.9,1.1-4.1,1.7-7.2,2.9
		c0.1-3.6,0-6.1,0.3-8.6c1.5-13.8,3.1-27.7,4.5-41.5c0.4-3.6,0.8-7.4-5.3-8.9c-0.4,4-0.9,7.5-1.2,11c-0.6,8.3-0.7,16.6-1.7,24.9
		c-1.4,11.8-2.8,23.8-9.6,34.1c-3.4,5.3-7,10.5-10.7,15.6c-8.6,11.8-16.9,23.9-26.2,35.1C488.9,471.1,487.8,473.9,488.7,477.9z"/>
	<path class="st1" d="M317.9,251.5c-9.7-0.3-18.6-0.8-27.5-0.8c-7.3,0.1-13.1,2.9-17.7,9.3c-5,7-11.2,13.1-17.1,19.5
		c-2.6,2.8-5.7,4.8-9.7,3c-4.4-2-5-6.2-4.3-10.2c1.6-10,6.2-18.2,16-22.4c2.7-1.2,5.6-2.7,8.5-2.9c9.6-0.8,15.3-6.7,21.1-13.5
		c15.3-17.8,26.6-38.1,38.5-58.4c5.2,0.9,5.2,3.8,2.8,7.6c-5.2,8.5-10.1,17.2-15.7,25.5c-7.2,10.7-14.9,21.2-22.9,32.3
		c12.4,3.3,24.8,3.1,37,0c2.4-0.6,4.1-3.9,6.2-6c7.5-7.5,14.9-15.1,22.4-22.5c1.4-1.4,3.3-2.3,5.1-3.1c7.6-3.4,11-1,11.4,7.5
		c0.4,10.2-5,17-12.8,22.2c-6.6,4.4-13.9,7.4-22,8.8c-3.3,0.6-7.1,2.5-9.1,5c-12.4,15.2-24.9,30.4-31.8,49.1
		c-1.2,3.2-2.3,5.8-6.2,4.3c-3.7-1.4-4.1-4.7-1.3-9C298.1,282.2,307.7,267.4,317.9,251.5z M339.7,237.6c15.5-2.3,23.9-9.4,24.4-20.9
		C353.1,221.2,346.4,229.3,339.7,237.6z M266.8,257.6c-11.4,1.2-14.7,4.6-15.4,15.1C258.3,269.8,261.9,264.1,266.8,257.6z"/>
	<path class="st1" d="M344.9,359c3.9-9.5,7.4-18.3,11-27.1c3.5-8.5,3.6-8.5-3.2-14.9c-7.7-7.2-15.6-14.2-24.1-22
		c-3,2.4-5.5,4.3-8,6.3c-4.1,3.3-8.3,6.6-12.4,10c-3.1,2.5-6.6,4.6-9.3,0.4c-2.5-4,1.1-5.7,4.1-7.4c2.3-1.3,4.4-3,6.6-4.5
		c6.2-4.1,12.1-8.2,12.2-17.2c6.7,1.4,11.2-1.2,15.8-4.9c15.9-13,32-25.7,48.1-38.6c0.8-0.6,1.5-1.5,2.4-1.7
		c2.1-0.4,4.5-1.1,6.3-0.4c1.1,0.5,1.9,3.5,1.6,5.1c-0.9,4.5-2.1,9.1-3.7,13.4c-6.3,16.8-12.9,33.4-19.2,50.2
		c-5.9,15.8-11.3,31.8-17.5,47.4C354.2,356.5,353.8,363.5,344.9,359z M363.4,315.3c7.3-22,17.1-40.8,21.3-64.2
		c-17.8,13.5-33.9,25.6-50.2,37.9C344.3,297.9,353,305.9,363.4,315.3z"/>
	<path class="st1" d="M491,310.6c7.8,7.1,15.3,13.2,21.9,20.1c7.2,7.6,9.6,17.3,9.7,27.6c0.1,13.2-5.1,24.6-13.1,34.7
		c-5.2,6.5-13.6,6.7-20.9,8.1c-7.8,1.5-16,2.6-23.8,1.7c-8-0.9-15.8-4.5-23.6-7c-1.5-0.5-2.9-1.5-5.3-2.7c-3.6,5.3-7,10.5-10.7,15.5
		c-1.9,2.6-2.5,7.9-7.7,5.5c-3-1.4-2.1-5.4,1.4-10c11.6-14.9,23.3-29.8,34.7-44.9c10.8-14.3,21.3-28.9,31.9-43.3
		C486.7,314.3,488.3,313.1,491,310.6z M442.3,384.1c6.2,8.4,14.1,10.1,22,10.3c8.2,0.2,16.6-0.5,24.8-1.5c8-1,15.6-3.4,20-11.2
		c9.5-17.1,12.1-40.2-10.4-54.1c-8.1-5-9.1-5.2-14.5,1.9c-6.4,8.4-12.9,16.8-19.4,25.2C457.4,364.4,450,374.1,442.3,384.1z"/>
	<path class="st1" d="M432.3,263.5c9.9,7.9,19.4,14.7,26.3,24.1c5.4,7.4,6.2,16.1,4.6,24.8c-1.1,6.2-3.2,12.2-5.4,18.1
		c-6.6,17.3-22.5,24-39.2,22c-9.5-1.2-19.3-2-27.3-8.3c-3.7-2.9-6.7-1.5-9.3,2c-4.9,6.6-9.8,13.3-15,19.7c-1.1,1.4-3.6,1.6-5.5,2.4
		c-0.5-2-1.9-4.4-1.3-6c1.1-2.7,3.5-4.8,5.2-7.2c5.4-7.4,13.7-12.7,15.5-22.7c0.2-0.9,1-1.8,1.7-2.4c2.7-2.3,6.3-3.9,8.3-6.7
		c11.9-16.8,23.5-33.8,35.2-50.7C428.1,269.9,430,266.9,432.3,263.5z M391.4,332.5c9.9,9.1,27.2,14,38.7,10.9
		c4.7-1.3,9.8-2.9,13.5-5.9c21.7-18.2,16.7-49-10.6-60.8C419.2,295.2,405.3,313.9,391.4,332.5z"/>
	<path class="st1" d="M488.7,477.9c-0.9-4.1,0.3-6.8,3.2-10.3c9.3-11.2,17.6-23.3,26.2-35.1c3.7-5.1,7.2-10.3,10.7-15.6
		c6.8-10.3,8.2-22.3,9.6-34.1c1-8.2,1.1-16.6,1.7-24.9c0.3-3.5,0.8-7,1.2-11c6.1,1.5,5.7,5.3,5.3,8.9c-1.5,13.8-3.1,27.7-4.5,41.5
		c-0.3,2.5-0.2,5-0.3,8.6c3.1-1.2,5.3-1.8,7.2-2.9c11.8-6.7,23.6-13.4,35.4-20.2c3.3-1.9,6.1-1.4,7.6,1.6c2.3,4.5-1.6,5.8-4.7,6.8
		c-18,5.7-33.8,15.7-47.8,27.8c-9.2,7.9-16.9,17.9-23.6,28.1c-6,9.1-14.9,16.2-18.2,27.2C496.6,477.3,493.3,480.5,488.7,477.9z"/>
	<path class="st0" d="M363.4,315.3c-10.4-9.5-19.1-17.4-28.9-26.3c16.2-12.3,32.3-24.4,50.2-37.9
		C380.5,274.5,370.7,293.4,363.4,315.3z"/>
	<path class="st0" d="M442.3,384.1c7.7-10.1,15.1-19.7,22.5-29.4c6.5-8.4,12.9-16.8,19.4-25.2c5.4-7.1,6.5-6.9,14.5-1.9
		c22.5,13.9,19.9,36.9,10.4,54.1c-4.3,7.9-11.9,10.2-20,11.2c-8.2,1-16.5,1.8-24.8,1.5C456.4,394.2,448.5,392.5,442.3,384.1z"/>
	<path class="st0" d="M391.4,332.5c13.8-18.6,27.8-37.3,41.5-55.8c27.3,11.8,32.3,42.6,10.6,60.8c-3.6,3-8.8,4.6-13.5,5.9
		C418.6,346.5,401.3,341.6,391.4,332.5z"/>
</g>
<g>
	<path class="st3" d="M808.1,562c0.7-0.5,1.4-0.9,2.1-1.4c2.6,3,5.4,6,7.9,9.1c2.7,3.4,5,7.1,7.9,10.2c1.2,1.2,3.7,1.2,5.7,1.7
		c0.4-2.3,1-4.6,1.3-6.9c0.1-0.7-0.6-1.6-1.2-2.2c-9.9-10.9-19.7-21.8-29.8-32.5c-1.5-1.6-4.5-1.7-9.2-3.4c2.6,10.9,4.7,20,6.8,29
		c-0.9,0.4-1.7,0.8-2.6,1.2c-6.5-7.3-12.9-14.7-19.4-22c-2.3-2.6-5.2-6-8.4-2.7c-1.4,1.5-1,7.2,0.6,8.9
		c10.9,11.1,22.3,21.7,33.8,32.1c1.6,1.4,5.1,0.7,9.5,1.2C811.2,575.8,809.6,568.9,808.1,562z"/>
	<path class="st3" d="M550.5,532.4c0.7-0.4,1.4-0.8,2.1-1.1c2,2.1,4.1,4,5.9,6.2c3.5,4.4,6.6,9.1,10.5,13.2c1.3,1.3,4.4,1,6.6,1.4
		c-0.1-2.3,0.8-5.4-0.4-6.7c-9.6-11.1-19.4-22-29.5-32.6c-1.9-2-5.5-2.4-8.9-3.8c-3.6,13,6.5,21.4,6.5,33.5
		c-8.2-5.3-14.8-10.1-21.9-14c-1.9-1.1-5.3,0.6-8,0.9c0.5,1.9,0.4,4.9,1.7,5.7c10.5,6.8,21.1,13.5,32,19.6c2,1.1,6.1,0.2,8.1-1.2
		c1.3-0.9,1.2-4.8,0.6-7C554.4,541.7,552.3,537.1,550.5,532.4z"/>
	<path class="st3" d="M549,648.6c1.2-0.7,2.3-1.4,3.5-2.1c-1.4-7.3-2.7-14.5-4.1-21.8c7.3,6,13.1,12.4,18.2,19.2
		c3.5,4.6,6.6,4.1,10.7,1.7c-8.5-16.2-34.1-41.2-43.3-42.4c-5,10.1,5.6,18,4.7,29.2c-5.7-4.4-10-7.8-14.4-11.1
		c-2.9-2.2-6.4-4.2-8.8,0c-2,3.4-0.4,6.4,3.2,8.6c6.2,3.9,11.9,8.4,18.1,12.4C540.7,644.6,544.9,646.4,549,648.6z"/>
	<path class="st3" d="M842.8,479.3c-1-2.4-1.1-4.1-1.9-4.6c-12.1-6.5-20.2-17-29.2-26.8c-1.6-1.7-4.9-1.8-7.4-2.7
		c0,2.7-0.7,5.7,0.2,8.1c2.1,5.3,4.6,10.4,3.3,19.6c-5.1-7.3-8.3-12.2-11.9-16.9c-2.3-3-5.7-5.1-8.6-1.5c-1.3,1.6-1.1,6.1,0.2,7.7
		c8.9,10.5,18.2,20.6,27.5,30.8c2.4,2.6,5,5,9.8,1.3c-2.2-7.3-4.5-15-7.4-24.8C827.3,473.8,831.4,485,842.8,479.3z"/>
	<path class="st3" d="M699.5,562c-8-7-16.1-14-24.1-21c-4.1-3.5-8.4-6.1-14.7-0.8c2.8,2.6,4.9,5.1,7.4,7c4.7,3.7,9.8,7,14.4,10.8
		c7,5.8,13.5,12.1,20.6,17.7c1.9,1.5,6.2,2.3,7.8,1.2c1.6-1.1,2.1-5.2,1.6-7.7c-0.8-4.6-2.7-9-4.6-15.2
		c11.9,6.1,13.1,19.8,26.9,23.9c-1.3-4.8-1.2-8.4-2.9-10.6c-9.2-11.3-17-24.3-32.6-32C696.8,545.3,700.5,552.9,699.5,562z"/>
	<path class="st3" d="M749.4,501.7c0.9-5.6,2.5-9.1,1.4-10.5c-8.5-10.7-16.9-21.5-28.4-29.4c-8.7,7.8,2.7,14.7-0.2,21.9
		c-14.2-3.8-19.7-19.9-34.7-23.1c0,4.1,0.3,8.4,2.6,10.3c11.7,9.5,23.9,18.4,36,27.5c4.1,3.1,8.3,5.1,12.3-0.6
		c-1.1-3.3-2.1-6.7-3.2-10c0.5-0.2,1-0.4,1.4-0.6C740.1,491.2,743.6,495.2,749.4,501.7z"/>
	<path class="st3" d="M711.2,699.8c3.7,2.8,6,5.4,9,6.7c2.3,0.9,5.2,0.1,7.9,0.1c-0.6-2.3-0.5-5.3-1.9-6.8
		c-7.6-7.6-15.5-15-23.6-22.1c-1.6-1.5-4.3-1.8-8.7-3.6c1.2,7.1,2,12.2,3.3,20.1c-7-5.6-11.7-9.8-17-13.3c-1.5-1-6.1-0.5-6.5,0.5
		c-0.9,2.3-0.3,5.3-0.1,7.9c0.1,0.6,1.1,1.3,1.9,1.6c11.2,4.3,20,11.6,28,20.4c1.5,1.6,5.1,1.3,9,2.2
		C712,708.3,711.7,704.7,711.2,699.8z"/>
	<path class="st3" d="M757.7,651.4c-8.3-7.1-14.6-12.9-21.4-18.1c-1.6-1.3-4.7-0.7-7.1-1c-0.2,2.8-1.3,6.1-0.2,8.2
		c1.2,2.4,4.3,3.9,6.7,5.6c4.9,3.5,10,6.6,14.8,10.2c4,3,6.9,8.3,13.2,6.3c6.9-2.2,2.4-9,5.1-14.3c4,4.5,7.2,8.6,10.9,11.9
		c1.5,1.3,4.4,0.8,6.7,1.2c0-2.3,0.9-5.4-0.3-6.9c-3.8-5.2-8.2-10-12.6-14.7c-4.2-4.5-6.7-11-13.6-12.7
		C756.2,635.1,756.2,635.1,757.7,651.4z"/>
	<path class="st3" d="M661.4,619.1c-0.3-3.3,0.2-5.9-0.9-7.2c-7.5-9.4-15.2-18.7-23.3-27.7c-1.3-1.5-5.9-2.5-6.7-1.6
		c-1.6,1.8-2.6,5.1-2.3,7.6c0.7,5.7,2.3,11.2,4.2,19.8c-6.7-5-10.5-8.4-15-10.7c-2.1-1.1-5.3,0.1-8,0.2c0.8,2.6,0.9,6.1,2.7,7.6
		c5.2,4.4,10.9,8.3,16.8,11.9c2.9,1.8,6.5,2.3,11.8,4.1c0-8.4,0-14.3,0-20.1C649.4,606.5,649.4,618.1,661.4,619.1z"/>
	<path class="st3" d="M603.8,486.4c-2.1,0-3.2,0.4-3.7-0.1c-4.7-3.8-9.2-7.7-13.8-11.6c-2.9-2.5-5.6-6.3-9.8-2.4
		c-3.1,2.9-1.6,7.1,3.3,10.4c4.6,3.1,9,6.6,13.7,9.6c3.2,2.1,6.5,4.5,10,5.7c6.4,2.2,9.7-0.2,10.2-7.1c0.3-3.3,0-6.7,0-10.3
		c8.8,2.3,8.8,2.3,16.3-0.7c-7.1-8.1-15.5-12.8-26.2-18.1C603.8,471.6,603.8,478.6,603.8,486.4z"/>
	<path class="st3" d="M808.1,562c1.5,6.9,3.1,13.8,5,22.4c-4.3-0.5-7.9,0.3-9.5-1.2c-11.6-10.4-22.9-21-33.8-32.1
		c-1.7-1.7-2.1-7.4-0.6-8.9c3.1-3.4,6.1,0,8.4,2.7c6.5,7.3,12.9,14.7,19.4,22c0.9-0.4,1.7-0.8,2.6-1.2c-2.1-9-4.2-18.1-6.8-29
		c4.7,1.7,7.7,1.9,9.2,3.4c10.1,10.7,19.9,21.6,29.8,32.5c0.6,0.6,1.3,1.5,1.2,2.2c-0.2,2.3-0.8,4.6-1.3,6.9
		c-1.9-0.5-4.5-0.5-5.7-1.7c-3-3.1-5.2-6.9-7.9-10.2c-2.5-3.1-5.3-6.1-7.9-9.1C809.5,561.1,808.8,561.6,808.1,562z"/>
	<path class="st3" d="M550.5,532.4c1.8,4.7,3.9,9.2,5.3,14c0.6,2.2,0.7,6.2-0.6,7c-2.1,1.4-6.1,2.3-8.1,1.2
		c-10.9-6.1-21.5-12.8-32-19.6c-1.3-0.8-1.1-3.7-1.7-5.7c2.7-0.4,6.1-2,8-0.9c7.1,3.9,13.7,8.7,21.9,14c0-12.1-10.2-20.5-6.5-33.5
		c3.5,1.4,7,1.8,8.9,3.8c10.1,10.6,19.9,21.5,29.5,32.6c1.2,1.4,0.3,4.5,0.4,6.7c-2.3-0.4-5.3,0-6.6-1.4c-3.9-4-7-8.8-10.5-13.2
		c-1.8-2.2-3.9-4.2-5.9-6.2C551.9,531.7,551.2,532.1,550.5,532.4z"/>
	<path class="st3" d="M549,648.6c-4.1-2.1-8.4-4-12.2-6.4c-6.2-3.9-11.9-8.5-18.1-12.4c-3.5-2.2-5.2-5.2-3.2-8.6
		c2.4-4.1,5.9-2.1,8.8,0c4.4,3.3,8.8,6.8,14.4,11.1c1-11.2-9.7-19.1-4.7-29.2c9.1,1.2,34.8,26.2,43.3,42.4
		c-4.1,2.4-7.2,2.9-10.7-1.7c-5.2-6.8-11-13.2-18.2-19.2c1.4,7.3,2.7,14.5,4.1,21.8C551.4,647.2,550.2,647.9,549,648.6z"/>
	<path class="st3" d="M842.8,479.3c-11.4,5.7-15.5-5.5-25.4-9.8c2.9,9.8,5.2,17.5,7.4,24.8c-4.8,3.7-7.4,1.2-9.8-1.3
		c-9.3-10.2-18.6-20.3-27.5-30.8c-1.4-1.6-1.5-6.1-0.2-7.7c2.9-3.6,6.3-1.4,8.6,1.5c3.6,4.7,6.8,9.6,11.9,16.9
		c1.4-9.1-1.2-14.2-3.3-19.6c-0.9-2.4-0.2-5.4-0.2-8.1c2.5,0.8,5.8,1,7.4,2.7c9,9.8,17.1,20.4,29.2,26.8
		C841.7,475.2,841.9,476.9,842.8,479.3z"/>
	<path class="st3" d="M699.5,562c1-9.1-2.7-16.7-0.2-26.6c15.6,7.7,23.3,20.7,32.6,32c1.7,2.1,1.7,5.8,2.9,10.6
		c-13.9-4.1-15-17.8-26.9-23.9c1.9,6.2,3.8,10.6,4.6,15.2c0.4,2.5,0,6.6-1.6,7.7c-1.6,1.1-5.9,0.3-7.8-1.2
		c-7.1-5.6-13.6-11.9-20.6-17.7c-4.6-3.8-9.7-7.1-14.4-10.8c-2.5-2-4.7-4.4-7.4-7c6.3-5.3,10.6-2.7,14.7,0.8
		C683.4,547.9,691.4,555,699.5,562z"/>
	<path class="st3" d="M749.4,501.7c-5.7-6.4-9.3-10.4-12.8-14.4c-0.5,0.2-1,0.4-1.4,0.6c1.1,3.4,2.2,6.7,3.2,10
		c-4,5.7-8.2,3.6-12.3,0.6c-12.1-9-24.3-18-36-27.5c-2.3-1.9-2.6-6.2-2.6-10.3c15,3.2,20.5,19.3,34.7,23.1
		c2.9-7.2-8.5-14.1,0.2-21.9c11.5,7.8,19.9,18.7,28.4,29.4C751.9,492.5,750.2,496.1,749.4,501.7z"/>
	<path class="st3" d="M711.2,699.8c0.5,5,0.8,8.5,1.3,13.7c-3.9-0.9-7.5-0.5-9-2.2c-8-8.8-16.8-16.1-28-20.4c-0.8-0.3-1.8-1-1.9-1.6
		c-0.3-2.7-0.9-5.7,0.1-7.9c0.4-1,5-1.5,6.5-0.5c5.3,3.5,10,7.7,17,13.3c-1.3-7.9-2.1-13-3.3-20.1c4.4,1.8,7,2.1,8.7,3.6
		c8,7.2,16,14.5,23.6,22.1c1.4,1.4,1.3,4.5,1.9,6.8c-2.7,0-5.6,0.8-7.9-0.1C717.2,705.2,714.9,702.6,711.2,699.8z"/>
	<path class="st3" d="M757.7,651.4c-1.5-16.3-1.5-16.3,2.3-24.2c6.9,1.7,9.4,8.2,13.6,12.7c4.4,4.7,8.8,9.5,12.6,14.7
		c1.1,1.5,0.2,4.6,0.3,6.9c-2.3-0.3-5.2,0.1-6.7-1.2c-3.8-3.3-6.9-7.4-10.9-11.9c-2.7,5.3,1.8,12.1-5.1,14.3
		c-6.3,2-9.1-3.3-13.2-6.3c-4.8-3.6-9.9-6.8-14.8-10.2c-2.4-1.7-5.6-3.2-6.7-5.6c-1.1-2.2,0.1-5.4,0.2-8.2c2.4,0.3,5.4-0.3,7.1,1
		C743.1,638.5,749.4,644.3,757.7,651.4z"/>
	<path class="st3" d="M661.4,619.1c-12-0.9-12-12.6-20.7-16.1c0,5.8,0,11.7,0,20.1c-5.2-1.8-8.9-2.4-11.8-4.1
		c-5.8-3.6-11.6-7.5-16.8-11.9c-1.8-1.5-1.8-5-2.7-7.6c2.7-0.1,5.9-1.3,8-0.2c4.4,2.3,8.2,5.8,15,10.7c-1.9-8.6-3.5-14.2-4.2-19.8
		c-0.3-2.5,0.6-5.8,2.3-7.6c0.8-0.9,5.4,0.1,6.7,1.6c8,9,15.7,18.3,23.3,27.7C661.6,613.2,661.1,615.7,661.4,619.1z"/>
	<path class="st3" d="M603.8,486.4c0-7.8,0-14.9,0-24.3c10.7,5.2,19.1,10,26.2,18.1c-7.4,3-7.4,3-16.3,0.7c0,3.6,0.2,7,0,10.3
		c-0.5,6.9-3.8,9.3-10.2,7.1c-3.6-1.3-6.8-3.6-10-5.7c-4.6-3.1-9.1-6.5-13.7-9.6c-4.8-3.3-6.4-7.5-3.3-10.4c4.2-3.9,6.9-0.1,9.8,2.4
		c4.6,3.9,9.2,7.8,13.8,11.6C600.6,486.8,601.7,486.4,603.8,486.4z"/>
</g>
<g>
	<path class="st3" d="M105.7,501.6c1.2-0.8,2.4-1.6,3.6-2.4c4.5,5.1,9.1,10.1,13.4,15.4c4.6,5.7,8.4,12.1,13.4,17.3
		c2,2.1,6.3,2,9.6,2.9c0.8-3.9,1.7-7.7,2.1-11.6c0.1-1.2-1.1-2.7-2-3.8c-16.8-18.4-33.4-37-50.5-55.1c-2.5-2.7-7.6-2.9-15.6-5.8
		c4.3,18.5,7.9,33.8,11.5,49.1c-1.5,0.7-2.9,1.4-4.4,2.1c-11-12.4-21.9-24.9-32.9-37.3c-3.9-4.5-8.9-10.2-14.2-4.6
		c-2.5,2.6-1.8,12.2,1.1,15.1c18.5,18.8,37.7,36.8,57.3,54.4c2.7,2.4,8.7,1.2,16.1,2C110.9,524.9,108.3,513.3,105.7,501.6z"/>
	<path class="st3" d="M-331,451.5c1.2-0.6,2.4-1.3,3.6-1.9c3.3,3.5,6.9,6.8,9.9,10.5c6,7.4,11.2,15.5,17.8,22.4
		c2.2,2.3,7.4,1.6,11.2,2.3c-0.1-3.9,1.3-9.1-0.7-11.4c-16.2-18.8-32.9-37.3-50-55.2c-3.2-3.4-9.2-4.1-15.1-6.4
		c-6.2,22,11,36.2,11,56.8c-13.9-9.1-25.1-17.2-37.2-23.8c-3.2-1.8-9,0.9-13.5,1.6c0.9,3.3,0.7,8.3,2.8,9.6
		c17.8,11.6,35.8,22.9,54.3,33.3c3.4,1.9,10.3,0.4,13.8-2c2.1-1.5,2-8.2,0.9-11.9C-324.3,467.1-327.9,459.3-331,451.5z"/>
	<path class="st3" d="M-333.5,648.3c2-1.2,4-2.3,6-3.5c-2.3-12.3-4.6-24.6-6.9-36.9c12.3,10.2,22.2,21,30.9,32.5
		c5.9,7.8,11.1,6.9,18.1,2.8c-14.4-27.5-57.9-69.8-73.4-71.9c-8.5,17,9.6,30.5,7.9,49.4c-9.6-7.4-17-13.2-24.5-18.9
		c-4.9-3.7-10.8-7-15,0c-3.4,5.8-0.6,10.8,5.4,14.6c10.5,6.6,20.2,14.3,30.6,21C-347.6,641.6-340.4,644.7-333.5,648.3z"/>
	<path class="st3" d="M164.6,361.4c-1.6-4-1.9-7-3.3-7.7c-20.5-11-34.3-28.9-49.5-45.5c-2.7-2.9-8.3-3.1-12.5-4.5
		c0,4.6-1.2,9.7,0.4,13.7c3.5,9.1,7.9,17.7,5.5,33.2C96.5,338.1,91,329.8,85,321.9c-3.8-5-9.6-8.6-14.5-2.6
		c-2.2,2.6-1.9,10.3,0.4,13.1c15,17.8,30.9,35,46.6,52.2c4,4.4,8.4,8.5,16.6,2.3c-3.7-12.4-7.6-25.3-12.5-42
		C138.2,352.1,145.2,371,164.6,361.4z"/>
	<path class="st3" d="M-78.4,501.5c-13.6-11.9-27.2-23.8-40.9-35.6c-6.9-6-14.2-10.4-24.9-1.3c4.7,4.5,8.3,8.6,12.6,11.9
		c8,6.3,16.6,11.9,24.5,18.4c11.8,9.8,22.9,20.5,34.9,30c3.2,2.5,10.4,4,13.2,2.1c2.7-1.9,3.5-8.8,2.8-13.1
		c-1.4-7.8-4.5-15.3-7.8-25.8c20.2,10.3,22.2,33.5,45.6,40.5c-2.1-8.2-2-14.3-5-17.9c-15.7-19.2-28.9-41.2-55.2-54.3
		C-83,473.2-76.7,486.1-78.4,501.5z"/>
	<path class="st3" d="M6.1,399.3c1.5-9.5,4.3-15.5,2.5-17.8c-14.4-18.1-28.6-36.5-48.2-49.8C-54.4,345-35,356.7-40,369
		c-24-6.4-33.4-33.7-58.8-39.1c-0.1,6.9,0.4,14.2,4.3,17.4c19.8,16.1,40.5,31.3,60.9,46.6c6.9,5.2,14.1,8.7,20.8-1
		c-1.8-5.6-3.6-11.3-5.5-17c0.8-0.4,1.6-0.7,2.4-1.1C-9.6,381.6-3.6,388.4,6.1,399.3z"/>
	<path class="st3" d="M-58.6,735.1c6.2,4.8,10.2,9.2,15.3,11.3c3.8,1.6,8.9,0.2,13.4,0.2c-1-3.9-0.8-9-3.2-11.5
		c-12.9-12.9-26.3-25.4-40-37.5c-2.8-2.5-7.2-3.1-14.7-6.1c2,12,3.4,20.6,5.5,34c-11.9-9.5-19.9-16.7-28.8-22.5
		c-2.6-1.7-10.3-0.8-11,0.9c-1.6,3.9-0.6,8.9-0.1,13.5c0.1,1,1.9,2.3,3.2,2.8c18.9,7.2,33.9,19.6,47.4,34.5
		c2.5,2.8,8.7,2.2,15.3,3.7C-57.2,749.5-57.8,743.5-58.6,735.1z"/>
	<path class="st3" d="M20.3,653.1C6.2,641-4.5,631.3-15.9,622.5c-2.8-2.1-7.9-1.2-12-1.7c-0.3,4.7-2.2,10.3-0.4,14
		c2,4.1,7.3,6.6,11.4,9.5c8.3,5.9,17,11.2,25.1,17.4c6.8,5.1,11.6,14.1,22.3,10.7c11.7-3.7,4-15.2,8.6-24.2
		c6.9,7.6,12.1,14.5,18.5,20.1c2.5,2.2,7.5,1.4,11.4,2c-0.1-4,1.5-9.1-0.4-11.7c-6.4-8.8-13.9-16.9-21.4-24.9
		c-7.1-7.7-11.4-18.7-23.1-21.5C17.7,625.5,17.7,625.5,20.3,653.1z"/>
	<path class="st3" d="M-142.9,598.3c-0.6-5.6,0.3-10-1.5-12.2c-12.8-16-25.8-31.8-39.4-47c-2.3-2.5-10-4.2-11.3-2.7
		c-2.8,3-4.3,8.6-3.8,12.8c1.2,9.6,3.9,19,7.1,33.6c-11.4-8.4-17.9-14.3-25.4-18.2c-3.5-1.8-9,0.2-13.6,0.4
		c1.4,4.4,1.5,10.3,4.5,12.8c8.8,7.5,18.5,14.2,28.4,20.2c4.9,3,11,4,19.9,7c0-14.2,0-24.3,0-34
		C-163.2,576.9-163.3,596.7-142.9,598.3z"/>
	<path class="st3" d="M-240.6,373.5c-3.5,0-5.4,0.6-6.3-0.1c-7.9-6.4-15.7-13-23.4-19.6c-4.9-4.2-9.5-10.6-16.5-4
		c-5.3,4.9-2.7,12,5.5,17.6c7.8,5.3,15.3,11.1,23.1,16.3c5.4,3.6,11,7.6,17,9.7c10.9,3.8,16.4-0.3,17.3-12
		c0.4-5.6,0.1-11.3,0.1-17.4c15,3.9,15,3.9,27.6-1.1c-12.1-13.7-26.2-21.7-44.4-30.6C-240.6,348.2-240.6,360.2-240.6,373.5z"/>
	<path class="st3" d="M105.7,501.6c2.6,11.7,5.3,23.3,8.5,37.9c-7.3-0.8-13.4,0.4-16.1-2c-19.6-17.6-38.8-35.7-57.3-54.4
		c-2.8-2.9-3.5-12.5-1.1-15.1c5.3-5.7,10.3,0.1,14.2,4.6c10.9,12.4,21.9,24.9,32.9,37.3c1.5-0.7,2.9-1.4,4.4-2.1
		c-3.6-15.3-7.2-30.6-11.5-49.1c8,2.9,13.1,3.1,15.6,5.8c17.2,18.1,33.8,36.6,50.5,55.1c1,1,2.1,2.6,2,3.8
		c-0.4,3.9-1.4,7.8-2.1,11.6c-3.3-0.9-7.6-0.8-9.6-2.9c-5-5.3-8.8-11.6-13.4-17.3c-4.3-5.3-8.9-10.3-13.4-15.4
		C108.1,500,106.9,500.8,105.7,501.6z"/>
	<path class="st3" d="M-331,451.5c3.1,7.9,6.6,15.6,8.9,23.7c1.1,3.8,1.2,10.4-0.9,11.9c-3.5,2.5-10.4,3.9-13.8,2
		c-18.5-10.4-36.5-21.7-54.3-33.3c-2.1-1.4-1.9-6.3-2.8-9.6c4.6-0.7,10.3-3.4,13.5-1.6c12.1,6.6,23.3,14.7,37.2,23.8
		c0-20.6-17.2-34.8-11-56.8c5.9,2.4,11.9,3.1,15.1,6.4c17.1,18,33.8,36.4,50,55.2c2,2.3,0.5,7.5,0.7,11.4c-3.8-0.7-9-0.1-11.2-2.3
		c-6.5-6.9-11.8-15-17.8-22.4c-3-3.7-6.6-7-9.9-10.5C-328.6,450.2-329.8,450.8-331,451.5z"/>
	<path class="st3" d="M-333.5,648.3c-6.9-3.6-14.2-6.7-20.7-10.9c-10.4-6.7-20.2-14.4-30.6-21c-6-3.8-8.8-8.7-5.4-14.6
		c4.1-7,10-3.6,15,0c7.5,5.6,14.9,11.5,24.5,18.9c1.6-19-16.4-32.4-7.9-49.4c15.5,2,59,44.4,73.4,71.9c-7,4.1-12.2,5-18.1-2.8
		c-8.8-11.6-18.6-22.3-30.9-32.5c2.3,12.3,4.6,24.6,6.9,36.9C-329.5,645.9-331.5,647.1-333.5,648.3z"/>
	<path class="st3" d="M164.6,361.4c-19.3,9.7-26.3-9.3-43.1-16.6c5,16.7,8.8,29.6,12.5,42c-8.1,6.2-12.6,2.1-16.6-2.3
		c-15.7-17.2-31.6-34.4-46.6-52.2c-2.3-2.7-2.6-10.4-0.4-13.1c4.9-6,10.7-2.4,14.5,2.6c6,7.9,11.5,16.3,20.1,28.6
		c2.4-15.5-2-24.1-5.5-33.2c-1.5-4-0.3-9.1-0.4-13.7c4.3,1.4,9.9,1.6,12.5,4.5c15.2,16.6,29.1,34.6,49.5,45.5
		C162.7,354.4,163,357.4,164.6,361.4z"/>
	<path class="st3" d="M-78.4,501.5c1.7-15.4-4.6-28.2-0.3-45.2c26.4,13.1,39.6,35.1,55.2,54.3c3,3.6,2.8,9.8,5,17.9
		c-23.5-7-25.5-30.2-45.6-40.5c3.3,10.4,6.5,17.9,7.8,25.8c0.8,4.3,0,11.2-2.8,13.1c-2.7,1.9-9.9,0.5-13.2-2.1
		c-12.1-9.5-23.1-20.2-34.9-30c-7.8-6.5-16.5-12.1-24.5-18.4c-4.2-3.3-7.9-7.5-12.6-11.9c10.7-9.1,17.9-4.6,24.9,1.3
		C-105.7,477.7-92.1,489.6-78.4,501.5z"/>
	<path class="st3" d="M6.1,399.3c-9.7-10.9-15.8-17.7-21.8-24.4c-0.8,0.4-1.6,0.7-2.4,1.1c1.8,5.7,3.7,11.4,5.5,17
		c-6.7,9.7-13.9,6.2-20.8,1c-20.5-15.3-41.1-30.5-60.9-46.6c-3.9-3.2-4.4-10.5-4.3-17.4C-73.3,335.2-64,362.6-40,369
		c5-12.2-14.4-23.9,0.4-37.2c19.6,13.3,33.8,31.7,48.2,49.8C10.4,383.8,7.6,389.8,6.1,399.3z"/>
	<path class="st3" d="M-58.6,735.1c0.8,8.5,1.4,14.4,2.2,23.2c-6.5-1.4-12.7-0.9-15.3-3.7c-13.5-14.9-28.5-27.3-47.4-34.5
		c-1.3-0.5-3.1-1.7-3.2-2.8c-0.4-4.5-1.5-9.6,0.1-13.5c0.7-1.7,8.4-2.6,11-0.9c8.9,5.9,17,13.1,28.8,22.5c-2.2-13.4-3.6-22-5.5-34
		c7.5,3,11.9,3.6,14.7,6.1c13.6,12.2,27.1,24.6,40,37.5c2.4,2.5,2.2,7.6,3.2,11.5c-4.5,0-9.6,1.4-13.4-0.2
		C-48.3,744.3-52.3,739.8-58.6,735.1z"/>
	<path class="st3" d="M20.3,653.1c-2.6-27.6-2.6-27.6,3.8-41c11.7,2.9,16,13.9,23.1,21.5c7.4,8,14.9,16.1,21.4,24.9
		c1.9,2.6,0.4,7.7,0.4,11.7c-3.9-0.6-8.9,0.1-11.4-2c-6.4-5.6-11.7-12.5-18.5-20.1c-4.6,9,3.1,20.5-8.6,24.2
		c-10.7,3.4-15.5-5.6-22.3-10.7c-8.1-6.1-16.8-11.5-25.1-17.4c-4.1-2.9-9.4-5.4-11.4-9.5c-1.8-3.7,0.1-9.2,0.4-14
		c4.1,0.5,9.2-0.5,12,1.7C-4.5,631.3,6.2,641,20.3,653.1z"/>
	<path class="st3" d="M-142.9,598.3c-20.4-1.6-20.3-21.4-35-27.4c0,9.8,0,19.8,0,34c-8.9-3-15-4-19.9-7
		c-9.9-6.1-19.6-12.7-28.4-20.2c-3-2.5-3.1-8.5-4.5-12.8c4.6-0.3,10.1-2.2,13.6-0.4c7.5,3.9,13.9,9.8,25.4,18.2
		c-3.2-14.6-5.9-24-7.1-33.6c-0.5-4.2,1.1-9.8,3.8-12.8c1.3-1.5,9.1,0.2,11.3,2.7c13.6,15.3,26.7,31,39.4,47
		C-142.6,588.3-143.5,592.6-142.9,598.3z"/>
	<path class="st3" d="M-240.6,373.5c0-13.2,0-25.2,0-41.2c18.2,8.9,32.4,16.9,44.4,30.6c-12.6,5-12.6,5-27.6,1.1
		c0,6.1,0.4,11.8-0.1,17.4c-0.9,11.7-6.4,15.8-17.3,12c-6.1-2.1-11.6-6.1-17-9.7c-7.9-5.2-15.3-11-23.1-16.3
		c-8.2-5.6-10.8-12.6-5.5-17.6c7.1-6.6,11.6-0.2,16.5,4c7.7,6.6,15.5,13.2,23.4,19.6C-246,374.1-244.1,373.5-240.6,373.5z"/>
</g>
<path class="st0" d="M182.6,96.8l-2.6,8.4c0,0,14.4,5,14.4,1s-0.8-7.1-2.2-7.5C190.9,98.2,182.6,96.8,182.6,96.8z"/>
<polygon class="st0" points="159.8,126.8 159.8,137.7 150.5,135.7 "/>
<path class="st0" d="M339.7,237.6c0,0,7.8-9.4,10-11.4c2.2-2,11.4-9.8,14.3-9.5c2.9,0.3,0.4,6.1-2.3,10.5
	c-2.8,4.3-13.2,10.1-15.8,10.5C343.5,238,339.7,237.6,339.7,237.6z"/>
<path class="st0" d="M269.8,254c0,0-10,1.5-14,5.1s-8.5,10.9-6.8,13.7"/>
</svg>
